<?xml version="1.0" standalone="no"?>
<!DOCTYPE svg PUBLIC "-//W3C//DTD SVG 1.1//EN" "http://www.w3.org/Graphics/SVG/1.1/DTD/svg11.dtd" >
<svg xmlns="http://www.w3.org/2000/svg">
<metadata></metadata>
<defs>
<font id="hera_biglight" horiz-adv-x="960" >
<font-face units-per-em="1000" ascent="800" descent="-200" />
<missing-glyph horiz-adv-x="310" />
<glyph unicode="ff" horiz-adv-x="578" d="M354 -165q-38 0 -55 19.5t-17 35.5q0 17 9 17q11 0 20 -32.5t29 -32.5q25 0 31.5 33.5t6.5 115.5v510h-178v-432q0 -116 -36.5 -175t-90.5 -59q-38 0 -55 19.5t-17 35.5q0 17 9 17q11 0 20.5 -32.5t28.5 -32.5q25 0 31.5 33.5t6.5 115.5v510h-70q-8 0 -8.5 4t7.5 4h71 q3 315 252 315q72 0 121 -51q61 51 160 51q65 0 114 -44t49 -112q0 -27 -15.5 -46t-42.5 -19q-28 0 -46 17t-18 42q0 24 16.5 41t41.5 17q17 0 27 -5q-21 101 -125 101q-49 0 -80 -25t-50.5 -94.5t-19.5 -187.5q29 0 64.5 4.5t42.5 4.5q23 0 24 -13q-2 -13 -26 -14 q-93 10 -105 10v-432q0 -116 -36.5 -175t-90.5 -59zM350 816q-49 0 -80 -25t-50.5 -94.5t-19.5 -187.5h178q1 173 77 250q-31 57 -105 57z" />
<glyph unicode="fi" horiz-adv-x="608" d="M304 492q-7 0 -38.5 4t-65.5 5v-432q0 -116 -36.5 -175t-90.5 -59q-38 0 -55 19.5t-17 35.5q0 17 9 17q11 0 20.5 -32.5t28.5 -32.5q25 0 31.5 33.5t6.5 115.5v510h-70q-18 0 -18 4t17 4h71q3 315 252 315q65 0 114 -44t49 -112q0 -27 -15.5 -46t-42.5 -19q-28 0 -46 17 t-18 42q0 24 16.5 41t41.5 17q17 0 27 -5q-21 101 -125 101q-49 0 -80 -25t-50.5 -94.5t-19.5 -187.5q45 0 72.5 3.5t31.5 3.5q11 0 16.5 -6t0.5 -12t-17 -6zM525 -8q-49 0 -89.5 36t-40.5 107v315q0 66 55 66q52 0 52 -65v-388q0 -62 39 -62q19 0 30 19.5t17 39t13 19.5 q9 0 9 -12q0 -31 -25 -53t-60 -22z" />
<glyph unicode="fl" horiz-adv-x="605" d="M299 481q-13 1 -27 4t-29.5 5t-42.5 2v-423q0 -116 -36.5 -175t-90.5 -59q-38 0 -55 19.5t-17 35.5q0 17 9 17q11 0 20.5 -32.5t28.5 -32.5q25 0 31.5 33.5t6.5 115.5v501h-70q-15 0 -18 4q-1 2 3.5 3.5t13.5 1.5h71v170q0 321 252 321q65 0 114 -44t49 -112 q0 -27 -15.5 -46t-42.5 -19q-28 0 -46 17t-18 42q0 24 16.5 41t41.5 17q17 0 27 -5q-21 101 -125 101q-75 0 -112.5 -68.5t-37.5 -243.5v-171q57 0 79.5 3.5t24.5 3.5q17 0 19 -13q2 -9 -12 -13q-5 -1 -12 -1zM511 -10q-46 0 -79.5 34t-33.5 98q0 34 1 253t1 279 q0 50 -39 50q-19 0 -31.5 -27.5t-14.5 -27.5q-7 0 -10 3t-2 7q9 28 29.5 42t62.5 14q111 0 111 -154q0 -21 -0.5 -235.5t-0.5 -273.5q0 -21 12 -34t28 -13q21 0 30 16.5t12 32.5t9 16q8 0 8 -12q0 -30 -27 -49t-66 -19z" />
<glyph unicode="ffi" horiz-adv-x="889" d="M586 492q-81 9 -105 9v-432q0 -116 -36.5 -175t-90.5 -59q-38 0 -55 19.5t-17 35.5q0 17 9 17q11 0 20 -32.5t29 -32.5q25 0 31.5 33.5t6.5 115.5v510h-178v-432q0 -116 -36.5 -175t-90.5 -59q-38 0 -55 19.5t-17 35.5q0 17 9 17q11 0 20.5 -32.5t28.5 -32.5 q25 0 31.5 33.5t6.5 115.5v510h-70q-18 0 -18 4t17 4h71q3 315 252 315q72 0 120 -50q60 50 157 50q65 0 112.5 -44t47.5 -112q0 -27 -15.5 -46t-42.5 -19q-28 0 -46 17t-18 42q0 24 16.5 41t41.5 17q17 0 27 -5q-21 101 -122 101q-74 0 -110 -67t-36 -240q31 0 66 5t41 5 q13 0 19 -6.5t0 -13.5t-21 -7zM378 509q1 173 77 252q-33 55 -105 55q-49 0 -80 -25t-50.5 -94.5t-19.5 -187.5h178zM804 -8q-49 0 -89.5 36t-40.5 107v314q0 66 55 66q52 0 52 -65v-387q0 -62 39 -62q19 0 30 19.5t17 39t13 19.5q9 0 9 -12q0 -31 -25 -53t-60 -22z" />
<glyph unicode="ffl" horiz-adv-x="886" d="M586 491q-93 10 -105 10v-432q0 -116 -36.5 -175t-90.5 -59q-38 0 -55 19.5t-17 35.5q0 17 9 17q11 0 20 -32.5t29 -32.5q25 0 31.5 33.5t6.5 115.5v510h-178v-432q0 -116 -36.5 -175t-90.5 -59q-38 0 -55 19.5t-17 35.5q0 17 9 17q11 0 20.5 -32.5t28.5 -32.5 q25 0 31.5 33.5t6.5 115.5v510h-70q-8 0 -8.5 4t7.5 4h71v162q0 321 252 321q72 0 121 -51q61 51 160 51q65 0 114 -44t49 -112q0 -27 -15.5 -46t-42.5 -19q-28 0 -46 17t-18 42q0 24 16.5 41t41.5 17q17 0 27 -5q-21 101 -125 101q-75 0 -112.5 -68.5t-37.5 -243.5v-163 q29 0 64.5 4.5t42.5 4.5q23 0 24 -13q-2 -13 -26 -14zM378 671q0 177 77 256q-31 57 -105 57q-75 0 -112.5 -68.5t-37.5 -243.5v-163h178v162zM792 -10q-46 0 -79.5 34t-33.5 98q0 34 1 253t1 279q0 50 -39 50q-19 0 -31.5 -27.5t-14.5 -27.5q-7 0 -10 3t-2 7q9 28 29.5 42 t62.5 14q111 0 111 -154q0 -21 -0.5 -235.5t-0.5 -273.5q0 -21 12 -34t28 -13q21 0 30 16.5t12 32.5t9 16q8 0 8 -12q0 -30 -27 -49t-66 -19z" />
<glyph unicode="ft" horiz-adv-x="693" d="M69 -164q-26 0 -42 15t-19 27.5t-3 22.5q0 17 9 17t9 -18.5t6.5 -36.5t31.5 -18q23 0 29.5 33t6.5 113v423q0 46 3 87h-73q-18 0 -18 5t17 5q34 -1 75 -1q7 89 29 151.5t55.5 96t71.5 47.5t86 14q70 0 115 -48.5t45 -118.5v-140q38 0 65 3.5t40 3.5q16 0 19 -14 q3 -12 -15 -15q-4 -1 -9 -1q-4 0 -13.5 2t-31.5 5t-55 4l1 -442q0 -23 13.5 -38.5t38.5 -15.5q18 0 30.5 8.5t18.5 19.5t9 30.5t3 31.5t-0.5 32t-0.5 24q0 40 33 40q14 0 21.5 -21.5t-0.5 -54.5q-16 -55 -52.5 -89.5t-93.5 -34.5q-56 0 -92 39.5t-36 129.5v343 q-10 0 -31.5 -0.5t-34.5 -0.5h-130v-22v-418q0 -225 -131 -225zM351 810q-72 0 -109.5 -70.5t-41.5 -229.5h132q77 0 118.5 43t41.5 113q0 60 -43 102t-98 42z" />
<glyph unicode="fft" horiz-adv-x="974" d="M69 -164q-26 0 -42 15t-19 27.5t-3 22.5q0 17 9 17t9 -18.5t6.5 -36.5t31.5 -18q23 0 29.5 33t6.5 113v510h-61q-18 0 -18 4t17 4h62q1 170 65.5 243t170.5 73q90 0 130 -66q59 66 164 66q75 0 116 -47.5t41 -123.5v-142q38 0 65 3.5t40 3.5q16 0 19 -14q3 -12 -15 -15 q-4 -1 -9 -1q-4 0 -13.5 2t-31.5 5t-55 4l1 -442q0 -23 13.5 -38.5t38.5 -15.5q18 0 30.5 8.5t18.5 19.5t9 30.5t3 31.5t-0.5 32t-0.5 24q0 40 33 40q14 0 21.5 -21.5t-0.5 -54.5q-16 -55 -52.5 -89.5t-93.5 -34.5q-56 0 -92 39.5t-36 129.5v343q-10 0 -31.5 -0.5 t-34.5 -0.5h-117v-440q0 -225 -131 -225q-26 0 -42 15t-19 27.5t-3 22.5q0 17 9 17t9 -18.5t6.5 -36.5t31.5 -18q23 0 29.5 33t6.5 113v510h-191v-440q0 -225 -131 -225zM628 818q-80 0 -107 -68t-27 -241h119q77 0 118.5 43.5t41.5 113.5q0 63 -38.5 107.5t-106.5 44.5z M391 509q0 163 65 243q-39 66 -122 66q-80 0 -107 -68t-27 -241h191z" />
<glyph unicode="tt" horiz-adv-x="745" d="M223 -10q-56 0 -92 39.5t-36 129.5v340h-65q-13 0 -15 5q-1 2 2 4q4 1 12 1h8q74 2 111.5 43.5t37.5 112.5q0 11 4 15.5t8.5 0t4.5 -15.5v-156h122q121 0 167.5 39.5t46.5 116.5q0 11 4.5 15.5t8.5 0t4 -15.5v-154q37 0 64 4t40 4q16 0 19 -14q3 -12 -15 -15q-4 -1 -9 -1 q-4 0 -15 1t-34 3t-50 3v-438q0 -23 13.5 -39t38.5 -16q18 0 30.5 8.5t18.5 20t9 31t3 31t-0.5 32t-0.5 24.5q0 40 33 40q14 0 21.5 -21.5t-0.5 -54.5q-16 -55 -52.5 -89.5t-93.5 -34.5q-56 0 -92 39.5t-36 129.5v339q-31 1 -105 1h-140v-441q0 -23 13.5 -39t38.5 -16 q18 0 30.5 8.5t18.5 20t9 31t3 31t-0.5 32t-0.5 24.5q0 40 33 40q14 0 21.5 -21.5t-0.5 -54.5q-16 -55 -52.5 -89.5t-93.5 -34.5z" />
<glyph unicode=" "  horiz-adv-x="310" />
<glyph unicode="&#x09;" horiz-adv-x="310" />
<glyph unicode="&#xa0;" horiz-adv-x="310" />
<glyph unicode="!" horiz-adv-x="304" d="M153 -6q-29 0 -49 20.5t-20 49.5t20 49.5t49 20.5t49.5 -20.5t20.5 -49.5t-20.5 -49.5t-49.5 -20.5zM152 198q-6 0 -20.5 91.5t-28 220.5t-13.5 214q0 106 67 106q63 0 63 -106q0 -85 -15 -214.5t-31 -220.5t-22 -91z" />
<glyph unicode="&#x22;" horiz-adv-x="342" d="M83 550l-20 274h73l-35 -274h-18zM234 550l-20 274h73l-35 -274h-18z" />
<glyph unicode="#" horiz-adv-x="874" d="M572 0v237h-265v-237h-11v237h-238v11h238l-1 265h-237v11h237v236h11v-236h265v236h11v-236h236v-11h-236l1 -265h235v-11h-235v-237h-11zM306 513l1 -265h265l-1 265h-265z" />
<glyph unicode="$" horiz-adv-x="759" d="M371 -17q-72 0 -132.5 19.5t-97.5 50t-57 64.5t-20 66q0 41 24 65t60 24q35 0 56 -23.5t21 -57.5q0 -27 -22 -49t-50 -22q-23 0 -37 6q24 -57 88.5 -95.5t159.5 -38.5q2 0 6 0.5t7 0.5v385q-16 7 -28 13q-39 18 -54 25.5t-48.5 25.5t-48.5 29.5t-38 31t-33 37t-18.5 41 t-8.5 49.5q0 66 44 114t104 69t129 24v71h11v-70h11q118 0 194.5 -58.5t76.5 -118.5q0 -32 -19.5 -54.5t-49.5 -22.5q-31 0 -53.5 20t-22.5 50q0 28 17.5 49.5t50.5 21.5q12 0 28 -4q-30 47 -89.5 77t-128.5 30q-3 0 -8 -0.5t-7 -0.5v-342l52 -24q55 -26 93 -48t77 -53 t59 -69t20 -82q0 -57 -28 -101t-73.5 -69.5t-96 -39t-103.5 -15.5v-90h-11v89h-6zM598 174q0 60 -55 105.5t-155 93.5v-380q86 7 148 54t62 127zM191 678q0 -33 14 -60.5t42.5 -50.5t57 -39.5t72.5 -37.5v337q-78 -5 -132 -41t-54 -108z" />
<glyph unicode="%" horiz-adv-x="937" d="M248 464q43 0 68.5 51.5t25.5 128.5t-25.5 128.5t-68.5 51.5t-68 -51t-25 -129q0 -77 25 -128.5t68 -51.5zM248 454q-84 0 -136 54.5t-52 135.5t52 136t136 55q85 0 137 -55t52 -136t-52.5 -135.5t-136.5 -54.5zM89 1l739 811h21l-739 -811h-21zM688 -5q43 0 68.5 51.5 t25.5 128.5t-25.5 128.5t-68.5 51.5t-68 -51t-25 -129q0 -77 25 -128.5t68 -51.5zM688 -15q-84 0 -136 54.5t-52 135.5t52 136t136 55q85 0 137 -55t52 -136t-52.5 -135.5t-136.5 -54.5z" />
<glyph unicode="&#x26;" horiz-adv-x="1221" d="M516 -198q-192 0 -306.5 88t-114.5 224q0 73 29 134.5t90 113t168 82.5t250 35q-181 1 -299.5 73t-118.5 171q0 114 92 171.5t243 57.5q115 0 187 -46t72 -116q0 -41 -38 -79t-85 -57.5t-82 -19.5q-45 0 -69.5 22.5t-24.5 58.5q0 31 23.5 54.5t54.5 23.5q32 0 55.5 -23 t23.5 -55q0 -38 -32 -62q127 12 127 137q0 69 -58 112.5t-153 43.5q-98 0 -167 -64.5t-69 -157.5q0 -112 87.5 -175t228.5 -63h55q12 0 11 -7t-14 -7h-46q-113 0 -211.5 -44.5t-159 -128t-60.5 -186.5q0 -137 86 -220.5t225 -83.5q132 0 217 77.5t85 174.5q0 30 -10 61.5 t-31 63.5t-61.5 52t-93.5 20q-65 0 -107.5 -34.5t-50.5 -92.5q5 25 29 43t51 18q38 0 59.5 -25t21.5 -55q0 -32 -23.5 -54.5t-56.5 -22.5q-35 0 -61.5 23.5t-26.5 70.5q0 84 76.5 146t203.5 62h181q231 0 231 139q0 54 -33.5 86t-84.5 34q38 -18 38 -60q0 -32 -20 -53 t-55 -21q-32 0 -53.5 21.5t-21.5 53.5t24 55.5t71 23.5q57 0 100.5 -41t43.5 -101q0 -103 -71.5 -162t-219.5 -59h-181q31 -5 63 -19t62.5 -36.5t50 -58t19.5 -77.5q0 -47 -20.5 -91.5t-61.5 -83t-114.5 -62t-168.5 -23.5z" />
<glyph unicode="'" horiz-adv-x="180" d="M84 551l-24 273h60l-24 -273h-12z" />
<glyph unicode="(" horiz-adv-x="463" d="M413 -268q-58 0 -117 42.5t-107 115.5t-78.5 182.5t-30.5 233.5q0 118 30.5 227t78.5 183.5t107.5 119t116.5 44.5v-8q-57 0 -101.5 -48.5t-70.5 -130.5t-39 -180t-13 -207q0 -158 24 -283.5t76 -204t124 -78.5v-8z" />
<glyph unicode=")" horiz-adv-x="463" d="M50 -268v8q72 0 124 78.5t76 204t24 283.5q0 109 -13 207t-39 180t-70.5 130.5t-101.5 48.5v8q57 0 116.5 -44.5t107.5 -119t78.5 -183.5t30.5 -227q0 -124 -30.5 -233.5t-78.5 -182.5t-107 -115.5t-117 -42.5z" />
<glyph unicode="*" horiz-adv-x="590" d="M131 458q-28 -13 -40.5 -9t-17.5 17q-15 32 21 50q28 16 94 37t93 35q-29 16 -93.5 33.5t-93.5 33.5q-44 29 -22 56q19 28 55 8q101 -92 156 -128q-1 32 -17 97t-17 100q1 45 36 47q35 0 35 -45q-1 -31 -16.5 -98.5t-16.5 -100.5q31 17 78 64.5t76 64.5q26 12 39 8.5 t19 -15.5q16 -32 -21 -50q-31 -18 -95 -38.5t-94 -37.5q31 -18 94.5 -34.5t92.5 -31.5q43 -27 23 -55q-19 -28 -56 -7q-29 17 -78 62.5t-78 62.5q0 -35 16.5 -98.5t17.5 -97.5q-1 -47 -35 -47q-35 5 -34 46q0 34 15 98.5t16 98.5q-29 -17 -76 -63.5t-76 -62.5z" />
<glyph unicode="+" horiz-adv-x="545" d="M80 245v13h186v186h13v-186h186v-13h-186v-186h-13v186h-186z" />
<glyph unicode="," horiz-adv-x="261" d="M100 -92l1 2q40 14 59.5 45.5t16.5 63.5q-17 -26 -52 -26q-26 0 -45 17t-19 42q0 32 20.5 49.5t49.5 17.5q39 0 61 -27t22 -67q0 -48 -40.5 -82.5t-73.5 -34.5z" />
<glyph unicode="-" horiz-adv-x="654" d="M82 115q-15 0 -15 14q0 36 10.5 70t33 65.5t65 51t99.5 19.5h188q108 0 110 32q1 9 -8 28t-9 26q0 14 13 14q16 0 16 -18q0 -44 -9 -77t-32 -63t-70 -46t-116 -16h-191q-79 0 -84 -28q-2 -10 5.5 -30t7.5 -25q0 -17 -14 -17z" />
<glyph unicode="." horiz-adv-x="261" d="M130 -7q-29 0 -49 20.5t-20 49.5t20 49.5t49 20.5t49.5 -20.5t20.5 -49.5t-20.5 -49.5t-49.5 -20.5z" />
<glyph unicode="/" horiz-adv-x="466" d="M10 -267l403 1146h23l-405 -1146h-21z" />
<glyph unicode="0" d="M480 -7q139 0 221.5 119t82.5 298t-82.5 298t-221.5 119t-221.5 -119t-82.5 -298t82.5 -298t221.5 -119zM480 -15q-187 0 -304 122.5t-117 302.5t117 302.5t304 122.5t304 -122.5t117 -302.5t-117 -302.5t-304 -122.5z" />
<glyph unicode="1" horiz-adv-x="368" d="M59 0v8q48 0 64.5 19t16.5 61v497q0 113 -22.5 146t-92.5 7l-4 8l216 86l11 -11v-733q0 -42 16.5 -61t64.5 -19v-8h-270z" />
<glyph unicode="2" horiz-adv-x="791" d="M29 0v8q251 184 320 240q185 152 233 269q20 50 20 100q0 101 -60 155.5t-162 54.5q-95 0 -167 -39t-97 -107q11 4 27 4q35 0 60.5 -24.5t25.5 -56.5q0 -36 -24.5 -60.5t-60.5 -24.5t-63 24t-27 63q0 89 87 159t239 70q149 0 245 -60t96 -164q0 -51 -24 -99.5 t-60.5 -86.5t-97 -83t-114 -78t-133 -83.5t-134.5 -88.5h219q185 0 244 32t59 138h12v-262h-663z" />
<glyph unicode="3" horiz-adv-x="759" d="M346 -15q-143 0 -217 63t-74 149q0 36 22.5 61t58.5 25q32 0 55 -22.5t23 -58.5q0 -30 -23.5 -52.5t-54.5 -22.5q-18 0 -35 6q23 -67 90 -103t154 -36q108 0 169.5 63.5t61.5 163.5q0 104 -71.5 161.5t-192.5 57.5h-53v9h53q124 0 191.5 47.5t67.5 136.5t-53.5 141.5 t-146.5 52.5q-89 0 -151 -31t-87 -88q11 4 24 4q36 0 56 -21.5t20 -53.5q0 -33 -22.5 -55t-56.5 -22q-27 0 -51.5 22.5t-24.5 58.5q0 76 75.5 135t217.5 59q141 0 228.5 -55.5t87.5 -143.5q0 -159 -288 -189q-1 0 -3 -3q2 -2 3 -2q58 -4 110.5 -20t96.5 -42.5t70 -68.5 t26 -94q0 -76 -54.5 -130.5t-132.5 -78t-169 -23.5z" />
<glyph unicode="4" horiz-adv-x="729" d="M400 0v7q47 0 64 21.5t17 64.5v140h-470l-3 10l573 590l8 1v-592h106v-9h-106v-140q0 -43 17 -64.5t64 -21.5v-7h-270zM20 242h461v475z" />
<glyph unicode="5" horiz-adv-x="767" d="M369 -15q-116 0 -202 51t-86 134q0 32 23.5 55.5t54.5 23.5q32 0 54 -23t22 -56q0 -28 -20.5 -49t-54.5 -25h-11q24 -50 83.5 -76.5t137.5 -26.5q111 0 170 72.5t59 183.5q0 98 -57 165t-156 67q-142 0 -272 -128l-10 5v462h565v-254h-11q0 68 -22.5 101.5t-84.5 48.5 t-186 15h-249v-360q126 121 269 121q152 0 238 -62.5t86 -177.5t-98.5 -191t-241.5 -76z" />
<glyph unicode="6" horiz-adv-x="855" d="M448 -15q-178 0 -275 120t-97 305q0 117 47 213t140.5 154t217.5 58q127 0 197.5 -57.5t70.5 -136.5q0 -31 -22.5 -53t-54.5 -22q-31 0 -53.5 22.5t-22.5 54.5q0 31 22.5 54t53.5 23h7q-36 106 -199 108q-139 0 -212.5 -115.5t-73.5 -302.5q0 -53 4 -93 q33 73 104.5 115.5t148.5 42.5q127 0 218 -61.5t91 -172.5q0 -114 -92.5 -185t-219.5 -71zM448 -7q85 0 137.5 70t52.5 178q0 96 -51.5 161t-133.5 65q-101 0 -171 -65.5t-70 -164.5q0 -92 68.5 -168t167.5 -76z" />
<glyph unicode="7" horiz-adv-x="740" d="M142 0v8q62 0 119.5 57.5t135.5 202.5l255 463h-372q-126 0 -171 -34t-45 -126h-9v249h647l5 -9l-295 -536q-65 -118 -65 -192q0 -75 86 -75v-8h-291z" />
<glyph unicode="8" horiz-adv-x="794" d="M405 -15q-105 0 -186 22t-130 69.5t-47 115.5q2 41 23.5 75.5t61.5 61t81 45.5t98 39q-55 23 -93 43t-75 46.5t-55.5 59t-18.5 69.5q6 97 99.5 150.5t248.5 53.5q81 0 152.5 -19t121.5 -61t50 -99q0 -29 -16 -54.5t-38.5 -43t-59.5 -35.5t-65.5 -28.5t-69.5 -24.5 q-10 -3 -15 -5q64 -25 105.5 -45t86 -50t66.5 -66.5t22 -80.5q4 -72 -47 -128t-130.5 -83t-169.5 -27zM155 192q-1 -90 64.5 -144t186.5 -54q29 0 67 8t81.5 25.5t74.5 53.5t35 83q0 25 -9 47t-32.5 43t-41.5 35t-59.5 33.5t-61 28t-72.5 30t-69 27.5q-81 -28 -122.5 -87.5 t-41.5 -128.5zM637 671q-1 71 -61.5 113t-163.5 42q-118 0 -185 -37.5t-67 -108.5q0 -34 19 -62t67 -55t78 -40t103 -41q22 -9 33 -13q86 35 131.5 81t45.5 121z" />
<glyph unicode="9" horiz-adv-x="825" d="M346 -14q-112 0 -195.5 56.5t-83.5 130.5q0 32 23 54t56 22q30 0 53 -23t23 -54q0 -32 -23 -55.5t-53 -23.5h-13q29 -48 89.5 -73.5t125.5 -26.5q143 0 214 115.5t71 301.5q0 45 -5 97q-32 -75 -103 -118.5t-149 -43.5q-127 0 -218 61.5t-91 172.5q0 114 92.5 185 t221.5 71q185 0 277.5 -115.5t92.5 -309.5q0 -89 -26 -165.5t-75.5 -134.5t-127.5 -91t-176 -33zM374 353q98 0 170 66t72 164q0 104 -64 174t-171 70q-87 0 -139.5 -70t-52.5 -178q0 -96 51.5 -161t133.5 -65z" />
<glyph unicode=":" horiz-adv-x="261" d="M130 4q-29 0 -49 20.5t-20 49.5t20 49.5t49 20.5t49.5 -20.5t20.5 -49.5t-20.5 -49.5t-49.5 -20.5zM130 354q-29 0 -49 20.5t-20 49.5t20 49.5t49 20.5t49.5 -20.5t20.5 -49.5t-20.5 -49.5t-49.5 -20.5z" />
<glyph unicode=";" horiz-adv-x="261" d="M130 354q-29 0 -49 20.5t-20 49.5t20 49.5t49 20.5t49.5 -20.5t20.5 -49.5t-20.5 -49.5t-49.5 -20.5zM100 -92l1 2q40 14 59.5 45.5t16.5 63.5q-17 -26 -52 -26q-26 0 -45 17t-19 42q0 32 20.5 49.5t49.5 17.5q39 0 61 -27t22 -67q0 -48 -40.5 -82.5t-73.5 -34.5z" />
<glyph unicode="&#x3c;" horiz-adv-x="482" d="M402 103l-322 143v11l322 153v-14l-304 -144l304 -135v-14z" />
<glyph unicode="=" horiz-adv-x="545" d="M80 140v13h385v-13h-385zM80 354v13h385v-13h-385z" />
<glyph unicode="&#x3e;" horiz-adv-x="482" d="M402 246l-322 -143v14l304 135l-304 144v14l322 -153v-11z" />
<glyph unicode="?" horiz-adv-x="645" d="M304 220q-38 0 -66.5 29t-26.5 67q4 52 36.5 103t76 91.5t86 79.5t71.5 83.5t29 87.5q0 78 -50 120.5t-148 42.5q-82 0 -140 -42.5t-82 -98.5q18 7 34 7q36 0 57 -23t21 -50q0 -34 -22.5 -56t-58.5 -22q-33 0 -56 23.5t-23 53.5q0 85 71 151.5t199 66.5q117 0 196 -60 t79 -160q0 -43 -30.5 -89t-73.5 -87t-86.5 -82t-74 -89t-30.5 -93q-1 -17 10.5 -30t30.5 -13t25.5 15.5t9 31t10.5 15.5q15 0 15 -12q0 -29 -27.5 -45t-61.5 -16zM314 -7q-29 0 -49 20.5t-20 49.5t20 49.5t49 20.5t49.5 -20.5t20.5 -49.5t-20.5 -49.5t-49.5 -20.5z" />
<glyph unicode="@" horiz-adv-x="883" d="M415 -45q-143 0 -232 81.5t-89 215.5q0 139 110 240t260 101q143 0 234.5 -79.5t91.5 -217.5q0 -89 -53.5 -156.5t-117.5 -67.5q-43 0 -74 22t-31 62q0 18 6 38q-48 -64 -117 -64q-89 0 -121 57t-6 128q21 56 71 91t122 35q45 0 72 -31.5t29 -76.5q23 63 35 79.5t28 16.5 q17 0 24.5 -13t0.5 -30l-71 -173q-20 -48 -20 -79q0 -21 14 -36t38 -15q60 0 109 64.5t49 148.5q0 135 -85.5 211t-226.5 76q-144 0 -250 -98.5t-106 -232.5q0 -127 86 -206.5t217 -79.5q86 0 132 65q8 10 19.5 12t17.5 -3q20 -15 -3 -38q-17 -17 -64 -32t-99 -15zM406 139 q86 0 133 102q11 23 16 42q18 63 -10 106.5t-72 43.5q-36 0 -71.5 -34.5t-55.5 -90.5q-26 -71 -10 -120t70 -49z" />
<glyph unicode="A" horiz-adv-x="842" d="M-17 0v8q50 0 98.5 55t107.5 198l229 559h65l243 -691q16 -46 48.5 -82t78.5 -39v-8h-321v8q117 4 85 95l-84 242h-300l-29 -72q-30 -74 -30 -138q0 -48 29.5 -83.5t98.5 -43.5v-8h-319zM395 745l-159 -391h294z" />
<glyph unicode="B" horiz-adv-x="800" d="M39 0v8q47 0 64 20t17 63v642q0 42 -17 60.5t-65 18.5v8h299q63 0 113 -4t102.5 -16t87.5 -31.5t57.5 -54t22.5 -81.5q0 -46 -25 -83t-68 -60t-90 -36.5t-99 -19.5q-2 0 -3 -3q2 -2 3 -2q158 -12 239.5 -58t81.5 -149t-96 -162.5t-294 -59.5h-330zM354 426h-126v-418h140 q122 0 197.5 55t75.5 164q0 103 -70.5 151t-216.5 48zM338 812h-110v-377h126q73 0 127 17t90.5 63t37.5 118q1 45 -12 77.5t-35 52t-58.5 30.5t-74.5 15t-91 4z" />
<glyph unicode="C" horiz-adv-x="840" d="M450 -15q-173 0 -282 122.5t-109 302.5q0 181 118 303t311 122q119 0 195.5 -61t76.5 -146q0 -89 -81 -89q-30 0 -52 22t-22 52t22 51.5t52 21.5q13 0 29 -6q-10 66 -68.5 106.5t-152.5 40.5q-145 0 -228 -117.5t-83 -299.5q0 -116 32.5 -210t95.5 -150t146 -57 q115 0 191 86t92 215h9v-293h-10q-2 58 -48 58q-12 0 -56 -22q-99 -52 -178 -52z" />
<glyph unicode="D" horiz-adv-x="855" d="M39 0v8q47 0 64 20t17 63v642q0 42 -17 60.5t-65 18.5v8h202q279 0 417.5 -105t138.5 -287q0 -90 -33 -165.5t-98.5 -135.5t-174.5 -93.5t-251 -33.5h-200zM240 812h-12v-804h11q115 0 201.5 32t138 89.5t77 132.5t25.5 167q0 383 -441 383z" />
<glyph unicode="E" horiz-adv-x="778" d="M521 234q0 106 -54.5 149t-164.5 43h-74v-418h223q67 0 117.5 28t76.5 71t38.5 83t13.5 77h9v-267h-667v8q47 0 64 20t17 63v642q0 42 -17 60.5t-65 18.5v8h668v-231h-9q-1 35 -13 71t-36.5 71.5t-71 58t-107.5 22.5h-241v-378h74q219 0 219 182h9v-382h-9z" />
<glyph unicode="F" horiz-adv-x="717" d="M484 234q0 106 -56.5 149t-167.5 43h-32v-338q0 -42 16.5 -61t64.5 -19v-8h-270v8q48 0 64.5 19t16.5 61v645q0 42 -17 60.5t-65 18.5v8h628v-251h-9q-1 34 -16 73.5t-43.5 79t-78 65t-110.5 25.5h-181v-378h34q222 0 222 182h9v-382h-9z" />
<glyph unicode="G" horiz-adv-x="865" d="M448 -15q-173 0 -280 122.5t-107 302.5q0 181 116.5 303t305.5 122q133 0 211 -66t78 -155q0 -45 -23 -70.5t-59 -25.5q-32 0 -56 24t-24 56t24 55.5t56 23.5q15 0 32 -8q-12 71 -75.5 114.5t-163.5 43.5q-141 0 -223 -118.5t-82 -298.5q0 -117 31.5 -211t93.5 -150 t145 -56q87 0 140.5 55.5t53.5 143.5q0 27 -0.5 41t-4.5 38.5t-12 37.5t-24.5 23.5t-40.5 10.5v10h256v-10q-38 0 -53 -28t-15 -98v-217h-10q3 61 -56 61q-33 0 -64.5 -19t-72.5 -38t-97 -19z" />
<glyph unicode="H" horiz-adv-x="912" d="M603 0v8q47 0 64 20t17 63v312h-456v-312q0 -43 17 -63t64 -20v-8h-270v8q47 0 64 20t17 63v642q0 42 -17 60.5t-65 18.5v8h272v-8q-48 0 -65 -18.5t-17 -60.5v-321h456v321q0 42 -17 60.5t-65 18.5v8h272v-8q-48 0 -65 -18.5t-17 -60.5v-642q0 -43 17 -63t64 -20v-8 h-270z" />
<glyph unicode="I" horiz-adv-x="358" d="M43 0v8q48 0 65 19t17 61v644q0 42 -17 61t-65 19v8h272v-8q-48 0 -65 -19t-17 -61v-644q0 -42 17 -61t65 -19v-8h-272z" />
<glyph unicode="J" horiz-adv-x="701" d="M280 -13q-102 0 -168.5 65.5t-66.5 140.5q0 50 26.5 82.5t70.5 32.5q37 0 66 -25.5t29 -62.5q0 -39 -28.5 -66.5t-69.5 -27.5q-30 0 -56 18q5 -65 54 -99.5t118 -34.5q107 0 163 70t56 209v443q0 42 -17 61t-65 19v8h272v-8q-48 0 -65 -19t-17 -61v-401q0 -162 -79 -253 t-223 -91z" />
<glyph unicode="K" horiz-adv-x="832" d="M505 0v8q55 0 60 26t-31 81l-163 268h-143v-295q0 -42 16.5 -61t64.5 -19v-8h-270v8q48 0 64.5 19t16.5 61v644q0 42 -17 61t-65 19v8h272v-8q-48 0 -65 -19t-17 -61v-340h112q63 0 127 19t119.5 53.5t92.5 91.5t43 126q-16 -8 -34 -8q-31 0 -53.5 22t-22.5 55 q0 32 21.5 55t52.5 23q43 0 69.5 -28.5t21.5 -86.5q-8 -89 -88.5 -181t-208.5 -128l187 -296q33 -52 63 -75.5t70 -24.5v-4v-3v-2h-295z" />
<glyph unicode="L" horiz-adv-x="740" d="M38 0l1 8q48 0 64.5 19t16.5 61v644q0 42 -17 61t-65 19v8h272v-8q-48 0 -65 -19t-17 -61v-724h181q119 0 183.5 82t64.5 203h10v-293h-629z" />
<glyph unicode="M" horiz-adv-x="1045" d="M39 0v9q39 0 67.5 50t28.5 155v486q0 112 -95 112q1 2 0 6v2h187l316 -586l281 586h183v-8q-48 0 -65 -19t-17 -61v-644q0 -42 16.5 -61t64.5 -19v-8h-270v8q48 0 64.5 19t16.5 61v696l-323 -677h-9l-341 632v-523q0 -207 86 -207v-9h-191z" />
<glyph unicode="N" horiz-adv-x="852" d="M24 0v7q36 1 59.5 33t30 63t6.5 57v540q0 112 -95 112q1 2 0 6v2h187l511 -652v492q0 51 -30 101.5t-75 50.5v8h201v-8q-28 -1 -47 -18.5t-26.5 -44.5t-10.5 -47.5t-3 -40.5v-661h-17l-586 747v-579q0 -53 26 -106t70 -53v-9h-201z" />
<glyph unicode="O" d="M480 -7q139 0 221.5 119t82.5 298t-82.5 298t-221.5 119t-221.5 -119t-82.5 -298t82.5 -298t221.5 -119zM480 -15q-187 0 -304 122.5t-117 302.5t117 302.5t304 122.5t304 -122.5t117 -302.5t-117 -302.5t-304 -122.5z" />
<glyph unicode="P" horiz-adv-x="754" d="M39 0v8q47 0 64 19.5t17 61.5v643q0 42 -17 61t-65 19v8h281q187 0 293.5 -57.5t106.5 -169.5q0 -113 -108 -177.5t-288 -64.5h-95v-262q0 -42 17 -61.5t64 -19.5v-8h-270zM313 812h-85v-452h90q136 0 214 63.5t78 169.5q0 105 -77 162t-220 57z" />
<glyph unicode="Q" d="M480 -15q-187 0 -304 122.5t-117 302.5t117 302.5t304 122.5t304 -122.5t117 -302.5q0 -96 -35 -178.5t-100 -141.5q13 -15 42.5 -49.5t45 -51.5t41.5 -44.5t44 -42t41.5 -30.5t45 -23t42.5 -7q28 0 38 16.5t10.5 33t6.5 16.5q11 0 11 -14q0 -32 -43.5 -58.5t-95.5 -26.5 q-21 0 -41.5 4t-42.5 17t-37.5 21t-39.5 31.5t-34.5 32.5t-38 40.5t-33.5 39t-36 42.5q-95 -52 -212 -52zM471 281q115 0 249 -141q64 110 64 270q0 179 -82.5 298t-221.5 119t-221.5 -119t-82.5 -298q0 -104 29.5 -191.5t83.5 -143.5q-26 72 28 139t154 67zM480 -7 q107 0 185 76q-69 80 -125 123.5t-115 43.5q-77 0 -116.5 -60.5t3.5 -122.5q73 -60 168 -60z" />
<glyph unicode="R" horiz-adv-x="815" d="M39 0v8q48 0 64.5 19t16.5 61v645q0 42 -17 60.5t-65 18.5v8h301q187 0 292 -56t105 -168q0 -89 -80.5 -143t-226.5 -70q-1 0 -3 -3q2 -2 3 -2q130 -1 194.5 -50t64.5 -153v-79q0 -53 11 -75t35 -22q26 0 33 23.5t7 75.5q0 24 15 24q7 0 11.5 -7.5t4.5 -15.5 q0 -47 -26.5 -80.5t-75.5 -33.5q-53 0 -88 34.5t-35 101.5v85q0 47 -8.5 77t-23 48.5t-47 27.5t-69 12t-99.5 3h-105v-286q0 -42 16.5 -61t64.5 -19v-8h-270zM330 812h-102v-429h109q141 0 214 54.5t73 157.5q0 113 -73.5 165t-220.5 52z" />
<glyph unicode="S" horiz-adv-x="757" d="M372 -15q-144 0 -223 62t-79 141q0 40 23.5 64t59.5 24q35 0 56 -23.5t21 -56.5q0 -27 -21.5 -49t-50.5 -22q-28 0 -45 10q18 -63 87.5 -102t170.5 -39q97 0 155 45.5t58 134.5q0 33 -17 62t-52.5 54t-68 42.5t-83.5 42.5q-11 5 -17 8q-55 27 -89.5 47.5t-73 50.5 t-57.5 66t-19 78q0 92 84.5 151t204.5 59q129 0 202.5 -47t73.5 -123q0 -30 -18.5 -51t-46.5 -21q-31 0 -52 18.5t-21 47.5q0 26 16.5 46.5t48.5 20.5q14 0 29 -5q-19 48 -78.5 76.5t-153.5 28.5q-48 0 -90 -12t-75 -47t-33 -88q0 -32 15 -61t33 -48.5t57 -44t61.5 -36.5 t72.5 -36q45 -22 71.5 -36.5t62.5 -39t55.5 -47t34 -54t14.5 -67.5q0 -67 -46.5 -119.5t-114.5 -78.5t-142 -26z" />
<glyph unicode="T" horiz-adv-x="787" d="M65 569v251h657v-251h-10q-1 36 -13 74.5t-37 78t-71.5 65t-107.5 25.5h-33v-694q0 -62 16 -86t64 -24v-8h-270v8q49 0 65.5 24t16.5 86v549q1 138 0 145h-38q-61 0 -107.5 -25.5t-71.5 -65t-37 -78t-13 -74.5h-10z" />
<glyph unicode="U" horiz-adv-x="834" d="M429 -15q-94 0 -156.5 26.5t-95 79.5t-45 115.5t-12.5 150.5v366q0 47 -17 68t-65 21v8h272v-8q-48 0 -65 -21t-17 -68v-402q0 -159 49.5 -239.5t179.5 -80.5q111 0 180 82.5t68 245.5v323q0 54 -25.5 107t-69.5 53v8h191l-1 -7q-28 -1 -46.5 -18.5t-26.5 -45t-10.5 -48 t-2.5 -40.5v-343q0 -69 -15 -126.5t-47 -105t-89 -74.5t-134 -27z" />
<glyph unicode="V" horiz-adv-x="903" d="M422 0l-274 707q-21 55 -53 79.5t-89 25.5v8h351q-1 -2 -1 -8q-128 -4 -86 -115l231 -600l177 479q24 65 24 122t-38 85.5t-95 28.5v4v2.5v1.5h315v-8q-60 -1 -105.5 -58.5t-85.5 -165.5l-218 -588h-53z" />
<glyph unicode="W" horiz-adv-x="1371" d="M920 0l-238 626l-255 -626h-60l-238 707q-18 54 -51 79t-91 26v8h351q-1 -2 -1 -8q-68 -2 -87 -34.5t1 -80.5l202 -605l224 547l-25 68q-21 56 -48.5 80.5t-74.5 24.5v8h351q-1 -2 -1 -8q-81 -3 -100 -37t15 -131l205 -547l183 479q24 65 24 122t-38 85.5t-95 28.5v4v2.5 v1.5h315v-8q-59 -1 -104.5 -58.5t-86.5 -165.5l-224 -588h-53z" />
<glyph unicode="X" horiz-adv-x="849" d="M24 0v8q29 2 64 21.5t66 60.5l228 298l-208 334q-63 91 -138 91v5q0 2 1 2h308v-7q-50 -2 -60.5 -31t19.5 -69l159 -256l187 251q-1 55 -36 80t-77 25v7h274v-7q-74 -5 -131 -82l-212 -283l222 -357q52 -74 129 -82v-9h-307l2 8q48 2 60 29t-18 71l-168 270l-201 -264 q1 -56 34.5 -80.5t75.5 -24.5l1 -9h-274z" />
<glyph unicode="Y" horiz-adv-x="824" d="M264 0v7q48 0 65 19.5t17 61.5v301l-188 339q-22 39 -50.5 60.5t-82.5 24.5q1 2 0 5v2h301l-2 -9q-58 -3 -66 -26t20 -66l170 -307l195 312q-8 32 -32 58.5t-68 29.5v8h252v-7q-33 -2 -72 -24.5t-66 -64.5l-203 -322v-314q0 -42 16.5 -61.5t63.5 -19.5v-7h-270z" />
<glyph unicode="Z" horiz-adv-x="731" d="M40 0v11l500 801h-238q-61 0 -107.5 -25.5t-71.5 -65t-37 -78t-13 -74.5h-9v251h599v-7l-501 -805h262q61 0 107.5 25.5t71 65.5t37 78.5t13.5 74.5h9v-252h-622z" />
<glyph unicode="[" horiz-adv-x="451" d="M100 -265v1146h301v-10h-191v-1127h191v-9h-301z" />
<glyph unicode="\" horiz-adv-x="466" d="M53 879l403 -1146h-21l-405 1146h23z" />
<glyph unicode="]" horiz-adv-x="451" d="M50 -265v9h191v1127h-191v10h301v-1146h-301z" />
<glyph unicode="^" horiz-adv-x="394" d="M66 664q-2 -1 -4 0t-1 3l134 166q1 1 2 1t2 -1l134 -166q1 -2 -1 -3t-4 0l-131 86z" />
<glyph unicode="_" horiz-adv-x="626" d="M73 0v12h473v-12h-473z" />
<glyph unicode="`" horiz-adv-x="320" d="M234 604l-138 113q-9 6 -13.5 17t4.5 25q6 7 19 4.5t23 -15.5l111 -142z" />
<glyph unicode="a" horiz-adv-x="676" d="M275 -11q-85 0 -152 50.5t-67 133.5q0 84 67 138t152 54q75 0 126 -32.5t71 -86.5q-1 47 -1 139q0 69 -41 99t-98 30q-45 0 -96 -23.5t-88 -47t-50 -23.5q-10 0 -17 6q-8 8 -8 18q0 32 97 55t162 23q249 0 249 -221v-233q0 -40 9.5 -54t30.5 -14q20 0 31.5 18t16.5 36 t9 18q15 0 7 -23q-21 -60 -92 -60q-51 0 -84 38.5t-37 94.5q-43 -133 -197 -133zM320 7q48 0 100.5 46t52.5 128q0 74 -48.5 120.5t-107.5 46.5q-54 0 -98 -43.5t-44 -129.5q0 -88 41 -128t104 -40z" />
<glyph unicode="b" horiz-adv-x="712" d="M400 -11q-152 0 -199 146v-62q0 -40 -16 -60t-37 -20q-22 0 -39.5 19t-17.5 61q0 9 2.5 198t4 379.5t0.5 230.5q-2 49 -39 49q-19 0 -32 -13t-17.5 -28.5t-10 -28.5t-11.5 -13q-12 0 -12 11q0 26 38 58.5t79 32.5q56 0 84.5 -31t28.5 -86q0 -217 -5 -473q25 73 81 115 t134 42q92 0 166.5 -70t74.5 -193q0 -115 -77 -189.5t-180 -74.5zM369 3q73 0 124.5 61t51.5 188q0 125 -47.5 186.5t-106.5 61.5q-82 0 -140.5 -71t-57.5 -178q1 -121 56.5 -184.5t119.5 -63.5z" />
<glyph unicode="c" horiz-adv-x="621" d="M345 -12q-141 0 -215.5 75t-74.5 191q0 114 78.5 190t210.5 76q101 0 167 -53.5t66 -116.5q0 -29 -20.5 -49.5t-49.5 -20.5t-49 20.5t-20 49.5q0 28 20 48.5t49 20.5q7 0 10 -1q-20 44 -67 68.5t-94 24.5q-66 0 -109.5 -38t-60.5 -93.5t-17 -125.5q0 -115 44.5 -185.5 t131.5 -70.5q119 0 158 133q6 21 22.5 26t28 -7t4.5 -32q-22 -64 -87 -97t-126 -33z" />
<glyph unicode="d" horiz-adv-x="715" d="M305 -6q-99 0 -174.5 68.5t-75.5 186.5q0 121 76.5 196.5t179.5 75.5q153 0 199 -154q0 11 0.5 144.5t0.5 229v140.5q-2 49 -39 49q-19 0 -32 -13t-17.5 -28.5t-10 -28.5t-11.5 -13q-12 0 -12 11q0 26 35 57.5t76 31.5q56 0 89.5 -39t33.5 -98l-3 -753q0 -51 31 -51 q16 0 28 15.5t19 31t11 15.5q9 0 9 -10q0 -19 -27.5 -41.5t-70.5 -22.5q-52 0 -81 39.5t-29 100.5v16q-26 -72 -80 -114t-125 -42zM329 9q74 0 129 70.5t55 176.5v2q-1 122 -53.5 185t-115.5 63q-73 0 -126 -61t-53 -188t48.5 -187.5t115.5 -60.5z" />
<glyph unicode="e" horiz-adv-x="641" d="M351 -12q-139 0 -217.5 75.5t-78.5 190.5q0 112 82 189.5t210 77.5q106 0 178.5 -63t72.5 -141q0 -13 -17 -13h-410q-2 -34 -2 -50q0 -116 43 -186.5t139 -70.5q52 0 104.5 24.5t74.5 67.5h-9q-29 0 -49 20.5t-20 48.5q0 29 20 49.5t49 20.5t49.5 -20.5t20.5 -49.5 q0 -61 -71.5 -115.5t-168.5 -54.5zM347 513q-75 0 -119.5 -55t-55.5 -145h312q-1 90 -35.5 145t-101.5 55z" />
<glyph unicode="f" horiz-adv-x="297" d="M299 491q-77 9 -99 9v-431q0 -116 -36.5 -175t-90.5 -59q-38 0 -55 19.5t-17 35.5q0 17 9 17q11 0 20.5 -32.5t28.5 -32.5q25 0 31.5 33.5t6.5 115.5v510h-70q-18 0 -18 4t17 4h71q3 315 252 315q65 0 114 -44t49 -112q0 -27 -15.5 -46t-42.5 -19q-28 0 -46 17t-18 42 q0 24 16.5 41t41.5 17q17 0 27 -5q-21 101 -125 101q-49 0 -80 -25t-50.5 -94.5t-19.5 -187.5q27 1 60 5t41 4q23 0 24 -13q-2 -13 -26 -14z" />
<glyph unicode="g" horiz-adv-x="683" d="M341 -12q-31 0 -69 7q-70 0 -95 -15.5t-25 -43.5q0 -51 101 -51h159q67 0 107.5 -30t40.5 -79q0 -35 -21.5 -63t-59.5 -28q-21 0 -21 17q0 18 21 18q74 0 74 41q0 16 -15.5 26.5t-44.5 10.5h-237q-77 0 -108.5 27.5t-31.5 59.5q0 107 127 118q-85 27 -136.5 95.5 t-51.5 155.5q0 112 81 189.5t205 77.5q4 0 12 -0.5t12 -0.5q45 1 68.5 18t23.5 39q0 16 -11.5 26.5t-24.5 15t-24.5 15t-11.5 26.5q0 22 14.5 37.5t35.5 15.5q30 0 53.5 -22t23.5 -58q0 -41 -32.5 -74t-85.5 -43q104 -16 169 -89.5t65 -172.5q0 -112 -81.5 -189t-205.5 -77z M341 -3q83 0 128 72.5t45 184.5t-45 185t-128 73t-127.5 -73t-44.5 -185t44.5 -184.5t127.5 -72.5z" />
<glyph unicode="h" horiz-adv-x="707" d="M633 -10q-51 0 -92.5 35.5t-41.5 110.5l3 160v-1q0 113 -22 157.5t-84 44.5q-33 0 -65 -16t-62 -49t-48.5 -94t-18.5 -141v-140q1 -59 35 -59q19 0 30 16.5t16.5 33t10.5 16.5q9 0 9 -11q0 -26 -24.5 -44.5t-55.5 -18.5q-51 0 -91 37t-40 97v765q0 51 -31 51 q-16 0 -28 -15.5t-19 -31t-11 -15.5q-9 0 -9 10q0 19 27.5 41.5t70.5 22.5q49 0 80.5 -40t31.5 -100v-506q11 61 36 105t56 65.5t60 30.5t57 9q92 0 145.5 -52t53.5 -160v-251q0 -27 11 -41t27 -14q17 0 27 16.5t15 33t11 16.5q9 0 9 -11q0 -26 -22 -44.5t-57 -18.5z" />
<glyph unicode="i" horiz-adv-x="305" d="M232 -8q-50 0 -92.5 36.5t-42.5 106.5q-1 33 -1 90t0.5 123t0.5 86q0 72 -35 72q-15 0 -25 -16t-16.5 -32t-13.5 -16q-9 0 -9 10q0 18 26 41t60 23q60 0 92.5 -35t32.5 -98v-320q0 -62 39 -62q19 0 30 19.5t17 39t13 19.5q9 0 9 -12q0 -31 -25 -53t-60 -22zM137 619 q-29 0 -49 20.5t-20 49.5t20 49.5t49 20.5t49.5 -20.5t20.5 -49.5t-20.5 -49.5t-49.5 -20.5z" />
<glyph unicode="j" horiz-adv-x="300" d="M-94 -321q-92 0 -150.5 51.5t-58.5 110.5q0 32 20 55.5t51 22.5q30 -1 48.5 -19.5t18.5 -48.5q0 -31 -19.5 -50t-51.5 -19q-10 0 -17 3q14 -41 55.5 -68.5t107.5 -27.5q70 0 114.5 45.5t60 106.5t15.5 136v466q0 70 53 70q26 0 41.5 -13.5t15.5 -54.5v-384 q0 -188 -86.5 -285t-217.5 -97zM156 619q-29 0 -49 20.5t-20 49.5t20 49.5t49 20.5t49.5 -20.5t20.5 -49.5t-20.5 -49.5t-49.5 -20.5z" />
<glyph unicode="k" horiz-adv-x="650" d="M201 -10q-45 0 -76 34.5t-31 104.5v763q0 25 -8.5 35.5t-28.5 10.5q-17 0 -26.5 -17t-15 -33.5t-11.5 -16.5q-7 0 -7 8q0 26 25.5 49t67.5 23q47 0 76.5 -28t29.5 -81q0 -13 -0.5 -203.5t-0.5 -311.5q24 83 86.5 138t153.5 55q63 0 106 -26t43 -77q0 -141 -300 -152 q61 -4 108 -32.5t74 -66t47 -74.5t38.5 -62.5t36.5 -25.5q19 0 27.5 16.5t12 33t9.5 16.5q8 0 8 -12q0 -30 -27.5 -49t-66.5 -19q-41 0 -74.5 19.5t-54.5 49t-45 64t-46 64t-57.5 50.5t-78.5 22v-210q0 -21 12 -34t28 -13q21 0 30 17t12 34t9 17q8 0 8 -12q0 -30 -27 -49 t-66 -19zM375 483q-57 0 -113 -60t-67 -149v-6q275 9 275 129q0 86 -95 86z" />
<glyph unicode="l" horiz-adv-x="301" d="M207 -10q-46 0 -79.5 34t-33.5 98q0 34 1 371t1 397q0 50 -39 50q-19 0 -31.5 -27.5t-14.5 -27.5q-7 0 -10 3t-2 7q9 28 29.5 42t62.5 14q111 0 111 -154q0 -21 -0.5 -353.5t-0.5 -391.5q0 -21 12 -34t28 -13q21 0 30 16.5t12 32.5t9 16q8 0 8 -12q0 -30 -27 -49t-66 -19 z" />
<glyph unicode="m" horiz-adv-x="1099" d="M226 -10q-51 0 -91.5 37t-40.5 97l3 329q0 51 -31 51q-16 0 -28 -15.5t-19 -31t-11 -15.5q-9 0 -9 10q0 19 27.5 41.5t70.5 22.5q50 0 79.5 -35.5t29.5 -94.5v-86q11 62 33 106.5t50.5 67t57 32.5t59.5 10q88 0 141.5 -47.5t59.5 -145.5q24 103 79 148t119 45 q92 0 145.5 -52t53.5 -160v-251q0 -27 11 -41t27 -14q17 0 27 16.5t15 33t11 16.5q9 0 9 -11q0 -26 -22 -44.5t-57 -18.5q-51 0 -92.5 35.5t-41.5 110.5l3 159v-1q0 115 -21.5 161t-83.5 46q-72 0 -128 -75.5t-56 -229.5v-143q0 -27 11 -41t27 -14q17 0 27 16.5t15 33 t11 16.5q9 0 9 -11q0 -26 -22 -44.5t-57 -18.5q-51 0 -92.5 35.5t-41.5 110.5l3 162q-1 112 -23 157.5t-83 45.5q-71 0 -127 -75.5t-56 -229.5v-150q1 -23 10.5 -35.5t23.5 -12.5q19 0 30 16.5t16.5 33t10.5 16.5q9 0 9 -11q0 -26 -24.5 -44.5t-55.5 -18.5z" />
<glyph unicode="n" horiz-adv-x="711" d="M227 -10q-51 0 -91.5 37t-40.5 97v329q0 51 -31 51q-16 0 -27 -15.5t-17.5 -31t-10.5 -15.5q-9 0 -9 10q0 19 27.5 41.5t70.5 22.5q50 0 79.5 -35.5t29.5 -94.5v-67q12 58 37 99t56.5 61t60 28.5t56.5 8.5q92 0 145.5 -52t53.5 -160v-251q0 -27 11 -41t27 -14 q17 0 27 16.5t15 33t11 16.5q9 0 9 -11q0 -26 -22 -44.5t-57 -18.5q-51 0 -92.5 35.5t-41.5 110.5l3 160v-1q0 114 -23 159.5t-89 45.5q-33 0 -64.5 -16t-60 -49t-46 -94t-17.5 -141q0 -113 1 -154q1 -23 10.5 -35.5t23.5 -12.5q19 0 30 16.5t16.5 33t10.5 16.5q9 0 9 -11 q0 -26 -24.5 -44.5t-55.5 -18.5z" />
<glyph unicode="o" horiz-adv-x="683" d="M341 -3q83 0 128 72.5t45 184.5t-45 185t-128 73t-127.5 -73t-44.5 -185t44.5 -184.5t127.5 -72.5zM341 -12q-124 0 -205 77t-81 189t81 189.5t205 77.5t205.5 -77.5t81.5 -189.5t-81.5 -189t-205.5 -77z" />
<glyph unicode="p" horiz-adv-x="726" d="M234 -310q-54 0 -93.5 37t-39.5 97l3 629q0 51 -31 51q-16 0 -28 -15.5t-19 -31t-11 -15.5q-9 0 -9 10q0 19 27.5 41.5t70.5 22.5q52 0 81 -39.5t29 -100.5v-25q24 76 77.5 120.5t127.5 44.5q99 0 174.5 -68.5t75.5 -186.5q0 -121 -76.5 -196.5t-179.5 -75.5 q-157 0 -199 165v-408q1 -23 10.5 -35.5t23.5 -12.5q19 0 30 16.5t16.5 33t10.5 16.5q9 0 9 -11q0 -26 -24.5 -44.5t-55.5 -18.5zM381 3q73 0 126 61t53 188t-50 188t-117 61q-66 0 -117.5 -59.5t-61.5 -151.5q-4 -34 -1 -74l1 1v-3q9 -103 59 -157t108 -54z" />
<glyph unicode="q" horiz-adv-x="714" d="M621 -310q-56 0 -84.5 31t-28.5 86q0 150 4 342q-26 -72 -81 -113.5t-133 -41.5q-92 0 -166.5 70t-74.5 193q0 115 77 189.5t180 74.5q152 0 199 -147v63q0 40 16 60t37 20q22 0 39.5 -19t17.5 -61q0 -10 -2.5 -166t-4 -314.5t-0.5 -198.5q2 -49 39 -49q25 0 38 20.5 t19.5 41.5t13.5 21q12 0 12 -11q0 -26 -38 -58.5t-79 -32.5zM321 10q82 0 140.5 71t57.5 178q-1 121 -56.5 184.5t-119.5 63.5q-73 0 -124.5 -61t-51.5 -188q0 -125 47.5 -186.5t106.5 -61.5z" />
<glyph unicode="r" horiz-adv-x="481" d="M208 -10q-42 0 -77.5 35t-35.5 86v343q0 26 -8 38t-29 12q-15 0 -25.5 -14t-15.5 -28t-7 -14q-11 0 -11 9q0 22 22.5 39t64.5 17q49 0 82.5 -37t33.5 -110v-83q16 114 73 174t109 60q42 0 62 -20t20 -51t-19 -50.5t-46 -19.5q-30 0 -50.5 19t-20.5 47q0 26 16 45 q-60 -17 -102 -92t-42 -222v-111q0 -30 11.5 -45t28.5 -15q21 0 30 17t12 34t9 17q8 0 8 -12q0 -30 -26.5 -49t-66.5 -19z" />
<glyph unicode="s" horiz-adv-x="581" d="M285 -15q-97 0 -163.5 39t-66.5 92q0 27 20 47t48 20q27 0 47.5 -20t20.5 -47q0 -23 -15 -44t-48 -27q58 -51 157 -51q84 0 130.5 26t46.5 67q0 34 -38.5 60t-94 44.5t-111 40t-94 58t-38.5 85.5q0 65 60.5 106t165.5 41q84 0 145.5 -35.5t61.5 -79.5q0 -31 -18 -48.5 t-44 -17.5t-45 18.5t-19 43.5q0 56 62 61q-50 50 -144 50q-69 0 -107.5 -24t-38.5 -63q0 -36 38 -64t92.5 -47t109.5 -40t93 -55t38 -80q0 -67 -69.5 -111.5t-181.5 -44.5z" />
<glyph unicode="t" horiz-adv-x="392" d="M223 -10q-56 0 -92 39.5t-36 129.5v342q-10 0 -31 -0.5t-34 -0.5q-16 0 -16 5q1 4 15 4h7q73 2 115.5 39t42.5 105q0 8 4.5 8t4.5 -8v-144q37 0 64 4t40 4q16 0 19 -14q3 -12 -15 -15q-4 -1 -9 -1q-3 0 -34.5 5.5t-57.5 6.5h-7v-441q0 -23 13.5 -39.5t38.5 -16.5 q18 0 30.5 9t18.5 20t9 30.5t3 31.5t-0.5 32.5t-0.5 24.5q0 40 33 40q14 0 21.5 -21.5t-0.5 -54.5q-16 -55 -52.5 -89.5t-93.5 -34.5z" />
<glyph unicode="u" horiz-adv-x="699" d="M294 -10q-92 0 -145.5 52t-53.5 160v251q0 27 -11 41.5t-27 14.5q-17 0 -27 -16.5t-15 -33.5t-11 -17q-9 0 -9 11q0 26 22 44.5t57 18.5q132 0 132 -164l-1 -141q0 -113 22 -157.5t84 -44.5q71 0 128 78t57 232q0 100 -1 141q-1 23 -10.5 35.5t-23.5 12.5 q-19 0 -30 -16.5t-16.5 -33t-10.5 -16.5q-9 0 -9 11q0 26 24.5 44.5t55.5 18.5q128 0 129 -171l-1 -292q0 -51 31 -51q16 0 28 15.5t19 31t11 15.5q9 0 9 -10q0 -19 -28.5 -41.5t-69.5 -22.5q-109 0 -109 140v66q-12 -58 -36 -100.5t-53 -64.5t-56.5 -31.5t-54.5 -9.5z" />
<glyph unicode="v" horiz-adv-x="572" d="M242 0l-193 411q-11 23 -19 36.5t-20 27.5t-28.5 20t-37.5 6l-1 8h254v-7q-31 -2 -42 -16t-7.5 -33.5t18.5 -51.5l142 -304l144 315q-17 42 -40.5 63t-60.5 26q1 2 1 4v4h209v-7q-27 0 -58 -35t-49 -75l-179 -392h-33z" />
<glyph unicode="w" horiz-adv-x="900" d="M220 0l-167 411q-18 45 -41 68t-64 22l-1 8h251v-7q-23 -2 -34.5 -11t-11.5 -25t3.5 -30.5t11.5 -34.5l124 -302l126 291l-8 21q-19 45 -41.5 68t-63.5 22l-1 8h253v-7q-25 -2 -38 -10t-13 -23.5t4 -29.5t14 -38l123 -298l120 310q-28 78 -101 88q1 2 1 4v4h209v-7 q-28 0 -60 -35.5t-47 -74.5l-151 -392h-37l-158 378l-163 -378h-39z" />
<glyph unicode="x" horiz-adv-x="617" d="M22 0v9q76 2 136 78l122 151l-121 173q-22 31 -35.5 46.5t-40.5 29.5t-60 14l-1 8h277v-7q-84 -7 -26 -88l82 -116l118 142q-32 50 -88 59q1 2 1 5v5h223v-9q-79 -2 -136 -74l-111 -137l134 -188q19 -27 29.5 -39.5t40 -31.5t62.5 -22q-1 -3 -1 -4.5t1 -2.5v-1h-270v8 q30 1 43 12t10.5 23.5t-12.5 27.5l-112 158l-129 -157q35 -55 88 -62q-1 -2 -1 -5v-5h-223z" />
<glyph unicode="y" horiz-adv-x="588" d="M-21 -347q-61 0 -98.5 35.5t-37.5 85.5q0 40 21.5 66t55.5 26q31 0 51.5 -20.5t20.5 -50.5q0 -32 -20.5 -53t-51.5 -21q-10 0 -21 4q9 -29 32.5 -44t52.5 -15q102 0 175 145l88 174l-196 426q-22 51 -43 71t-62 19l-1 8h251v-7q-46 -4 -51.5 -26.5t20.5 -74.5l142 -298 l157 309q-17 42 -40.5 63t-60.5 26q1 2 1 4v4h209v-7q-27 0 -58 -35t-49 -75l-299 -590q-36 -70 -80 -109.5t-108 -39.5z" />
<glyph unicode="z" horiz-adv-x="582" d="M42 0v7l374 494h-141q-106 0 -147.5 -54t-50.5 -168h-11v230h471v-7l-375 -494h159q192 0 198 223h11v-231h-488z" />
<glyph unicode="{" horiz-adv-x="440" d="M390 -263q-89 0 -148 19.5t-84 52.5t-33 76.5t-0.5 91t18.5 95t19.5 90t7.5 75.5t-23 51.5t-67 16.5v5q45 -2 67 16.5t23 51.5t-7.5 76t-19.5 90.5t-18.5 95.5t0.5 91t33 76.5t84 53t148 19.5v-8q-75 0 -116.5 -27t-50.5 -72t-5.5 -100t11 -113t7.5 -108.5t-24.5 -90 t-78.5 -53.5q54 -14 78.5 -53.5t24.5 -90t-7.5 -108.5t-11 -112.5t5.5 -99.5t50.5 -72t116.5 -27v-8z" />
<glyph unicode="|" horiz-adv-x="260" d="M120 -267v1146h20v-1146h-20z" />
<glyph unicode="}" horiz-adv-x="440" d="M50 -263v8q75 0 116 27t50.5 72t5.5 99.5t-11.5 112.5t-7.5 108.5t24.5 90t78.5 53.5q-54 14 -78.5 53.5t-24.5 90t7.5 108.5t11.5 113t-5.5 100t-50.5 72t-116 27v8q89 0 148 -19.5t84 -53t33 -76.5t0.5 -91t-18.5 -95.5t-19.5 -90.5t-7.5 -76t23 -51.5t67 -16.5v-5 q-45 2 -67 -16.5t-23 -51.5t7.5 -75.5t19.5 -90t18.5 -95t-0.5 -91t-33 -76.5t-84 -52.5t-148 -19.5z" />
<glyph unicode="~" horiz-adv-x="408" d="M69 709q-9 0 -9 11q0 109 74 109q33 0 97 -32.5t84 -32.5q19 0 22 16.5t-1.5 31t3.5 16.5q9 0 9 -11q0 -47 -21 -78t-55 -31q-35 0 -97.5 31.5t-87.5 31.5q-16 0 -17.5 -16t3 -30t-3.5 -16z" />
<glyph unicode="&#xa1;" horiz-adv-x="304" d="M153 825q29 0 49.5 -20.5t20.5 -49.5t-20.5 -49.5t-49.5 -20.5t-49 20.5t-20 49.5t20 49.5t49 20.5zM152 621q6 0 22 -91t31 -220.5t15 -214.5q0 -106 -63 -106q-67 0 -67 106q0 85 13.5 214t28 220.5t20.5 91.5z" />
<glyph unicode="&#xa2;" horiz-adv-x="601" d="M327 -170v158q-127 4 -199.5 79t-72.5 187q0 111 73 186.5t199 79.5v144h10v-144h2q99 0 154.5 -45t55.5 -100q0 -25 -17 -42t-42 -17t-42 17t-17 42q0 24 17 41t42 17q5 0 7 -1q-18 37 -62 58t-84 21q-10 0 -14 -1v-512q4 -1 14 -1q40 0 84 20.5t62 57.5h-7 q-25 0 -42 17t-17 41q0 25 17 42t42 17t42 -17t17 -42q0 -55 -55.5 -100t-154.5 -45h-2v-158h-10zM169 254q0 -100 40.5 -172.5t117.5 -82.5v510q-77 -11 -117.5 -83.5t-40.5 -171.5z" />
<glyph unicode="&#xa3;" horiz-adv-x="831" d="M622 -78q-53 0 -116.5 23t-113 51t-114.5 51t-121 23q-30 0 -43 -13.5t-12.5 -28t4.5 -36t4 -25.5q0 -8 -5 -12.5t-11 -4.5q-17 0 -19 13q0 48 36 108q8 14 31.5 34t47.5 43t49 55t43 83t23 113h-134q-18 0 -18 5t17 5h136q0 5 0.5 17t0.5 19v184q0 44 7.5 85.5t26.5 82 t47 70t72.5 48t99.5 18.5q77 0 117 -44t40 -115q0 -25 -20 -45t-44 -20q-25 0 -41.5 17t-16.5 42q0 24 16.5 41t41.5 17q26 0 42 -16q-3 57 -39 87t-94 30q-46 0 -79.5 -23t-50.5 -62t-24.5 -80t-7.5 -86v-192q0 -46 -4 -75h62q65 0 83.5 4t19.5 4q17 0 19 -13q2 -9 -12 -13 q-5 -1 -12 -1q-72 9 -103 9h-59q-8 -52 -27 -93t-47 -70t-53 -48t-60.5 -42.5t-53.5 -38.5q49 27 77 27q54 0 120.5 -22.5t120 -50t120.5 -50t122 -22.5q29 0 37.5 22.5t0.5 55.5q-10 38 12 38q19 0 19 -18q0 -27 -16.5 -63.5t-55 -69t-88.5 -32.5z" />
<glyph unicode="&#xa4;" horiz-adv-x="861" d="M601 299q-72 9 -103 9h-229q17 -142 80 -227t167 -86q66 0 125.5 38.5t87.5 93.5q8 15 19.5 19t18.5 -2q22 -13 1 -44q-33 -48 -99 -81.5t-153 -33.5q-145 0 -238 89t-119 234h-115v9h113q-7 42 -7 93q0 56 9 109h-79v9h81q27 140 117.5 223.5t242.5 83.5q87 0 148 -32.5 t90 -83.5q18 -33 -1 -44q-7 -6 -18.5 -2t-19.5 19q-68 135 -199 135q-112 0 -173 -80t-78 -219h296q47 0 73 4.5t30 4.5q17 0 19 -13q2 -9 -12 -13q-5 -1 -12 -1q-72 9 -103 9h-292q-5 -44 -5 -109q0 -43 5 -93h234q46 0 72 4.5t31 4.5q17 0 19 -13q2 -9 -12 -13 q-5 -1 -12 -1z" />
<glyph unicode="&#xa5;" horiz-adv-x="824" d="M219 388v10h122l-183 330q-22 39 -50.5 60.5t-82.5 24.5q1 2 0 5v2h301l-2 -9q-58 -3 -66 -26t20 -66l171 -308l196 313q-8 32 -32 59t-68 30v7h252v-7q-33 -2 -72 -24.5t-66 -64.5l-205 -325v-1h134v-10h-134v-101h134v-10h-134v-190q0 -42 16.5 -61t64.5 -19v-7h-270v7 q48 0 64.5 19t16.5 61v190h-127v10h127v101h-127z" />
<glyph unicode="&#xa6;" horiz-adv-x="259" d="M120 -267v487h19v-487h-19zM120 392v487h19v-487h-19z" />
<glyph unicode="&#xa7;" horiz-adv-x="836" d="M377 -222q-96 0 -166.5 43.5t-70.5 101.5q0 30 20.5 50.5t50.5 20.5t49.5 -19t19.5 -49q0 -27 -17 -44t-44 -19q61 -77 157 -77q73 0 127.5 39t54.5 93q0 44 -64 110.5t-128 111.5l-63 45q-42 34 -60.5 49.5t-47.5 44t-41 48.5t-22.5 49t-11.5 60q-4 79 47.5 134 t134.5 59q-104 86 -104 180q0 85 60 141.5t142 55.5q89 0 153.5 -40t64.5 -94q0 -27 -18.5 -46t-46.5 -19t-46 17.5t-18 45.5q0 24 15.5 40t40.5 18q-57 71 -144 71q-67 0 -112.5 -37.5t-45.5 -90.5q0 -28 26.5 -66t63.5 -72.5t74.5 -64.5t64.5 -48l26 -18q97 -78 122 -107 q55 -61 58 -136q3 -80 -49.5 -135.5t-136.5 -59.5q54 -42 82.5 -80.5t28.5 -84.5q0 -99 -67.5 -160.5t-158.5 -60.5zM369 259q8 -7 72 -55q74 -36 133 -12t59 97q0 24 -8 46.5t-18 38.5t-33 38t-39 34.5t-50.5 39.5t-53.5 42q-6 5 -79 61q-74 36 -130.5 11.5t-56.5 -96.5 q0 -24 8.5 -46.5t18 -38.5t34.5 -40.5t38.5 -35.5t51.5 -41.5t53 -42.5z" />
<glyph unicode="&#xa8;" horiz-adv-x="470" d="M137 603q-22 0 -39.5 17t-17.5 37t17 38t39 18t38 -17t16 -39q0 -20 -16.5 -37t-36.5 -17zM337 603q-22 0 -39.5 17t-17.5 37t17 38t39 18t38 -17t16 -39q0 -20 -16.5 -37t-36.5 -17z" />
<glyph unicode="&#xa9;" d="M480 -15q-187 0 -304 122.5t-117 302.5t117 302.5t304 122.5t304 -122.5t117 -302.5t-117 -302.5t-304 -122.5zM480 -4q182 0 296 119t114 295t-114 295t-296 119t-296 -119t-114 -295t114 -295t296 -119zM483 165q-99 0 -162 73t-63 178q0 104 69.5 175t177.5 71 q82 0 127 -45t45 -86q0 -28 -15 -44.5t-36 -16.5t-36.5 15t-15.5 35t15.5 35.5t36.5 15.5q8 0 18 -5q-8 40 -48.5 63t-90.5 23q-81 0 -130.5 -67t-49.5 -169q0 -103 43 -171.5t115 -69.5q69 0 111.5 49t51.5 125h12v-175h-12q-2 34 -28 34q-4 0 -48.5 -21.5t-86.5 -21.5z " />
<glyph unicode="&#xaa;" horiz-adv-x="418" d="M173 538q-46 0 -82 27t-36 72t36 74t82 29q80 0 104 -65q1 26 1 76q-1 66 -74 66q-33 0 -77 -23.5t-49 -23.5q-4 0 -9 3t-5 10q0 17 52 29.5t88 12.5q133 0 133 -119v-126q0 -21 5 -28t17 -7q15 0 21.5 19t7.5 19q5 0 6.5 -4t-0.5 -9q-11 -32 -50 -32q-27 0 -46 19.5 t-22 47.5q-23 -67 -103 -67zM197 550q26 0 52.5 23.5t26.5 67.5q0 40 -24 63.5t-56 23.5q-30 0 -53.5 -22t-23.5 -68q0 -88 78 -88z" />
<glyph unicode="&#xab;" horiz-adv-x="632" d="M552 120l-3 -5l-249 147v5l249 137l3 -5l-156 -135zM332 120l-3 -5l-249 147v5l249 137l3 -5l-156 -135z" />
<glyph unicode="&#xad;" horiz-adv-x="654" d="M82 115q-15 0 -15 14q0 36 10.5 70t33 65.5t65 51t99.5 19.5h188q108 0 110 32q1 9 -8 28t-9 26q0 14 13 14q16 0 16 -18q0 -44 -9 -77t-32 -63t-70 -46t-116 -16h-191q-79 0 -84 -28q-2 -10 5.5 -30t7.5 -25q0 -17 -14 -17z" />
<glyph unicode="&#xae;" d="M480 -15q-187 0 -304 122.5t-117 302.5t117 302.5t304 122.5t304 -122.5t117 -302.5t-117 -302.5t-304 -122.5zM480 -4q182 0 296 119t114 295t-114 295t-296 119t-296 -119t-114 -295t114 -295t296 -119zM665 164q-32 0 -53 21t-21 60v49q0 22 -1 33.5t-6.5 24t-15 18 t-27.5 10t-42.5 6t-62.5 1.5h-53v-160q0 -25 10 -36t39 -11v-6h-160v6q28 0 37.5 11t9.5 36v378q0 24 -10 35.5t-38 11.5v6h178q111 0 174.5 -33.5t63.5 -99.5q0 -51 -50.5 -86t-132.5 -47q152 -6 152 -116v-46q0 -32 6 -44t21 -12t19 13.5t4 43.5q0 14 9 14q10 0 10 -13 q0 -28 -15.5 -48t-44.5 -20zM383 652v-258h65q83 0 128 35t45 96q0 127 -177 127h-61z" />
<glyph unicode="&#xaf;" horiz-adv-x="446" d="M80 641v32h286v-32h-286z" />
<glyph unicode="&#xb0;" horiz-adv-x="431" d="M216 530q-69 0 -114.5 43.5t-45.5 105.5t45.5 105.5t114.5 43.5t114.5 -43.5t45.5 -105.5t-45.5 -105.5t-114.5 -43.5zM216 539q65 0 108 40.5t43 99.5t-43 99.5t-108 40.5t-108 -40.5t-43 -99.5t43 -99.5t108 -40.5z" />
<glyph unicode="&#xb1;" horiz-adv-x="545" d="M80 363v13h186v186h13v-186h186v-13h-186v-186h-13v186h-186zM80 75v13h385v-13h-385z" />
<glyph unicode="&#xb4;" horiz-adv-x="320" d="M86 591l-6 2l111 142q10 13 23 15.5t19 -4.5q9 -14 4.5 -25t-13.5 -17z" />
<glyph unicode="&#xb6;" horiz-adv-x="875" d="M517 -192q-106 0 -190 52.5t-134 139.5t-75.5 192t-25.5 218q0 96 15.5 183.5t49.5 164t83 132t120 87.5t157 32t164 -42t104 -94q10 -20 9 -37t-14 -23q-9 -8 -25.5 -2t-25.5 27q-22 51 -60.5 93.5t-89.5 59.5v-1164q95 33 150 155q10 23 28 30t28 -1q30 -16 5 -67 q-27 -55 -107 -95.5t-166 -40.5zM517 -184q23 0 51 7v1171q-28 7 -51 7q-55 0 -99 -15l-2 -1151q41 -18 101 -19z" />
<glyph unicode="&#xb7;" horiz-adv-x="261" d="M130 204q-29 0 -49 20.5t-20 49.5t20 49.5t49 20.5t49.5 -20.5t20.5 -49.5t-20.5 -49.5t-49.5 -20.5z" />
<glyph unicode="&#xb8;" horiz-adv-x="495" d="M260 -258q-47 0 -82 21.5t-50 48.5q-13 19 5 27q14 7 23 -16q10 -34 38 -53.5t65 -19.5q36 0 61 21t25 58q0 41 -30.5 58.5t-65.5 6.5l-10 6v91h11v-87q54 12 109.5 -8t55.5 -68q0 -43 -47 -64.5t-108 -21.5z" />
<glyph unicode="&#xba;" horiz-adv-x="415" d="M209 543q45 0 69.5 39.5t24.5 99.5t-24.5 99.5t-69.5 39.5t-69 -39.5t-24 -99.5t24 -99.5t69 -39.5zM209 537q-67 0 -111 42t-44 103t44 102.5t111 41.5t111 -41.5t44 -102.5t-44 -103t-111 -42z" />
<glyph unicode="&#xbb;" horiz-adv-x="632" d="M83 115l-3 5l156 144l-156 135l3 5l249 -137v-5zM303 115l-3 5l156 144l-156 135l3 5l249 -137v-5z" />
<glyph unicode="&#xbf;" horiz-adv-x="645" d="M335 605q38 0 66.5 -29t26.5 -67q-4 -52 -36.5 -103t-76 -91.5t-86 -79.5t-71.5 -83.5t-29 -87.5q0 -78 50 -120.5t148 -42.5q82 0 140 42.5t82 98.5q-17 -7 -34 -7q-36 0 -57 23t-21 50q0 34 22.5 56t58.5 22q33 0 56 -23.5t23 -53.5q0 -85 -71 -151.5t-199 -66.5 q-117 0 -196 60t-79 160q0 43 30.5 89t74 87t86.5 82t73.5 89t30.5 93q1 17 -10.5 30t-30.5 13t-25.5 -15.5t-9 -31t-10.5 -15.5q-15 0 -15 12q0 29 27.5 45t61.5 16zM325 832q29 0 49 -20.5t20 -49.5t-20 -49.5t-49 -20.5t-49.5 20.5t-20.5 49.5t20.5 49.5t49.5 20.5z" />
<glyph unicode="&#xc0;" horiz-adv-x="842" d="M-17 0v8q50 0 98.5 55t107.5 198l229 559h65l243 -691q16 -46 48.5 -82t78.5 -39v-8h-321v8q117 4 85 95l-84 242h-300l-29 -72q-30 -74 -30 -138q0 -48 29.5 -83.5t98.5 -43.5v-8h-319zM395 745l-159 -391h294zM462 874l-138 113q-9 6 -13.5 17t4.5 25q6 7 19 4.5 t23 -15.5l111 -142z" />
<glyph unicode="&#xc1;" horiz-adv-x="842" d="M-17 0v8q50 0 98.5 55t107.5 198l229 559h65l243 -691q16 -46 48.5 -82t78.5 -39v-8h-321v8q117 4 85 95l-84 242h-300l-29 -72q-30 -74 -30 -138q0 -48 29.5 -83.5t98.5 -43.5v-8h-319zM395 745l-159 -391h294zM438 872l-6 2l111 142q10 13 23 15.5t19 -4.5 q9 -14 4.5 -25t-13.5 -17z" />
<glyph unicode="&#xc2;" horiz-adv-x="842" d="M-17 0v8q50 0 98.5 55t107.5 198l229 559h65l243 -691q16 -46 48.5 -82t78.5 -39v-8h-321v8q117 4 85 95l-84 242h-300l-29 -72q-30 -74 -30 -138q0 -48 29.5 -83.5t98.5 -43.5v-8h-319zM395 745l-159 -391h294zM319 866q-2 -1 -4 0t-1 3l134 166q1 1 2 1t2 -1l134 -166 q1 -2 -1 -3t-4 0l-131 105z" />
<glyph unicode="&#xc3;" horiz-adv-x="842" d="M-17 0v8q50 0 98.5 55t107.5 198l229 559h65l243 -691q16 -46 48.5 -82t78.5 -39v-8h-321v8q117 4 85 95l-84 242h-300l-29 -72q-30 -74 -30 -138q0 -48 29.5 -83.5t98.5 -43.5v-8h-319zM395 745l-159 -391h294zM319 887q-9 0 -9 11q0 109 74 109q33 0 97 -32.5t84 -32.5 q19 0 22 16.5t-1.5 31t3.5 16.5q9 0 9 -11q0 -47 -21 -78t-55 -31q-35 0 -97.5 31.5t-87.5 31.5q-16 0 -17.5 -16t3 -30t-3.5 -16z" />
<glyph unicode="&#xc4;" horiz-adv-x="842" d="M-17 0v8q50 0 98.5 55t107.5 198l229 559h65l243 -691q16 -46 48.5 -82t78.5 -39v-8h-321v8q117 4 85 95l-84 242h-300l-29 -72q-30 -74 -30 -138q0 -48 29.5 -83.5t98.5 -43.5v-8h-319zM395 745l-159 -391h294zM344 885q-22 0 -39.5 17t-17.5 37t17 38t39 18t38 -17 t16 -39q0 -20 -16.5 -37t-36.5 -17zM544 885q-22 0 -39.5 17t-17.5 37t17 38t39 18t38 -17t16 -39q0 -20 -16.5 -37t-36.5 -17z" />
<glyph unicode="&#xc5;" horiz-adv-x="842" d="M395 745l-159 -391h294zM364 898q0 -34 24 -58t58 -24t58 24t24 58t-24 58t-58 24t-58 -24t-24 -58zM354 898q0 38 27 65t65 27t65 -27t27 -65q0 -58 -53 -84l241 -685q16 -46 48.5 -82t78.5 -39v-8h-321v8q117 4 85 95l-84 242h-300l-29 -72q-30 -74 -30 -138 q0 -48 29.5 -83.5t98.5 -43.5v-8h-319v8q50 0 98.5 55t107.5 198l225 550q-27 10 -43.5 33.5t-16.5 53.5z" />
<glyph unicode="&#xc6;" horiz-adv-x="1226" d="M969 234q0 106 -54.5 149t-164.5 43h-74v-418h223q67 0 117.5 28t76.5 71t38.5 83t13.5 77h9v-267h-667v8q47 0 64 20t17 60v155h-64q-130 0 -237 30l-85 -127q-26 -39 -33.5 -70.5t4.5 -49t40 -17.5v-9h-207v8q90 4 177 132l92 136q-113 34 -176 96t-63 137 q0 55 30 93.5t82 38.5q40 0 67.5 -29.5t25.5 -70.5q-1 -31 -28 -61t-75 -30q-41 0 -65 27q30 -133 209 -190l273 402q15 22 23 41.5t7 39t-22.5 31t-63.5 11.5v8h675v-231h-9q-1 35 -13 71t-36.5 71.5t-71 58t-107.5 22.5h-241v-378h74q219 0 219 182h9v-382h-9zM275 284 q100 -30 241 -30h52v462z" />
<glyph unicode="&#xc7;" horiz-adv-x="840" d="M460 -259q-47 0 -82 21.5t-50 48.5q-13 19 5 27q14 7 23 -16q10 -34 38 -53.5t65 -19.5q36 0 61 21t25 58q0 41 -30.5 58.5t-65.5 6.5l-10 6v87q-168 5 -273 126.5t-105 297.5q0 181 118 303t311 122q119 0 195.5 -61t76.5 -146q0 -89 -81 -89q-30 0 -52 22t-22 52 t22 51.5t52 21.5q13 0 29 -6q-10 66 -68.5 106.5t-152.5 40.5q-145 0 -228 -117.5t-83 -299.5q0 -116 32.5 -210t95.5 -150t146 -57q115 0 191 86t92 215h9v-293h-10q-2 58 -48 58q-12 0 -56 -22q-99 -52 -178 -52h-2v-82q54 12 109.5 -8t55.5 -68q0 -43 -47 -64.5 t-108 -21.5z" />
<glyph unicode="&#xc8;" horiz-adv-x="778" d="M521 234q0 106 -54.5 149t-164.5 43h-74v-418h223q67 0 117.5 28t76.5 71t38.5 83t13.5 77h9v-267h-667v8q47 0 64 20t17 63v642q0 42 -17 60.5t-65 18.5v8h668v-231h-9q-1 35 -13 71t-36.5 71.5t-71 58t-107.5 22.5h-241v-378h74q219 0 219 182h9v-382h-9zM458 875 l-138 113q-9 6 -13.5 17t4.5 25q6 7 19 4.5t23 -15.5l111 -142z" />
<glyph unicode="&#xc9;" horiz-adv-x="778" d="M521 234q0 106 -54.5 149t-164.5 43h-74v-418h223q67 0 117.5 28t76.5 71t38.5 83t13.5 77h9v-267h-667v8q47 0 64 20t17 63v642q0 42 -17 60.5t-65 18.5v8h668v-231h-9q-1 35 -13 71t-36.5 71.5t-71 58t-107.5 22.5h-241v-378h74q219 0 219 182h9v-382h-9zM381 883l-6 2 l111 142q10 13 23 15.5t19 -4.5q9 -14 4.5 -25t-13.5 -17z" />
<glyph unicode="&#xca;" horiz-adv-x="778" d="M521 234q0 106 -54.5 149t-164.5 43h-74v-418h223q67 0 117.5 28t76.5 71t38.5 83t13.5 77h9v-267h-667v8q47 0 64 20t17 63v642q0 42 -17 60.5t-65 18.5v8h668v-231h-9q-1 35 -13 71t-36.5 71.5t-71 58t-107.5 22.5h-241v-378h74q219 0 219 182h9v-382h-9zM280 879 q-2 -1 -4 0t-1 3l134 166q1 1 2 1t2 -1l134 -166q1 -2 -1 -3t-4 0l-131 105z" />
<glyph unicode="&#xcb;" horiz-adv-x="778" d="M521 234q0 106 -54.5 149t-164.5 43h-74v-418h223q67 0 117.5 28t76.5 71t38.5 83t13.5 77h9v-267h-667v8q47 0 64 20t17 63v642q0 42 -17 60.5t-65 18.5v8h668v-231h-9q-1 35 -13 71t-36.5 71.5t-71 58t-107.5 22.5h-241v-378h74q219 0 219 182h9v-382h-9zM320 882 q-22 0 -39.5 17t-17.5 37t17 38t39 18t38 -17t16 -39q0 -20 -16.5 -37t-36.5 -17zM520 882q-22 0 -39.5 17t-17.5 37t17 38t39 18t38 -17t16 -39q0 -20 -16.5 -37t-36.5 -17z" />
<glyph unicode="&#xcc;" horiz-adv-x="358" d="M43 0v8q48 0 65 19t17 61v644q0 42 -17 61t-65 19v8h272v-8q-48 0 -65 -19t-17 -61v-644q0 -42 17 -61t65 -19v-8h-272zM229 875l-138 113q-9 6 -13.5 17t4.5 25q6 7 19 4.5t23 -15.5l111 -142z" />
<glyph unicode="&#xcd;" horiz-adv-x="358" d="M43 0v8q48 0 65 19t17 61v644q0 42 -17 61t-65 19v8h272v-8q-48 0 -65 -19t-17 -61v-644q0 -42 17 -61t65 -19v-8h-272zM155 882l-6 2l111 142q10 13 23 15.5t19 -4.5q9 -14 4.5 -25t-13.5 -17z" />
<glyph unicode="&#xce;" horiz-adv-x="358" d="M43 0v8q48 0 65 19t17 61v644q0 42 -17 61t-65 19v8h272v-8q-48 0 -65 -19t-17 -61v-644q0 -42 17 -61t65 -19v-8h-272zM49 879q-2 -1 -4 0t-1 3l134 166q1 1 2 1t2 -1l134 -166q1 -2 -1 -3t-4 0l-131 105z" />
<glyph unicode="&#xcf;" horiz-adv-x="358" d="M43 0v8q48 0 65 19t17 61v644q0 42 -17 61t-65 19v8h272v-8q-48 0 -65 -19t-17 -61v-644q0 -42 17 -61t65 -19v-8h-272zM86 909q-22 0 -39.5 17t-17.5 37t17 38t39 18t38 -17t16 -39q0 -20 -16.5 -37t-36.5 -17zM286 909q-22 0 -39.5 17t-17.5 37t17 38t39 18t38 -17 t16 -39q0 -20 -16.5 -37t-36.5 -17z" />
<glyph unicode="&#xd0;" horiz-adv-x="855" d="M43 407v12h77v314q0 42 -17 60.5t-65 18.5v8h202q279 0 417.5 -105t138.5 -287q0 -90 -33 -165.5t-98.5 -135.5t-174.5 -93.5t-251 -33.5h-200v8q47 0 64 20t17 63v316h-77zM240 812h-12v-393h152v-12h-152v-399h11q115 0 201.5 32t138 89.5t77 132.5t25.5 167 q0 383 -441 383z" />
<glyph unicode="&#xd1;" horiz-adv-x="852" d="M39 0v7q36 1 59.5 33t30 63t6.5 57v540q0 112 -95 112q1 2 0 6v2h187l511 -652v492q0 51 -30 101.5t-75 50.5v8h201v-8q-28 -1 -47 -18.5t-26.5 -44.5t-10.5 -47.5t-3 -40.5v-661h-17l-586 747v-579q0 -53 26 -106t70 -53v-9h-201zM301 883q-9 0 -9 11q0 109 74 109 q33 0 97 -32.5t84 -32.5q19 0 22 16.5t-1.5 31t3.5 16.5q9 0 9 -11q0 -47 -21 -78t-55 -31q-35 0 -97.5 31.5t-87.5 31.5q-16 0 -17.5 -16t3 -30t-3.5 -16z" />
<glyph unicode="&#xd2;" d="M480 -7q139 0 221.5 119t82.5 298t-82.5 298t-221.5 119t-221.5 -119t-82.5 -298t82.5 -298t221.5 -119zM480 -15q-187 0 -304 122.5t-117 302.5t117 302.5t304 122.5t304 -122.5t117 -302.5t-117 -302.5t-304 -122.5zM528 874l-138 113q-9 6 -13.5 17t4.5 25q6 7 19 4.5 t23 -15.5l111 -142z" />
<glyph unicode="&#xd3;" d="M480 -7q139 0 221.5 119t82.5 298t-82.5 298t-221.5 119t-221.5 -119t-82.5 -298t82.5 -298t221.5 -119zM480 -15q-187 0 -304 122.5t-117 302.5t117 302.5t304 122.5t304 -122.5t117 -302.5t-117 -302.5t-304 -122.5zM474 881l-6 2l111 142q10 13 23 15.5t19 -4.5 q9 -14 4.5 -25t-13.5 -17z" />
<glyph unicode="&#xd4;" d="M480 -7q139 0 221.5 119t82.5 298t-82.5 298t-221.5 119t-221.5 -119t-82.5 -298t82.5 -298t221.5 -119zM480 -15q-187 0 -304 122.5t-117 302.5t117 302.5t304 122.5t304 -122.5t117 -302.5t-117 -302.5t-304 -122.5zM358 874q-2 -1 -4 0t-1 3l134 166q1 1 2 1t2 -1 l134 -166q1 -2 -1 -3t-4 0l-131 105z" />
<glyph unicode="&#xd5;" d="M480 -7q139 0 221.5 119t82.5 298t-82.5 298t-221.5 119t-221.5 -119t-82.5 -298t82.5 -298t221.5 -119zM480 -15q-187 0 -304 122.5t-117 302.5t117 302.5t304 122.5t304 -122.5t117 -302.5t-117 -302.5t-304 -122.5zM359 895q-9 0 -9 11q0 109 74 109q33 0 97 -32.5 t84 -32.5q19 0 22 16.5t-1.5 31t3.5 16.5q9 0 9 -11q0 -47 -21 -78t-55 -31q-35 0 -97.5 31.5t-87.5 31.5q-16 0 -17.5 -16t3 -30t-3.5 -16z" />
<glyph unicode="&#xd6;" d="M480 -7q139 0 221.5 119t82.5 298t-82.5 298t-221.5 119t-221.5 -119t-82.5 -298t82.5 -298t221.5 -119zM480 -15q-187 0 -304 122.5t-117 302.5t117 302.5t304 122.5t304 -122.5t117 -302.5t-117 -302.5t-304 -122.5zM392 891q-22 0 -39.5 17t-17.5 37t17 38t39 18 t38 -17t16 -39q0 -20 -16.5 -37t-36.5 -17zM592 891q-22 0 -39.5 17t-17.5 37t17 38t39 18t38 -17t16 -39q0 -20 -16.5 -37t-36.5 -17z" />
<glyph unicode="&#xd7;" horiz-adv-x="481" d="M89 91l-9 9l151 151l-151 152l9 9l151 -151l152 151l9 -9l-151 -152l151 -151l-9 -9l-152 151z" />
<glyph unicode="&#xd8;" d="M257 -182l72 191q-125 44 -197.5 153t-72.5 248q0 180 117 302.5t304 122.5q79 0 151 -25l58 154h13l-60 -158q120 -46 189.5 -153t69.5 -243q0 -180 -117 -302.5t-304 -122.5q-72 0 -141 21l-71 -188h-11zM176 410q0 -126 42.5 -226t119.5 -150l284 752q-65 41 -142 41 q-139 0 -221.5 -119t-82.5 -298zM480 -7q139 0 221.5 119t82.5 298q0 122 -40 219.5t-112 149.5l-284 -751q60 -35 132 -35z" />
<glyph unicode="&#xd9;" horiz-adv-x="834" d="M429 -15q-94 0 -156.5 26.5t-95 79.5t-45 115.5t-12.5 150.5v366q0 47 -17 68t-65 21v8h272v-8q-48 0 -65 -21t-17 -68v-402q0 -159 49.5 -239.5t179.5 -80.5q111 0 180 82.5t68 245.5v323q0 54 -25.5 107t-69.5 53v8h191l-1 -7q-28 -1 -46.5 -18.5t-26.5 -45t-10.5 -48 t-2.5 -40.5v-343q0 -69 -15 -126.5t-47 -105t-89 -74.5t-134 -27zM485 874l-138 113q-9 6 -13.5 17t4.5 25q6 7 19 4.5t23 -15.5l111 -142z" />
<glyph unicode="&#xda;" horiz-adv-x="834" d="M429 -15q-94 0 -156.5 26.5t-95 79.5t-45 115.5t-12.5 150.5v366q0 47 -17 68t-65 21v8h272v-8q-48 0 -65 -21t-17 -68v-402q0 -159 49.5 -239.5t179.5 -80.5q111 0 180 82.5t68 245.5v323q0 54 -25.5 107t-69.5 53v8h191l-1 -7q-28 -1 -46.5 -18.5t-26.5 -45t-10.5 -48 t-2.5 -40.5v-343q0 -69 -15 -126.5t-47 -105t-89 -74.5t-134 -27zM440 891l-6 2l111 142q10 13 23 15.5t19 -4.5q9 -14 4.5 -25t-13.5 -17z" />
<glyph unicode="&#xdb;" horiz-adv-x="834" d="M429 -15q-94 0 -156.5 26.5t-95 79.5t-45 115.5t-12.5 150.5v366q0 47 -17 68t-65 21v8h272v-8q-48 0 -65 -21t-17 -68v-402q0 -159 49.5 -239.5t179.5 -80.5q111 0 180 82.5t68 245.5v323q0 54 -25.5 107t-69.5 53v8h191l-1 -7q-28 -1 -46.5 -18.5t-26.5 -45t-10.5 -48 t-2.5 -40.5v-343q0 -69 -15 -126.5t-47 -105t-89 -74.5t-134 -27zM329 879q-2 -1 -4 0t-1 3l134 166q1 1 2 1t2 -1l134 -166q1 -2 -1 -3t-4 0l-131 105z" />
<glyph unicode="&#xdc;" horiz-adv-x="834" d="M429 -15q-94 0 -156.5 26.5t-95 79.5t-45 115.5t-12.5 150.5v366q0 47 -17 68t-65 21v8h272v-8q-48 0 -65 -21t-17 -68v-402q0 -159 49.5 -239.5t179.5 -80.5q111 0 180 82.5t68 245.5v323q0 54 -25.5 107t-69.5 53v8h191l-1 -7q-28 -1 -46.5 -18.5t-26.5 -45t-10.5 -48 t-2.5 -40.5v-343q0 -69 -15 -126.5t-47 -105t-89 -74.5t-134 -27zM354 909q-22 0 -39.5 17t-17.5 37t17 38t39 18t38 -17t16 -39q0 -20 -16.5 -37t-36.5 -17zM554 909q-22 0 -39.5 17t-17.5 37t17 38t39 18t38 -17t16 -39q0 -20 -16.5 -37t-36.5 -17z" />
<glyph unicode="&#xdd;" horiz-adv-x="824" d="M264 0v7q48 0 65 19.5t17 61.5v301l-188 339q-22 39 -50.5 60.5t-82.5 24.5q1 2 0 5v2h301l-2 -9q-58 -3 -66 -26t20 -66l170 -307l195 312q-8 32 -32 58.5t-68 29.5v8h252v-7q-33 -2 -72 -24.5t-66 -64.5l-203 -322v-314q0 -42 16.5 -61.5t63.5 -19.5v-7h-270zM405 871 l-6 2l111 142q10 13 23 15.5t19 -4.5q9 -14 4.5 -25t-13.5 -17z" />
<glyph unicode="&#xde;" horiz-adv-x="774" d="M39 0v7q48 0 64.5 19t16.5 61v646q0 42 -16.5 61t-64.5 19v7h270v-7q-48 0 -64.5 -19t-16.5 -61v-64h102q193 0 291 -65t98 -183t-102 -189t-294 -71h-95v-74q0 -42 16.5 -61t64.5 -19v-7h-270zM325 661h-97v-492h90q149 0 220.5 69.5t71.5 182.5q0 240 -285 240z" />
<glyph unicode="&#xdf;" horiz-adv-x="778" d="M69 -164q-26 0 -42 15t-19 27.5t-3 22.5q0 17 9 17t9 -18.5t6.5 -36.5t31.5 -18q23 0 29.5 33t6.5 113v389q0 111 15.5 192t41 128.5t65.5 75.5t81.5 37.5t96.5 9.5q53 0 103 -15t87 -51t37 -86q0 -128 -245 -169h23q56 -1 111 -17.5t103 -48t77.5 -84.5t29.5 -120 q0 -100 -77 -173.5t-184 -73.5q-82 0 -137.5 46.5t-55.5 106.5q0 28 21 48.5t50 20.5q32 0 52 -20t20 -49t-20.5 -50t-48.5 -21h-9q31 -73 127 -73q71 0 113.5 65.5t42.5 172.5q0 135 -71 200.5t-179 63.5q-27 0 -67 -7q-22 -4 -22 4q0 9 14 9q23 0 34 1h1q203 12 203 167 q0 73 -40.5 108.5t-93.5 35.5q-70 0 -110.5 -30t-63 -111.5t-22.5 -227.5v-384q0 -225 -131 -225z" />
<glyph unicode="&#xe0;" horiz-adv-x="676" d="M274 -11q-85 0 -152 50.5t-67 133.5q0 84 67 138t152 54q75 0 126 -32.5t71 -86.5q-1 47 -1 139q0 69 -41 99t-98 30q-45 0 -96 -23.5t-88 -47t-50 -23.5q-9 0 -17 6q-8 8 -8 18q0 32 97 55t162 23q249 0 249 -221v-233q0 -40 9.5 -54t30.5 -14q20 0 31.5 18t16.5 36 t9 18q15 0 7 -23q-21 -60 -92 -60q-51 0 -84 38.5t-37 94.5q-43 -133 -197 -133zM319 7q48 0 100.5 46t52.5 128q0 74 -48.5 120.5t-107.5 46.5q-54 0 -98 -43.5t-44 -129.5q0 -88 41 -128t104 -40zM399 580l-138 113q-9 6 -13.5 17t4.5 25q6 7 19 4.5t23 -15.5l111 -142z " />
<glyph unicode="&#xe1;" horiz-adv-x="676" d="M274 -11q-85 0 -152 50.5t-67 133.5q0 84 67 138t152 54q75 0 126 -32.5t71 -86.5q-1 47 -1 139q0 69 -41 99t-98 30q-45 0 -96 -23.5t-88 -47t-50 -23.5q-9 0 -17 6q-8 8 -8 18q0 32 97 55t162 23q249 0 249 -221v-233q0 -40 9.5 -54t30.5 -14q20 0 31.5 18t16.5 36 t9 18q15 0 7 -23q-21 -60 -92 -60q-51 0 -84 38.5t-37 94.5q-43 -133 -197 -133zM319 7q48 0 100.5 46t52.5 128q0 74 -48.5 120.5t-107.5 46.5q-54 0 -98 -43.5t-44 -129.5q0 -88 41 -128t104 -40zM297 582l-6 2l111 142q10 13 23 15.5t19 -4.5q9 -14 4.5 -25t-13.5 -17z " />
<glyph unicode="&#xe2;" horiz-adv-x="676" d="M274 -11q-85 0 -152 50.5t-67 133.5q0 84 67 138t152 54q75 0 126 -32.5t71 -86.5q-1 47 -1 139q0 69 -41 99t-98 30q-45 0 -96 -23.5t-88 -47t-50 -23.5q-9 0 -17 6q-8 8 -8 18q0 32 97 55t162 23q249 0 249 -221v-233q0 -40 9.5 -54t30.5 -14q20 0 31.5 18t16.5 36 t9 18q15 0 7 -23q-21 -60 -92 -60q-51 0 -84 38.5t-37 94.5q-43 -133 -197 -133zM319 7q48 0 100.5 46t52.5 128q0 74 -48.5 120.5t-107.5 46.5q-54 0 -98 -43.5t-44 -129.5q0 -88 41 -128t104 -40zM205 585q-2 -1 -4 0t-1 3l134 166q1 1 2 1t2 -1l134 -166q1 -2 -1 -3t-4 0 l-131 105z" />
<glyph unicode="&#xe3;" horiz-adv-x="676" d="M274 -11q-85 0 -152 50.5t-67 133.5q0 84 67 138t152 54q75 0 126 -32.5t71 -86.5q-1 47 -1 139q0 69 -41 99t-98 30q-45 0 -96 -23.5t-88 -47t-50 -23.5q-9 0 -17 6q-8 8 -8 18q0 32 97 55t162 23q249 0 249 -221v-233q0 -40 9.5 -54t30.5 -14q20 0 31.5 18t16.5 36 t9 18q15 0 7 -23q-21 -60 -92 -60q-51 0 -84 38.5t-37 94.5q-43 -133 -197 -133zM319 7q48 0 100.5 46t52.5 128q0 74 -48.5 120.5t-107.5 46.5q-54 0 -98 -43.5t-44 -129.5q0 -88 41 -128t104 -40zM186 595q-9 0 -9 11q0 109 74 109q33 0 97 -32.5t84 -32.5q19 0 22 16.5 t-1.5 31t3.5 16.5q9 0 9 -11q0 -47 -21 -78t-55 -31q-35 0 -97.5 31.5t-87.5 31.5q-16 0 -17.5 -16t3 -30t-3.5 -16z" />
<glyph unicode="&#xe4;" horiz-adv-x="676" d="M274 -11q-85 0 -152 50.5t-67 133.5q0 84 67 138t152 54q75 0 126 -32.5t71 -86.5q-1 47 -1 139q0 69 -41 99t-98 30q-45 0 -96 -23.5t-88 -47t-50 -23.5q-9 0 -17 6q-8 8 -8 18q0 32 97 55t162 23q249 0 249 -221v-233q0 -40 9.5 -54t30.5 -14q20 0 31.5 18t16.5 36 t9 18q15 0 7 -23q-21 -60 -92 -60q-51 0 -84 38.5t-37 94.5q-43 -133 -197 -133zM319 7q48 0 100.5 46t52.5 128q0 74 -48.5 120.5t-107.5 46.5q-54 0 -98 -43.5t-44 -129.5q0 -88 41 -128t104 -40zM234 603q-22 0 -39.5 17t-17.5 37t17 38t39 18t38 -17t16 -39 q0 -20 -16.5 -37t-36.5 -17zM434 603q-22 0 -39.5 17t-17.5 37t17 38t39 18t38 -17t16 -39q0 -20 -16.5 -37t-36.5 -17z" />
<glyph unicode="&#xe5;" horiz-adv-x="676" d="M320 7q48 0 100.5 46t52.5 128q0 74 -48.5 120.5t-107.5 46.5q-54 0 -98 -43.5t-44 -129.5q0 -88 41 -128t104 -40zM256 607q0 -34 24 -58t58 -24t58 24t24 58t-24 58t-58 24t-58 -24t-24 -58zM246 607q0 38 27 65t65 27t65 -27t27 -65q0 -30 -16.5 -53.5t-43.5 -33.5 q211 -15 211 -219v-233q0 -40 9.5 -54t30.5 -14q20 0 31.5 18t16.5 36t9 18q15 0 7 -23q-21 -60 -92 -60q-51 0 -84 38.5t-37 94.5q-43 -133 -197 -133q-85 0 -152 50.5t-67 133.5q0 84 67 138t152 54q75 0 126 -32.5t71 -86.5q-1 47 -1 139q0 69 -41 99t-98 30 q-45 0 -96 -23.5t-88 -47t-50 -23.5q-10 0 -17 6q-8 8 -8 18q0 28 78 49.5t154 27.5q-27 10 -43 33t-16 53z" />
<glyph unicode="&#xe6;" horiz-adv-x="1054" d="M274 -11q-85 0 -152 50.5t-67 133.5q0 84 67 138t152 54q77 0 127 -34.5t68 -91.5q1 46 1 146q-1 69 -41.5 99t-97.5 30q-45 0 -96 -23.5t-88 -47t-50 -23.5q-9 0 -17 6q-8 8 -8 18q0 32 97 55t162 23q151 0 212 -86q83 85 217 85q106 0 178.5 -63t72.5 -141 q0 -13 -17 -13h-410q-2 -34 -2 -50q0 -116 43 -186.5t139 -70.5q52 0 104.5 24.5t74.5 67.5h-9q-28 0 -48.5 20.5t-20.5 48.5q0 29 20 49.5t49 20.5t49.5 -20.5t20.5 -49.5q0 -61 -71.5 -115.5t-168.5 -54.5q-109 0 -181 47t-100 126q-46 -172 -209 -172zM319 7 q48 0 98.5 46t50.5 128q0 75 -46.5 121t-105.5 46q-54 0 -98 -43.5t-44 -129.5q0 -88 41 -128t104 -40zM760 513q-75 0 -119.5 -55t-55.5 -145h312q-1 90 -35.5 145t-101.5 55z" />
<glyph unicode="&#xe7;" horiz-adv-x="621" d="M333 -254q-47 0 -82 21.5t-50 48.5q-13 19 5 27q14 7 23 -16q10 -34 38 -53.5t65 -19.5q36 0 61 21t25 58q0 41 -30.5 58.5t-65.5 6.5l-10 6v86q-125 9 -191 82t-66 182q0 114 78.5 190t210.5 76q101 0 167 -53.5t66 -116.5q0 -29 -20.5 -49.5t-49.5 -20.5t-49 20.5 t-20 49.5q0 28 20 48.5t49 20.5q7 0 10 -1q-20 44 -67 68.5t-94 24.5q-66 0 -109.5 -38t-60.5 -93.5t-17 -125.5q0 -115 44.5 -185.5t131.5 -70.5q119 0 158 133q6 21 22.5 26t28 -7t4.5 -32q-22 -64 -87 -97t-126 -33q-15 0 -22 1v-81q54 12 109.5 -8t55.5 -68 q0 -43 -47 -64.5t-108 -21.5z" />
<glyph unicode="&#xe8;" horiz-adv-x="641" d="M351 -12q-139 0 -217.5 75.5t-78.5 190.5q0 112 82 189.5t210 77.5q106 0 178.5 -63t72.5 -141q0 -13 -17 -13h-410q-2 -34 -2 -50q0 -116 43 -186.5t139 -70.5q52 0 104.5 24.5t74.5 67.5h-9q-29 0 -49 20.5t-20 48.5q0 29 20 49.5t49 20.5t49.5 -20.5t20.5 -49.5 q0 -61 -71.5 -115.5t-168.5 -54.5zM347 513q-75 0 -119.5 -55t-55.5 -145h312q-1 90 -35.5 145t-101.5 55zM420 585l-138 113q-9 6 -13.5 17t4.5 25q6 7 19 4.5t23 -15.5l111 -142z" />
<glyph unicode="&#xe9;" horiz-adv-x="641" d="M351 -12q-139 0 -217.5 75.5t-78.5 190.5q0 112 82 189.5t210 77.5q106 0 178.5 -63t72.5 -141q0 -13 -17 -13h-410q-2 -34 -2 -50q0 -116 43 -186.5t139 -70.5q52 0 104.5 24.5t74.5 67.5h-9q-29 0 -49 20.5t-20 48.5q0 29 20 49.5t49 20.5t49.5 -20.5t20.5 -49.5 q0 -61 -71.5 -115.5t-168.5 -54.5zM347 513q-75 0 -119.5 -55t-55.5 -145h312q-1 90 -35.5 145t-101.5 55zM314 588l-6 2l111 142q10 13 23 15.5t19 -4.5q9 -14 4.5 -25t-13.5 -17z" />
<glyph unicode="&#xea;" horiz-adv-x="641" d="M351 -12q-139 0 -217.5 75.5t-78.5 190.5q0 112 82 189.5t210 77.5q106 0 178.5 -63t72.5 -141q0 -13 -17 -13h-410q-2 -34 -2 -50q0 -116 43 -186.5t139 -70.5q52 0 104.5 24.5t74.5 67.5h-9q-29 0 -49 20.5t-20 48.5q0 29 20 49.5t49 20.5t49.5 -20.5t20.5 -49.5 q0 -61 -71.5 -115.5t-168.5 -54.5zM347 513q-75 0 -119.5 -55t-55.5 -145h312q-1 90 -35.5 145t-101.5 55zM221 584q-2 -1 -4 0t-1 3l134 166q1 1 2 1t2 -1l134 -166q1 -2 -1 -3t-4 0l-131 105z" />
<glyph unicode="&#xeb;" horiz-adv-x="641" d="M351 -12q-139 0 -217.5 75.5t-78.5 190.5q0 112 82 189.5t210 77.5q106 0 178.5 -63t72.5 -141q0 -13 -17 -13h-410q-2 -34 -2 -50q0 -116 43 -186.5t139 -70.5q52 0 104.5 24.5t74.5 67.5h-9q-29 0 -49 20.5t-20 48.5q0 29 20 49.5t49 20.5t49.5 -20.5t20.5 -49.5 q0 -61 -71.5 -115.5t-168.5 -54.5zM347 513q-75 0 -119.5 -55t-55.5 -145h312q-1 90 -35.5 145t-101.5 55zM256 601q-22 0 -39.5 17t-17.5 37t17 38t39 18t38 -17t16 -39q0 -20 -16.5 -37t-36.5 -17zM456 601q-22 0 -39.5 17t-17.5 37t17 38t39 18t38 -17t16 -39 q0 -20 -16.5 -37t-36.5 -17z" />
<glyph unicode="&#xec;" horiz-adv-x="306" d="M197 579l-138 113q-9 6 -13.5 17t4.5 25q6 7 19 4.5t23 -15.5l111 -142zM228 -8q-50 0 -92.5 36.5t-42.5 106.5q-1 33 -1 90t0.5 123t0.5 86q0 72 -35 72q-15 0 -25 -16t-16.5 -32t-13.5 -16q-9 0 -9 10q0 18 26 41t60 23q60 0 92.5 -35t32.5 -98v-320q0 -62 39 -62 q19 0 30 19.5t17 39t13 19.5q9 0 9 -12q0 -31 -25 -53t-60 -22z" />
<glyph unicode="&#xed;" horiz-adv-x="306" d="M75 590l-6 2l111 142q10 13 23 15.5t19 -4.5q9 -14 4.5 -25t-13.5 -17zM228 -8q-50 0 -92.5 36.5t-42.5 106.5q-1 33 -1 90t0.5 123t0.5 86q0 72 -35 72q-15 0 -25 -16t-16.5 -32t-13.5 -16q-9 0 -9 10q0 18 26 41t60 23q60 0 92.5 -35t32.5 -98v-320q0 -62 39 -62 q19 0 30 19.5t17 39t13 19.5q9 0 9 -12q0 -31 -25 -53t-60 -22z" />
<glyph unicode="&#xee;" horiz-adv-x="306" d="M11 585q-2 -1 -4 0t-1 3l134 166q1 1 2 1t2 -1l134 -166q1 -2 -1 -3t-4 0l-131 105zM228 -8q-50 0 -92.5 36.5t-42.5 106.5q-1 33 -1 90t0.5 123t0.5 86q0 72 -35 72q-15 0 -25 -16t-16.5 -32t-13.5 -16q-9 0 -9 10q0 18 26 41t60 23q60 0 92.5 -35t32.5 -98v-320 q0 -62 39 -62q19 0 30 19.5t17 39t13 19.5q9 0 9 -12q0 -31 -25 -53t-60 -22z" />
<glyph unicode="&#xef;" horiz-adv-x="306" d="M38 603q-22 0 -39.5 17t-17.5 37t17 38t39 18t38 -17t16 -39q0 -20 -16.5 -37t-36.5 -17zM238 603q-22 0 -39.5 17t-17.5 37t17 38t39 18t38 -17t16 -39q0 -20 -16.5 -37t-36.5 -17zM228 -8q-50 0 -92.5 36.5t-42.5 106.5q-1 33 -1 90t0.5 123t0.5 86q0 72 -35 72 q-15 0 -25 -16t-16.5 -32t-13.5 -16q-9 0 -9 10q0 18 26 41t60 23q60 0 92.5 -35t32.5 -98v-320q0 -62 39 -62q19 0 30 19.5t17 39t13 19.5q9 0 9 -12q0 -31 -25 -53t-60 -22z" />
<glyph unicode="&#xf0;" horiz-adv-x="706" d="M563 857l-91 -73q84 -60 136.5 -162t52.5 -214q0 -171 -94 -295.5t-228 -124.5q-125 0 -206 77t-81 189q0 111 76.5 181t201.5 70q79 0 144 -58.5t76 -158.5q7 61 7 103q-2 277 -101 379l-97 -78l-10 11l97 77q-59 53 -148 53q-54 0 -90 -18q39 -19 39 -61q0 -29 -19 -48 t-46 -19q-29 0 -49.5 17.5t-20.5 49.5q0 46 45 66t141 22q82 1 162 -50l94 75zM348 -3q82 0 135.5 83.5t55.5 177.5q2 99 -60.5 167.5t-146.5 68.5t-125 -64.5t-41 -175.5q0 -110 49 -183.5t133 -73.5z" />
<glyph unicode="&#xf1;" horiz-adv-x="711" d="M226 -10q-51 0 -91.5 37t-40.5 97v329q0 51 -31 51q-16 0 -27 -15.5t-17.5 -31t-10.5 -15.5q-9 0 -9 10q0 19 27.5 41.5t70.5 22.5q50 0 79.5 -35.5t29.5 -94.5v-67q12 58 37 99t56.5 61t60 28.5t56.5 8.5q92 0 145.5 -52t53.5 -160v-251q0 -27 11 -41t27 -14 q17 0 27 16.5t15 33t11 16.5q9 0 9 -11q0 -26 -22 -44.5t-57 -18.5q-51 0 -92.5 35.5t-41.5 110.5l3 160v-1q0 114 -23 159.5t-89 45.5q-33 0 -64.5 -16t-60 -49t-46 -94t-17.5 -141q0 -113 1 -154q1 -23 10.5 -35.5t23.5 -12.5q19 0 30 16.5t16.5 33t10.5 16.5q9 0 9 -11 q0 -26 -24.5 -44.5t-55.5 -18.5zM241 595q-9 0 -9 11q0 109 74 109q33 0 97 -32.5t84 -32.5q19 0 22 16.5t-1.5 31t3.5 16.5q9 0 9 -11q0 -47 -21 -78t-55 -31q-35 0 -97.5 31.5t-87.5 31.5q-16 0 -17.5 -16t3 -30t-3.5 -16z" />
<glyph unicode="&#xf2;" horiz-adv-x="683" d="M341 -3q83 0 128 72.5t45 184.5t-45 185t-128 73t-127.5 -73t-44.5 -185t44.5 -184.5t127.5 -72.5zM341 -12q-124 0 -205 77t-81 189t81 189.5t205 77.5t205.5 -77.5t81.5 -189.5t-81.5 -189t-205.5 -77zM377 577l-138 113q-9 6 -13.5 17t4.5 25q6 7 19 4.5t23 -15.5 l111 -142z" />
<glyph unicode="&#xf3;" horiz-adv-x="683" d="M341 -3q83 0 128 72.5t45 184.5t-45 185t-128 73t-127.5 -73t-44.5 -185t44.5 -184.5t127.5 -72.5zM341 -12q-124 0 -205 77t-81 189t81 189.5t205 77.5t205.5 -77.5t81.5 -189.5t-81.5 -189t-205.5 -77zM339 587l-6 2l111 142q10 13 23 15.5t19 -4.5q9 -14 4.5 -25 t-13.5 -17z" />
<glyph unicode="&#xf4;" horiz-adv-x="683" d="M341 -3q83 0 128 72.5t45 184.5t-45 185t-128 73t-127.5 -73t-44.5 -185t44.5 -184.5t127.5 -72.5zM341 -12q-124 0 -205 77t-81 189t81 189.5t205 77.5t205.5 -77.5t81.5 -189.5t-81.5 -189t-205.5 -77zM210 577q-2 -1 -4 0t-1 3l134 166q1 1 2 1t2 -1l134 -166 q1 -2 -1 -3t-4 0l-131 105z" />
<glyph unicode="&#xf5;" horiz-adv-x="683" d="M341 -3q83 0 128 72.5t45 184.5t-45 185t-128 73t-127.5 -73t-44.5 -185t44.5 -184.5t127.5 -72.5zM341 -12q-124 0 -205 77t-81 189t81 189.5t205 77.5t205.5 -77.5t81.5 -189.5t-81.5 -189t-205.5 -77zM213 594q-9 0 -9 11q0 109 74 109q33 0 97 -32.5t84 -32.5 q19 0 22 16.5t-1.5 31t3.5 16.5q9 0 9 -11q0 -47 -21 -78t-55 -31q-35 0 -97.5 31.5t-87.5 31.5q-16 0 -17.5 -16t3 -30t-3.5 -16z" />
<glyph unicode="&#xf6;" horiz-adv-x="683" d="M341 -3q83 0 128 72.5t45 184.5t-45 185t-128 73t-127.5 -73t-44.5 -185t44.5 -184.5t127.5 -72.5zM341 -12q-124 0 -205 77t-81 189t81 189.5t205 77.5t205.5 -77.5t81.5 -189.5t-81.5 -189t-205.5 -77zM248 601q-22 0 -39.5 17t-17.5 37t17 38t39 18t38 -17t16 -39 q0 -20 -16.5 -37t-36.5 -17zM448 601q-22 0 -39.5 17t-17.5 37t17 38t39 18t38 -17t16 -39q0 -20 -16.5 -37t-36.5 -17z" />
<glyph unicode="&#xf7;" horiz-adv-x="545" d="M272 85q-11 0 -19.5 8.5t-8.5 19.5q0 12 8.5 20.5t19.5 8.5t20 -8.5t9 -20.5q0 -11 -9 -19.5t-20 -8.5zM80 245v13h385v-13h-385zM272 358q-11 0 -19.5 8.5t-8.5 18.5q0 12 8.5 21t19.5 9t20 -8.5t9 -20.5q0 -11 -9 -19.5t-20 -8.5z" />
<glyph unicode="&#xf8;" horiz-adv-x="683" d="M227 -76h-12l29 78q-86 27 -137.5 95.5t-51.5 156.5q0 112 81 189.5t205 77.5q49 0 94 -14l27 73h13l-29 -76q83 -29 132.5 -97t49.5 -153q0 -112 -81.5 -189t-205.5 -77q-44 0 -86 11zM169 254q0 -166 84 -229l173 460q-37 27 -85 27q-83 0 -127.5 -73t-44.5 -185z M341 -3q83 0 128 72.5t45 184.5q0 156 -78 223l-173 -458q35 -22 78 -22z" />
<glyph unicode="&#xf9;" horiz-adv-x="699" d="M294 -10q-92 0 -145.5 52t-53.5 160v251q0 27 -11 41.5t-27 14.5q-17 0 -27 -16.5t-15 -33.5t-11 -17q-9 0 -9 11q0 26 22 44.5t57 18.5q132 0 132 -164l-1 -141q0 -113 22 -157.5t84 -44.5q71 0 128 78t57 232q0 100 -1 141q-1 23 -10.5 35.5t-23.5 12.5 q-19 0 -30 -16.5t-16.5 -33t-10.5 -16.5q-9 0 -9 11q0 26 24.5 44.5t55.5 18.5q128 0 129 -171l-1 -292q0 -51 31 -51q16 0 28 15.5t19 31t11 15.5q9 0 9 -10q0 -19 -28.5 -41.5t-69.5 -22.5q-109 0 -109 140v66q-12 -58 -36 -100.5t-53 -64.5t-56.5 -31.5t-54.5 -9.5z M374 577l-138 113q-9 6 -13.5 17t4.5 25q6 7 19 4.5t23 -15.5l111 -142z" />
<glyph unicode="&#xfa;" horiz-adv-x="699" d="M294 -10q-92 0 -145.5 52t-53.5 160v251q0 27 -11 41.5t-27 14.5q-17 0 -27 -16.5t-15 -33.5t-11 -17q-9 0 -9 11q0 26 22 44.5t57 18.5q132 0 132 -164l-1 -141q0 -113 22 -157.5t84 -44.5q71 0 128 78t57 232q0 100 -1 141q-1 23 -10.5 35.5t-23.5 12.5 q-19 0 -30 -16.5t-16.5 -33t-10.5 -16.5q-9 0 -9 11q0 26 24.5 44.5t55.5 18.5q128 0 129 -171l-1 -292q0 -51 31 -51q16 0 28 15.5t19 31t11 15.5q9 0 9 -10q0 -19 -28.5 -41.5t-69.5 -22.5q-109 0 -109 140v66q-12 -58 -36 -100.5t-53 -64.5t-56.5 -31.5t-54.5 -9.5z M285 591l-6 2l111 142q10 13 23 15.5t19 -4.5q9 -14 4.5 -25t-13.5 -17z" />
<glyph unicode="&#xfb;" horiz-adv-x="699" d="M294 -10q-92 0 -145.5 52t-53.5 160v251q0 27 -11 41.5t-27 14.5q-17 0 -27 -16.5t-15 -33.5t-11 -17q-9 0 -9 11q0 26 22 44.5t57 18.5q132 0 132 -164l-1 -141q0 -113 22 -157.5t84 -44.5q71 0 128 78t57 232q0 100 -1 141q-1 23 -10.5 35.5t-23.5 12.5 q-19 0 -30 -16.5t-16.5 -33t-10.5 -16.5q-9 0 -9 11q0 26 24.5 44.5t55.5 18.5q128 0 129 -171l-1 -292q0 -51 31 -51q16 0 28 15.5t19 31t11 15.5q9 0 9 -10q0 -19 -28.5 -41.5t-69.5 -22.5q-109 0 -109 140v66q-12 -58 -36 -100.5t-53 -64.5t-56.5 -31.5t-54.5 -9.5z M201 605q-2 -1 -4 0t-1 3l134 166q1 1 2 1t2 -1l134 -166q1 -2 -1 -3t-4 0l-131 105z" />
<glyph unicode="&#xfc;" horiz-adv-x="699" d="M294 -10q-92 0 -145.5 52t-53.5 160v251q0 27 -11 41.5t-27 14.5q-17 0 -27 -16.5t-15 -33.5t-11 -17q-9 0 -9 11q0 26 22 44.5t57 18.5q132 0 132 -164l-1 -141q0 -113 22 -157.5t84 -44.5q71 0 128 78t57 232q0 100 -1 141q-1 23 -10.5 35.5t-23.5 12.5 q-19 0 -30 -16.5t-16.5 -33t-10.5 -16.5q-9 0 -9 11q0 26 24.5 44.5t55.5 18.5q128 0 129 -171l-1 -292q0 -51 31 -51q16 0 28 15.5t19 31t11 15.5q9 0 9 -10q0 -19 -28.5 -41.5t-69.5 -22.5q-109 0 -109 140v66q-12 -58 -36 -100.5t-53 -64.5t-56.5 -31.5t-54.5 -9.5z M229 601q-22 0 -39.5 17t-17.5 37t17 38t39 18t38 -17t16 -39q0 -20 -16.5 -37t-36.5 -17zM429 601q-22 0 -39.5 17t-17.5 37t17 38t39 18t38 -17t16 -39q0 -20 -16.5 -37t-36.5 -17z" />
<glyph unicode="&#xfd;" horiz-adv-x="588" d="M-21 -347q-61 0 -98.5 35.5t-37.5 85.5q0 40 21.5 66t55.5 26q31 0 51.5 -20.5t20.5 -50.5q0 -32 -20.5 -53t-51.5 -21q-10 0 -21 4q9 -29 32.5 -44t52.5 -15q102 0 175 145l88 174l-196 426q-22 51 -43 71t-62 19l-1 8h251v-7q-46 -4 -51.5 -26.5t20.5 -74.5l142 -298 l157 309q-17 42 -40.5 63t-60.5 26q1 2 1 4v4h209v-7q-27 0 -58 -35t-49 -75l-299 -590q-36 -70 -80 -109.5t-108 -39.5zM274 589l-6 2l111 142q10 13 23 15.5t19 -4.5q9 -14 4.5 -25t-13.5 -17z" />
<glyph unicode="&#xfe;" horiz-adv-x="705" d="M212 -291q-54 0 -93.5 37t-39.5 97q0 99 5 420t5 470q0 49 -39 49q-19 0 -32 -13t-17.5 -28.5t-10 -28.5t-11.5 -13q-12 0 -12 11q0 26 38 58.5t79 32.5q56 0 84.5 -31t28.5 -86q0 -75 -5 -325q25 73 81 115t134 42q92 0 166.5 -70t74.5 -193q0 -115 -77 -189.5 t-180 -74.5q-152 0 -199 146q-2 -275 0 -370q1 -23 10.5 -35.5t23.5 -12.5q19 0 30 16.5t16.5 33t10.5 16.5q9 0 9 -11q0 -26 -24.5 -44.5t-55.5 -18.5zM360 3q73 0 124.5 61t51.5 188q0 125 -47.5 186.5t-106.5 61.5q-82 0 -140.5 -71t-57.5 -178q1 -121 56.5 -184.5 t119.5 -63.5z" />
<glyph unicode="&#xff;" horiz-adv-x="588" d="M-21 -347q-61 0 -98.5 35.5t-37.5 85.5q0 40 21.5 66t55.5 26q31 0 51.5 -20.5t20.5 -50.5q0 -32 -20.5 -53t-51.5 -21q-10 0 -21 4q9 -29 32.5 -44t52.5 -15q102 0 175 145l88 174l-196 426q-22 51 -43 71t-62 19l-1 8h251v-7q-46 -4 -51.5 -26.5t20.5 -74.5l142 -298 l157 309q-17 42 -40.5 63t-60.5 26q1 2 1 4v4h209v-7q-27 0 -58 -35t-49 -75l-299 -590q-36 -70 -80 -109.5t-108 -39.5zM193 603q-22 0 -39.5 17t-17.5 37t17 38t39 18t38 -17t16 -39q0 -20 -16.5 -37t-36.5 -17zM393 603q-22 0 -39.5 17t-17.5 37t17 38t39 18t38 -17 t16 -39q0 -20 -16.5 -37t-36.5 -17z" />
<glyph unicode="&#x100;" horiz-adv-x="842" d="M-17 0v8q50 0 98.5 55t107.5 198l229 559h65l243 -691q16 -46 48.5 -82t78.5 -39v-8h-321v8q117 4 85 95l-84 242h-300l-29 -72q-30 -74 -30 -138q0 -48 29.5 -83.5t98.5 -43.5v-8h-319zM395 745l-159 -391h294zM304 943v32h286v-32h-286z" />
<glyph unicode="&#x101;" horiz-adv-x="676" d="M275 -11q-85 0 -152 50.5t-67 133.5q0 84 67 138t152 54q75 0 126 -32.5t71 -86.5q-1 47 -1 139q0 69 -41 99t-98 30q-45 0 -96 -23.5t-88 -47t-50 -23.5q-10 0 -17 6q-8 8 -8 18q0 32 97 55t162 23q249 0 249 -221v-233q0 -40 9.5 -54t30.5 -14q20 0 31.5 18t16.5 36 t9 18q15 0 7 -23q-21 -60 -92 -60q-51 0 -84 38.5t-37 94.5q-43 -133 -197 -133zM320 7q48 0 100.5 46t52.5 128q0 74 -48.5 120.5t-107.5 46.5q-54 0 -98 -43.5t-44 -129.5q0 -88 41 -128t104 -40zM193 641v32h286v-32h-286z" />
<glyph unicode="&#x102;" horiz-adv-x="842" d="M-17 0v8q50 0 98.5 55t107.5 198l229 559h65l243 -691q16 -46 48.5 -82t78.5 -39v-8h-321v8q117 4 85 95l-84 242h-300l-29 -72q-30 -74 -30 -138q0 -48 29.5 -83.5t98.5 -43.5v-8h-319zM395 745l-159 -391h294zM451 886q-70 0 -107 41.5t-37 101.5h7q0 -35 40 -56 t97 -21t97 21t40 56h7q0 -60 -37 -101.5t-107 -41.5z" />
<glyph unicode="&#x103;" horiz-adv-x="676" d="M275 -11q-85 0 -152 50.5t-67 133.5q0 84 67 138t152 54q75 0 126 -32.5t71 -86.5q-1 47 -1 139q0 69 -41 99t-98 30q-45 0 -96 -23.5t-88 -47t-50 -23.5q-10 0 -17 6q-8 8 -8 18q0 32 97 55t162 23q249 0 249 -221v-233q0 -40 9.5 -54t30.5 -14q20 0 31.5 18t16.5 36 t9 18q15 0 7 -23q-21 -60 -92 -60q-51 0 -84 38.5t-37 94.5q-43 -133 -197 -133zM320 7q48 0 100.5 46t52.5 128q0 74 -48.5 120.5t-107.5 46.5q-54 0 -98 -43.5t-44 -129.5q0 -88 41 -128t104 -40zM339 594q-70 0 -107 41.5t-37 101.5h7q0 -35 40 -56t97 -21t97 21t40 56h7 q0 -60 -37 -101.5t-107 -41.5z" />
<glyph unicode="&#x104;" horiz-adv-x="842" d="M777 -205q-41 0 -63 19t-22 47q0 24 16 45t35.5 33t52.5 30.5t50 30.5h-314v8q117 4 85 95l-84 242h-300l-29 -72q-30 -74 -30 -138q0 -48 29.5 -83.5t98.5 -43.5v-8h-319v8q50 0 98.5 55t107.5 198l229 559h65l243 -691q16 -46 48.5 -82t78.5 -39v-8q-2 -2 -22 -18 t-31.5 -27t-23 -33.5t-11.5 -47.5q0 -27 10.5 -46.5t29.5 -19.5q20 0 31.5 18t16.5 36t9 18q15 0 7 -23q-22 -62 -92 -62zM395 745l-159 -391h294z" />
<glyph unicode="&#x105;" horiz-adv-x="676" d="M581 -196q-41 0 -63 19t-22 47q0 18 6.5 32t22.5 28t26.5 21t37 21.5t34.5 19.5q-13 -3 -30 -3q-51 0 -84 38.5t-37 94.5q-43 -133 -197 -133q-85 0 -152 50.5t-67 133.5q0 84 67 138t152 54q75 0 126 -32.5t71 -86.5q-1 47 -1 139q0 69 -41 99t-98 30q-45 0 -96 -23.5 t-88 -47t-50 -23.5q-10 0 -17 6q-8 8 -8 18q0 32 97 55t162 23q249 0 249 -221v-233q0 -40 9.5 -54t30.5 -14q20 0 31.5 18t16.5 36t9 18q15 0 7 -23q-12 -34 -38 -48q-1 -1 -8.5 -6.5t-10 -7.5t-10 -8.5t-11 -10t-9.5 -10.5t-9.5 -12.5t-8 -13t-6.5 -15t-3.5 -16.5 t-1.5 -18q0 -27 10.5 -46.5t29.5 -19.5q20 0 31.5 18t16.5 36t9 18q15 0 7 -23q-22 -62 -92 -62zM320 7q48 0 100.5 46t52.5 128q0 74 -48.5 120.5t-107.5 46.5q-54 0 -98 -43.5t-44 -129.5q0 -88 41 -128t104 -40z" />
<glyph unicode="&#x106;" horiz-adv-x="840" d="M452 -15q-173 0 -282 122.5t-109 302.5q0 181 118 303t311 122q119 0 195.5 -61t76.5 -146q0 -89 -81 -89q-30 0 -52 22t-22 52t22 51.5t52 21.5q13 0 29 -6q-10 66 -68.5 106.5t-152.5 40.5q-145 0 -228 -117.5t-83 -299.5q0 -116 32.5 -210t95.5 -150t146 -57 q115 0 191 86t92 215h9v-293h-10q-2 58 -48 58q-12 0 -56 -22q-99 -52 -178 -52zM475 890l-6 2l111 142q10 13 23 15.5t19 -4.5q9 -14 4.5 -25t-13.5 -17z" />
<glyph unicode="&#x107;" horiz-adv-x="621" d="M345 -12q-141 0 -215.5 75t-74.5 191q0 114 78.5 190t210.5 76q101 0 167 -53.5t66 -116.5q0 -29 -20.5 -49.5t-49.5 -20.5t-49 20.5t-20 49.5q0 28 20 48.5t49 20.5q7 0 10 -1q-20 44 -67 68.5t-94 24.5q-66 0 -109.5 -38t-60.5 -93.5t-17 -125.5q0 -115 44.5 -185.5 t131.5 -70.5q119 0 158 133q6 21 22.5 26t28 -7t4.5 -32q-22 -64 -87 -97t-126 -33zM330 575l-6 2l111 142q10 13 23 15.5t19 -4.5q9 -14 4.5 -25t-13.5 -17z" />
<glyph unicode="&#x108;" horiz-adv-x="840" d="M452 -15q-173 0 -282 122.5t-109 302.5q0 181 118 303t311 122q119 0 195.5 -61t76.5 -146q0 -89 -81 -89q-30 0 -52 22t-22 52t22 51.5t52 21.5q13 0 29 -6q-10 66 -68.5 106.5t-152.5 40.5q-145 0 -228 -117.5t-83 -299.5q0 -116 32.5 -210t95.5 -150t146 -57 q115 0 191 86t92 215h9v-293h-10q-2 58 -48 58q-12 0 -56 -22q-99 -52 -178 -52zM361 874q-2 -1 -4 0t-1 3l134 166q1 1 2 1t2 -1l134 -166q1 -2 -1 -3t-4 0l-131 105z" />
<glyph unicode="&#x109;" horiz-adv-x="621" d="M345 -12q-141 0 -215.5 75t-74.5 191q0 114 78.5 190t210.5 76q101 0 167 -53.5t66 -116.5q0 -29 -20.5 -49.5t-49.5 -20.5t-49 20.5t-20 49.5q0 28 20 48.5t49 20.5q7 0 10 -1q-20 44 -67 68.5t-94 24.5q-66 0 -109.5 -38t-60.5 -93.5t-17 -125.5q0 -115 44.5 -185.5 t131.5 -70.5q119 0 158 133q6 21 22.5 26t28 -7t4.5 -32q-22 -64 -87 -97t-126 -33zM219 558q-2 -1 -4 0t-1 3l134 166q1 1 2 1t2 -1l134 -166q1 -2 -1 -3t-4 0l-131 105z" />
<glyph unicode="&#x10a;" horiz-adv-x="840" d="M452 -15q-173 0 -282 122.5t-109 302.5q0 181 118 303t311 122q119 0 195.5 -61t76.5 -146q0 -89 -81 -89q-30 0 -52 22t-22 52t22 51.5t52 21.5q13 0 29 -6q-10 66 -68.5 106.5t-152.5 40.5q-145 0 -228 -117.5t-83 -299.5q0 -116 32.5 -210t95.5 -150t146 -57 q115 0 191 86t92 215h9v-293h-10q-2 58 -48 58q-12 0 -56 -22q-99 -52 -178 -52zM486 888q-22 0 -39.5 17t-17.5 37t17 38t39 18t38 -17t16 -39q0 -20 -16.5 -37t-36.5 -17z" />
<glyph unicode="&#x10b;" horiz-adv-x="621" d="M345 -12q-141 0 -215.5 75t-74.5 191q0 114 78.5 190t210.5 76q101 0 167 -53.5t66 -116.5q0 -29 -20.5 -49.5t-49.5 -20.5t-49 20.5t-20 49.5q0 28 20 48.5t49 20.5q7 0 10 -1q-20 44 -67 68.5t-94 24.5q-66 0 -109.5 -38t-60.5 -93.5t-17 -125.5q0 -115 44.5 -185.5 t131.5 -70.5q119 0 158 133q6 21 22.5 26t28 -7t4.5 -32q-22 -64 -87 -97t-126 -33zM353 592q-22 0 -39.5 17t-17.5 37t17 38t39 18t38 -17t16 -39q0 -20 -16.5 -37t-36.5 -17z" />
<glyph unicode="&#x10c;" horiz-adv-x="840" d="M452 -15q-173 0 -282 122.5t-109 302.5q0 181 118 303t311 122q119 0 195.5 -61t76.5 -146q0 -89 -81 -89q-30 0 -52 22t-22 52t22 51.5t52 21.5q13 0 29 -6q-10 66 -68.5 106.5t-152.5 40.5q-145 0 -228 -117.5t-83 -299.5q0 -116 32.5 -210t95.5 -150t146 -57 q115 0 191 86t92 215h9v-293h-10q-2 58 -48 58q-12 0 -56 -22q-99 -52 -178 -52zM486 885q-1 0 -2 1l-134 166q-1 2 1 3t4 0l131 -105l131 105q2 1 4 0t1 -3l-134 -166q-1 -1 -2 -1z" />
<glyph unicode="&#x10d;" horiz-adv-x="621" d="M345 -12q-141 0 -215.5 75t-74.5 191q0 114 78.5 190t210.5 76q101 0 167 -53.5t66 -116.5q0 -29 -20.5 -49.5t-49.5 -20.5t-49 20.5t-20 49.5q0 28 20 48.5t49 20.5q7 0 10 -1q-20 44 -67 68.5t-94 24.5q-66 0 -109.5 -38t-60.5 -93.5t-17 -125.5q0 -115 44.5 -185.5 t131.5 -70.5q119 0 158 133q6 21 22.5 26t28 -7t4.5 -32q-22 -64 -87 -97t-126 -33zM345 568q-1 0 -2 1l-134 166q-1 2 1 3t4 0l131 -105l131 105q2 1 4 0t1 -3l-134 -166q-1 -1 -2 -1z" />
<glyph unicode="&#x10e;" horiz-adv-x="855" d="M39 0v8q47 0 64 20t17 63v642q0 42 -17 60.5t-65 18.5v8h202q279 0 417.5 -105t138.5 -287q0 -90 -33 -165.5t-98.5 -135.5t-174.5 -93.5t-251 -33.5h-200zM240 812h-12v-804h11q115 0 201.5 32t138 89.5t77 132.5t25.5 167q0 383 -441 383zM379 888q-1 0 -2 1l-134 166 q-1 2 1 3t4 0l131 -105l131 105q2 1 4 0t1 -3l-134 -166q-1 -1 -2 -1z" />
<glyph unicode="&#x10f;" horiz-adv-x="763" d="M307 -6q-99 0 -174.5 68.5t-75.5 186.5q0 121 76.5 196.5t179.5 75.5q153 0 199 -154q0 11 0.5 144.5t0.5 229v140.5q-2 49 -39 49q-19 0 -32 -13t-17.5 -28.5t-10 -28.5t-11.5 -13q-12 0 -12 11q0 26 35 57.5t76 31.5q56 0 89.5 -39t33.5 -98l-3 -753q0 -51 31 -51 q16 0 28 15.5t19 31t11 15.5q9 0 9 -10q0 -19 -27.5 -41.5t-70.5 -22.5q-52 0 -81 39.5t-29 100.5v16q-26 -72 -80 -114t-125 -42zM331 9q74 0 129 70.5t55 176.5v2q-1 122 -53.5 185t-115.5 63q-73 0 -126 -61t-53 -188t48.5 -187.5t115.5 -60.5zM710 695l1 2 q35 12 51.5 39t14.5 55q-16 -23 -45 -23q-22 0 -38.5 14.5t-16.5 35.5q0 27 17.5 42.5t42.5 15.5q33 0 52 -23t19 -58q0 -41 -35 -70.5t-63 -29.5z" />
<glyph unicode="&#x110;" horiz-adv-x="855" d="M43 407v12h77v314q0 42 -17 60.5t-65 18.5v8h202q279 0 417.5 -105t138.5 -287q0 -90 -33 -165.5t-98.5 -135.5t-174.5 -93.5t-251 -33.5h-200v8q47 0 64 20t17 63v316h-77zM240 812h-12v-393h152v-12h-152v-399h11q115 0 201.5 32t138 89.5t77 132.5t25.5 167 q0 383 -441 383z" />
<glyph unicode="&#x111;" horiz-adv-x="723" d="M384 662v13h129v206q-2 49 -39 49q-19 0 -32 -13t-17.5 -28.5t-10 -28.5t-11.5 -13q-12 0 -12 11q0 26 35 57.5t76 31.5q56 0 89.5 -39t33.5 -98v-135h83v-13h-84l-2 -605q0 -51 31 -51q16 0 28 15.5t19 31t11 15.5q9 0 9 -10q0 -19 -27.5 -41.5t-70.5 -22.5 q-52 0 -81 39.5t-29 100.5v16q-26 -72 -80 -114t-125 -42q-99 0 -174.5 68.5t-75.5 186.5q0 121 76.5 196.5t179.5 75.5q153 0 199 -154q0 163 1 295h-129zM331 9q74 0 129 70.5t55 176.5v2q-1 122 -53.5 185t-115.5 63q-73 0 -126 -61t-53 -188t48.5 -187.5t115.5 -60.5z " />
<glyph unicode="&#x112;" horiz-adv-x="778" d="M521 234q0 106 -54.5 149t-164.5 43h-74v-418h223q67 0 117.5 28t76.5 71t38.5 83t13.5 77h9v-267h-667v8q47 0 64 20t17 63v642q0 42 -17 60.5t-65 18.5v8h668v-231h-9q-1 35 -13 71t-36.5 71.5t-71 58t-107.5 22.5h-241v-378h74q219 0 219 182h9v-382h-9zM280 932v32 h286v-32h-286z" />
<glyph unicode="&#x113;" horiz-adv-x="641" d="M351 -12q-139 0 -217.5 75.5t-78.5 190.5q0 112 82 189.5t210 77.5q106 0 178.5 -63t72.5 -141q0 -13 -17 -13h-410q-2 -34 -2 -50q0 -116 43 -186.5t139 -70.5q52 0 104.5 24.5t74.5 67.5h-9q-29 0 -49 20.5t-20 48.5q0 29 20 49.5t49 20.5t49.5 -20.5t20.5 -49.5 q0 -61 -71.5 -115.5t-168.5 -54.5zM347 513q-75 0 -119.5 -55t-55.5 -145h312q-1 90 -35.5 145t-101.5 55zM207 640v32h286v-32h-286z" />
<glyph unicode="&#x114;" horiz-adv-x="778" d="M521 234q0 106 -54.5 149t-164.5 43h-74v-418h223q67 0 117.5 28t76.5 71t38.5 83t13.5 77h9v-267h-667v8q47 0 64 20t17 63v642q0 42 -17 60.5t-65 18.5v8h668v-231h-9q-1 35 -13 71t-36.5 71.5t-71 58t-107.5 22.5h-241v-378h74q219 0 219 182h9v-382h-9zM421 874 q-70 0 -107 41.5t-37 101.5h7q0 -35 40 -56t97 -21t97 21t40 56h7q0 -60 -37 -101.5t-107 -41.5z" />
<glyph unicode="&#x115;" horiz-adv-x="641" d="M351 -12q-139 0 -217.5 75.5t-78.5 190.5q0 112 82 189.5t210 77.5q106 0 178.5 -63t72.5 -141q0 -13 -17 -13h-410q-2 -34 -2 -50q0 -116 43 -186.5t139 -70.5q52 0 104.5 24.5t74.5 67.5h-9q-29 0 -49 20.5t-20 48.5q0 29 20 49.5t49 20.5t49.5 -20.5t20.5 -49.5 q0 -61 -71.5 -115.5t-168.5 -54.5zM347 513q-75 0 -119.5 -55t-55.5 -145h312q-1 90 -35.5 145t-101.5 55zM349 583q-70 0 -107 41.5t-37 101.5h7q0 -35 40 -56t97 -21t97 21t40 56h7q0 -60 -37 -101.5t-107 -41.5z" />
<glyph unicode="&#x116;" horiz-adv-x="778" d="M521 234q0 106 -54.5 149t-164.5 43h-74v-418h223q67 0 117.5 28t76.5 71t38.5 83t13.5 77h9v-267h-667v8q47 0 64 20t17 63v642q0 42 -17 60.5t-65 18.5v8h668v-231h-9q-1 35 -13 71t-36.5 71.5t-71 58t-107.5 22.5h-241v-378h74q219 0 219 182h9v-382h-9zM422 881 q-22 0 -39.5 17t-17.5 37t17 38t39 18t38 -17t16 -39q0 -20 -16.5 -37t-36.5 -17z" />
<glyph unicode="&#x117;" horiz-adv-x="641" d="M351 -12q-139 0 -217.5 75.5t-78.5 190.5q0 112 82 189.5t210 77.5q106 0 178.5 -63t72.5 -141q0 -13 -17 -13h-410q-2 -34 -2 -50q0 -116 43 -186.5t139 -70.5q52 0 104.5 24.5t74.5 67.5h-9q-29 0 -49 20.5t-20 48.5q0 29 20 49.5t49 20.5t49.5 -20.5t20.5 -49.5 q0 -61 -71.5 -115.5t-168.5 -54.5zM347 513q-75 0 -119.5 -55t-55.5 -145h312q-1 90 -35.5 145t-101.5 55zM351 590q-22 0 -39.5 17t-17.5 37t17 38t39 18t38 -17t16 -39q0 -20 -16.5 -37t-36.5 -17z" />
<glyph unicode="&#x118;" horiz-adv-x="778" d="M630 -205q-41 0 -63 19t-22 47q0 24 16 45t35.5 33t52.5 30.5t50 30.5h-660v8q47 0 64 20t17 63v642q0 42 -17 60.5t-65 18.5v8h668v-231h-9q-1 35 -13 71t-36.5 71.5t-71 58t-107.5 22.5h-241v-378h74q219 0 219 182h9v-382h-9q0 106 -54.5 149t-164.5 43h-74v-418h223 q67 0 117.5 28t76.5 71t38.5 83t13.5 77h9v-267q-2 -2 -22 -18t-31.5 -27t-23 -33.5t-11.5 -47.5q0 -27 10.5 -46.5t29.5 -19.5q20 0 31.5 18t16.5 36t9 18q15 0 7 -23q-22 -62 -92 -62z" />
<glyph unicode="&#x119;" horiz-adv-x="641" d="M345 -202q-41 0 -63 19t-22 47q0 18 7.5 33.5t23.5 29t30 22t38.5 22t36.5 21.5q-19 -4 -45 -4q-139 0 -217.5 75.5t-78.5 190.5q0 112 82 189.5t210 77.5q106 0 178.5 -63t72.5 -141q0 -13 -17 -13h-410q-2 -34 -2 -50q0 -116 43 -186.5t139 -70.5q52 0 104.5 24.5 t74.5 67.5h-9q-29 0 -49 20.5t-20 48.5q0 29 20 49.5t49 20.5t49.5 -20.5t20.5 -49.5q0 -51 -52 -99.5t-129 -64.5q-23 -17 -34.5 -27t-27 -36t-15.5 -54q0 -27 10.5 -46.5t29.5 -19.5q20 0 31.5 18t16.5 36t9 18q15 0 7 -23q-22 -62 -92 -62zM347 513q-75 0 -119.5 -55 t-55.5 -145h312q-1 90 -35.5 145t-101.5 55z" />
<glyph unicode="&#x11a;" horiz-adv-x="778" d="M521 234q0 106 -54.5 149t-164.5 43h-74v-418h223q67 0 117.5 28t76.5 71t38.5 83t13.5 77h9v-267h-667v8q47 0 64 20t17 63v642q0 42 -17 60.5t-65 18.5v8h668v-231h-9q-1 35 -13 71t-36.5 71.5t-71 58t-107.5 22.5h-241v-378h74q219 0 219 182h9v-382h-9zM408 868 q-1 0 -2 1l-134 166q-1 2 1 3t4 0l131 -105l131 105q2 1 4 0t1 -3l-134 -166q-1 -1 -2 -1z" />
<glyph unicode="&#x11b;" horiz-adv-x="641" d="M351 -12q-139 0 -217.5 75.5t-78.5 190.5q0 112 82 189.5t210 77.5q106 0 178.5 -63t72.5 -141q0 -13 -17 -13h-410q-2 -34 -2 -50q0 -116 43 -186.5t139 -70.5q52 0 104.5 24.5t74.5 67.5h-9q-29 0 -49 20.5t-20 48.5q0 29 20 49.5t49 20.5t49.5 -20.5t20.5 -49.5 q0 -61 -71.5 -115.5t-168.5 -54.5zM347 513q-75 0 -119.5 -55t-55.5 -145h312q-1 90 -35.5 145t-101.5 55zM355 573q-1 0 -2 1l-134 166q-1 2 1 3t4 0l131 -105l131 105q2 1 4 0t1 -3l-134 -166q-1 -1 -2 -1z" />
<glyph unicode="&#x11c;" horiz-adv-x="865" d="M448 -15q-173 0 -280 122.5t-107 302.5q0 181 116.5 303t305.5 122q133 0 211 -66t78 -155q0 -45 -23 -70.5t-59 -25.5q-32 0 -56 24t-24 56t24 55.5t56 23.5q15 0 32 -8q-12 71 -75.5 114.5t-163.5 43.5q-141 0 -223 -118.5t-82 -298.5q0 -117 31.5 -211t93.5 -150 t145 -56q87 0 140.5 55.5t53.5 143.5q0 27 -0.5 41t-4.5 38.5t-12 37.5t-24.5 23.5t-40.5 10.5v10h256v-10q-38 0 -53 -28t-15 -98v-217h-10q3 61 -56 61q-33 0 -64.5 -19t-72.5 -38t-97 -19zM359 873q-2 -1 -4 0t-1 3l134 166q1 1 2 1t2 -1l134 -166q1 -2 -1 -3t-4 0 l-131 105z" />
<glyph unicode="&#x11d;" horiz-adv-x="703" d="M317 -321q-92 0 -153.5 53t-61.5 112q0 35 22 60.5t55 24.5t53 -21.5t20 -52.5q0 -34 -21 -54.5t-56 -20.5q-13 0 -25 5q14 -42 58 -69t113 -27q70 0 114.5 45.5t60 106.5t15.5 136v170q-25 -73 -81 -115t-134 -42q-92 0 -166.5 70t-74.5 193q0 115 77 189.5t180 74.5 q149 0 199 -154v70q0 40 16 60t37 20q22 0 39.5 -19t17.5 -61v-372q0 -188 -86.5 -285t-217.5 -97zM319 6q82 0 140.5 71t57.5 178q-1 121 -56.5 184.5t-119.5 63.5q-73 0 -124.5 -61t-51.5 -188q0 -125 47.5 -186.5t106.5 -61.5zM210 571q-2 -1 -4 0t-1 3l134 166q1 1 2 1 t2 -1l134 -166q1 -2 -1 -3t-4 0l-131 105z" />
<glyph unicode="&#x11e;" horiz-adv-x="865" d="M448 -15q-173 0 -280 122.5t-107 302.5q0 181 116.5 303t305.5 122q133 0 211 -66t78 -155q0 -45 -23 -70.5t-59 -25.5q-32 0 -56 24t-24 56t24 55.5t56 23.5q15 0 32 -8q-12 71 -75.5 114.5t-163.5 43.5q-141 0 -223 -118.5t-82 -298.5q0 -117 31.5 -211t93.5 -150 t145 -56q87 0 140.5 55.5t53.5 143.5q0 27 -0.5 41t-4.5 38.5t-12 37.5t-24.5 23.5t-40.5 10.5v10h256v-10q-38 0 -53 -28t-15 -98v-217h-10q3 61 -56 61q-33 0 -64.5 -19t-72.5 -38t-97 -19zM485 884q-70 0 -107 41.5t-37 101.5h7q0 -35 40 -56t97 -21t97 21t40 56h7 q0 -60 -37 -101.5t-107 -41.5z" />
<glyph unicode="&#x11f;" horiz-adv-x="703" d="M317 -321q-92 0 -153.5 53t-61.5 112q0 35 22 60.5t55 24.5t53 -21.5t20 -52.5q0 -34 -21 -54.5t-56 -20.5q-13 0 -25 5q14 -42 58 -69t113 -27q70 0 114.5 45.5t60 106.5t15.5 136v170q-25 -73 -81 -115t-134 -42q-92 0 -166.5 70t-74.5 193q0 115 77 189.5t180 74.5 q149 0 199 -154v70q0 40 16 60t37 20q22 0 39.5 -19t17.5 -61v-372q0 -188 -86.5 -285t-217.5 -97zM319 6q82 0 140.5 71t57.5 178q-1 121 -56.5 184.5t-119.5 63.5q-73 0 -124.5 -61t-51.5 -188q0 -125 47.5 -186.5t106.5 -61.5zM354 582q-70 0 -107 41.5t-37 101.5h7 q0 -35 40 -56t97 -21t97 21t40 56h7q0 -60 -37 -101.5t-107 -41.5z" />
<glyph unicode="&#x120;" horiz-adv-x="865" d="M448 -15q-173 0 -280 122.5t-107 302.5q0 181 116.5 303t305.5 122q133 0 211 -66t78 -155q0 -45 -23 -70.5t-59 -25.5q-32 0 -56 24t-24 56t24 55.5t56 23.5q15 0 32 -8q-12 71 -75.5 114.5t-163.5 43.5q-141 0 -223 -118.5t-82 -298.5q0 -117 31.5 -211t93.5 -150 t145 -56q87 0 140.5 55.5t53.5 143.5q0 27 -0.5 41t-4.5 38.5t-12 37.5t-24.5 23.5t-40.5 10.5v10h256v-10q-38 0 -53 -28t-15 -98v-217h-10q3 61 -56 61q-33 0 -64.5 -19t-72.5 -38t-97 -19zM481 895q-22 0 -39.5 17t-17.5 37t17 38t39 18t38 -17t16 -39q0 -20 -16.5 -37 t-36.5 -17z" />
<glyph unicode="&#x121;" horiz-adv-x="703" d="M317 -321q-92 0 -153.5 53t-61.5 112q0 35 22 60.5t55 24.5t53 -21.5t20 -52.5q0 -34 -21 -54.5t-56 -20.5q-13 0 -25 5q14 -42 58 -69t113 -27q70 0 114.5 45.5t60 106.5t15.5 136v170q-25 -73 -81 -115t-134 -42q-92 0 -166.5 70t-74.5 193q0 115 77 189.5t180 74.5 q149 0 199 -154v70q0 40 16 60t37 20q22 0 39.5 -19t17.5 -61v-372q0 -188 -86.5 -285t-217.5 -97zM319 6q82 0 140.5 71t57.5 178q-1 121 -56.5 184.5t-119.5 63.5q-73 0 -124.5 -61t-51.5 -188q0 -125 47.5 -186.5t106.5 -61.5zM357 598q-22 0 -39.5 17t-17.5 37t17 38 t39 18t38 -17t16 -39q0 -20 -16.5 -37t-36.5 -17z" />
<glyph unicode="&#x122;" horiz-adv-x="865" d="M448 -15q-173 0 -280 122.5t-107 302.5q0 181 116.5 303t305.5 122q133 0 211 -66t78 -155q0 -45 -23 -70.5t-59 -25.5q-32 0 -56 24t-24 56t24 55.5t56 23.5q15 0 32 -8q-12 71 -75.5 114.5t-163.5 43.5q-141 0 -223 -118.5t-82 -298.5q0 -117 31.5 -211t93.5 -150 t145 -56q87 0 140.5 55.5t53.5 143.5q0 27 -0.5 41t-4.5 38.5t-12 37.5t-24.5 23.5t-40.5 10.5v10h256v-10q-38 0 -53 -28t-15 -98v-217h-10q3 61 -56 61q-33 0 -64.5 -19t-72.5 -38t-97 -19zM425 -235l1 2q35 12 51.5 39t14.5 55q-16 -23 -45 -23q-22 0 -38.5 14.5 t-16.5 35.5q0 27 17.5 42.5t42.5 15.5q33 0 52 -23t19 -58q0 -41 -35 -70.5t-63 -29.5z" />
<glyph unicode="&#x123;" horiz-adv-x="703" d="M317 -321q-92 0 -153.5 53t-61.5 112q0 35 22 60.5t55 24.5t53 -21.5t20 -52.5q0 -34 -21 -54.5t-56 -20.5q-13 0 -25 5q14 -42 58 -69t113 -27q70 0 114.5 45.5t60 106.5t15.5 136v170q-25 -73 -81 -115t-134 -42q-92 0 -166.5 70t-74.5 193q0 115 77 189.5t180 74.5 q149 0 199 -154v70q0 40 16 60t37 20q22 0 39.5 -19t17.5 -61v-372q0 -188 -86.5 -285t-217.5 -97zM319 6q82 0 140.5 71t57.5 178q-1 121 -56.5 184.5t-119.5 63.5q-73 0 -124.5 -61t-51.5 -188q0 -125 47.5 -186.5t106.5 -61.5zM383 766l-1 -2q-35 -12 -51.5 -39 t-14.5 -55q16 23 45 23q22 0 38.5 -14.5t16.5 -35.5q0 -27 -17.5 -42.5t-42.5 -15.5q-33 0 -52 23t-19 58q0 41 35 70.5t63 29.5z" />
<glyph unicode="&#x124;" horiz-adv-x="912" d="M603 0v8q47 0 64 20t17 63v312h-456v-312q0 -43 17 -63t64 -20v-8h-270v8q47 0 64 20t17 63v642q0 42 -17 60.5t-65 18.5v8h272v-8q-48 0 -65 -18.5t-17 -60.5v-321h456v321q0 42 -17 60.5t-65 18.5v8h272v-8q-48 0 -65 -18.5t-17 -60.5v-642q0 -43 17 -63t64 -20v-8 h-270zM329 882q-2 -1 -4 0t-1 3l134 166q1 1 2 1t2 -1l134 -166q1 -2 -1 -3t-4 0l-131 105z" />
<glyph unicode="&#x125;" horiz-adv-x="707" d="M633 -10q-51 0 -92.5 35.5t-41.5 110.5l3 160v-1q0 113 -22 157.5t-84 44.5q-33 0 -65 -16t-62 -49t-48.5 -94t-18.5 -141v-140q1 -59 35 -59q19 0 30 16.5t16.5 33t10.5 16.5q9 0 9 -11q0 -26 -24.5 -44.5t-55.5 -18.5q-51 0 -91 37t-40 97v765q0 51 -31 51 q-16 0 -28 -15.5t-19 -31t-11 -15.5q-9 0 -9 10q0 19 27.5 41.5t70.5 22.5q49 0 80.5 -40t31.5 -100v-506q11 61 36 105t56 65.5t60 30.5t57 9q92 0 145.5 -52t53.5 -160v-251q0 -27 11 -41t27 -14q17 0 27 16.5t15 33t11 16.5q9 0 9 -11q0 -26 -22 -44.5t-57 -18.5zM13 967 q-2 -1 -4 0t-1 3l134 166q1 1 2 1t2 -1l134 -166q1 -2 -1 -3t-4 0l-131 105z" />
<glyph unicode="&#x126;" horiz-adv-x="912" d="M35 603v9h85v121q0 42 -17 60.5t-65 18.5v8h272v-8q-48 0 -65 -18.5t-17 -60.5v-121h456v121q0 42 -17 60.5t-65 18.5v8h272v-8q-48 0 -65 -18.5t-17 -60.5v-121h91v-9h-91v-512q0 -43 17 -63t64 -20v-8h-270v8q47 0 64 20t17 63v312h-456v-312q0 -43 17 -63t64 -20v-8 h-270v8q47 0 64 20t17 63v512h-85zM228 412h456v191h-456v-191z" />
<glyph unicode="&#x127;" horiz-adv-x="707" d="M633 -10q-51 0 -91.5 35.5t-40.5 110.5q0 26 0.5 81t0.5 82q0 103 -23 150.5t-83 47.5q-33 0 -65 -16t-62 -49t-48.5 -94t-18.5 -141v-140q0 -59 35 -59q19 0 30 16.5t16.5 33t10.5 16.5q9 0 9 -11q0 -26 -24.5 -44.5t-55.5 -18.5q-51 0 -91 37t-40 97v765q0 51 -31 51 q-16 0 -28 -15.5t-19 -31t-11 -15.5q-9 0 -9 10q0 19 27.5 41.5t70.5 22.5q49 0 80.5 -40t31.5 -100v-137h401v-13h-401v-356q11 61 36 105t56 65.5t60 30.5t57 9q92 0 145.5 -52t53.5 -160v-251q0 -27 11 -41t27 -14q17 0 27 16.5t15 33t11 16.5q9 0 9 -11q0 -26 -22 -44.5 t-57 -18.5z" />
<glyph unicode="&#x128;" horiz-adv-x="358" d="M43 0v8q48 0 65 19t17 61v644q0 42 -17 61t-65 19v8h272v-8q-48 0 -65 -19t-17 -61v-644q0 -42 17 -61t65 -19v-8h-272zM49 878q-9 0 -9 11q0 109 74 109q33 0 97 -32.5t84 -32.5q19 0 22 16.5t-1.5 31t3.5 16.5q9 0 9 -11q0 -47 -21 -78t-55 -31q-35 0 -97.5 31.5 t-87.5 31.5q-16 0 -17.5 -16t3 -30t-3.5 -16z" />
<glyph unicode="&#x129;" horiz-adv-x="306" d="M1 590q-9 0 -9 11q0 109 74 109q33 0 97 -32.5t84 -32.5q19 0 22 16.5t-1.5 31t3.5 16.5q9 0 9 -11q0 -47 -21 -78t-55 -31q-35 0 -97.5 31.5t-87.5 31.5q-16 0 -17.5 -16t3 -30t-3.5 -16zM228 -8q-50 0 -92.5 36.5t-42.5 106.5q-1 33 -1 90t0.5 123t0.5 86q0 72 -35 72 q-15 0 -25 -16t-16.5 -32t-13.5 -16q-9 0 -9 10q0 18 26 41t60 23q60 0 92.5 -35t32.5 -98v-320q0 -62 39 -62q19 0 30 19.5t17 39t13 19.5q9 0 9 -12q0 -31 -25 -53t-60 -22z" />
<glyph unicode="&#x12a;" horiz-adv-x="358" d="M43 0v8q48 0 65 19t17 61v644q0 42 -17 61t-65 19v8h272v-8q-48 0 -65 -19t-17 -61v-644q0 -42 17 -61t65 -19v-8h-272zM36 942v32h286v-32h-286z" />
<glyph unicode="&#x12b;" horiz-adv-x="306" d="M-22 643v32h286v-32h-286zM228 -8q-50 0 -92.5 36.5t-42.5 106.5q-1 33 -1 90t0.5 123t0.5 86q0 72 -35 72q-15 0 -25 -16t-16.5 -32t-13.5 -16q-9 0 -9 10q0 18 26 41t60 23q60 0 92.5 -35t32.5 -98v-320q0 -62 39 -62q19 0 30 19.5t17 39t13 19.5q9 0 9 -12 q0 -31 -25 -53t-60 -22z" />
<glyph unicode="&#x12c;" horiz-adv-x="358" d="M43 0v8q48 0 65 19t17 61v644q0 42 -17 61t-65 19v8h272v-8q-48 0 -65 -19t-17 -61v-644q0 -42 17 -61t65 -19v-8h-272zM181 891q-70 0 -107 41.5t-37 101.5h7q0 -35 40 -56t97 -21t97 21t40 56h7q0 -60 -37 -101.5t-107 -41.5z" />
<glyph unicode="&#x12d;" horiz-adv-x="306" d="M136 584q-70 0 -107 41.5t-37 101.5h7q0 -35 40 -56t97 -21t97 21t40 56h7q0 -60 -37 -101.5t-107 -41.5zM228 -8q-50 0 -92.5 36.5t-42.5 106.5q-1 33 -1 90t0.5 123t0.5 86q0 72 -35 72q-15 0 -25 -16t-16.5 -32t-13.5 -16q-9 0 -9 10q0 18 26 41t60 23q60 0 92.5 -35 t32.5 -98v-320q0 -62 39 -62q19 0 30 19.5t17 39t13 19.5q9 0 9 -12q0 -31 -25 -53t-60 -22z" />
<glyph unicode="&#x12e;" horiz-adv-x="358" d="M43 0v8q48 0 65 19t17 61v644q0 42 -17 61t-65 19v8h272v-8q-48 0 -65 -19t-17 -61v-644q0 -42 17 -61t65 -19v-8h-3q-1 -1 -22.5 -18t-31.5 -27t-21.5 -33t-11.5 -47q0 -27 10.5 -46.5t29.5 -19.5q20 0 31.5 18t16.5 36t9 18q15 0 7 -23q-22 -62 -92 -62q-41 0 -63 19 t-22 47q0 25 16 45.5t35 32.5t51.5 30.5t49.5 29.5h-261z" />
<glyph unicode="&#x12f;" horiz-adv-x="305" d="M208 -195q-41 0 -63 19t-22 47q0 18 6 32t23.5 28.5t27 21t37.5 22t35 19.5q-14 -2 -20 -2q-50 0 -92.5 36.5t-42.5 106.5q-1 33 -1 90t0.5 123t0.5 86q0 72 -35 72q-15 0 -25 -16t-16.5 -32t-13.5 -16q-9 0 -9 10q0 18 26 41t60 23q60 0 92.5 -35t32.5 -98v-320 q0 -62 39 -62q19 0 30 19.5t17 39t13 19.5q9 0 9 -12q0 -44 -44 -66q-18 -14 -25 -19.5t-22.5 -22t-22.5 -35t-7 -40.5q0 -27 10.5 -46.5t29.5 -19.5q20 0 31.5 18t16.5 36t9 18q15 0 7 -23q-22 -62 -92 -62zM137 619q-29 0 -49 20.5t-20 49.5t20 49.5t49 20.5t49.5 -20.5 t20.5 -49.5t-20.5 -49.5t-49.5 -20.5z" />
<glyph unicode="&#x130;" horiz-adv-x="358" d="M43 0v8q48 0 65 19t17 61v644q0 42 -17 61t-65 19v8h272v-8q-48 0 -65 -19t-17 -61v-644q0 -42 17 -61t65 -19v-8h-272zM181 877q-22 0 -39.5 17t-17.5 37t17 38t39 18t38 -17t16 -39q0 -20 -16.5 -37t-36.5 -17z" />
<glyph unicode="&#x131;" horiz-adv-x="306" d="M228 -8q-50 0 -92.5 36.5t-42.5 106.5q-1 33 -1 90t0.5 123t0.5 86q0 72 -35 72q-15 0 -25 -16t-16.5 -32t-13.5 -16q-9 0 -9 10q0 18 26 41t60 23q60 0 92.5 -35t32.5 -98v-320q0 -62 39 -62q19 0 30 19.5t17 39t13 19.5q9 0 9 -12q0 -31 -25 -53t-60 -22z" />
<glyph unicode="&#x134;" horiz-adv-x="701" d="M280 -13q-102 0 -168.5 65.5t-66.5 140.5q0 50 26.5 82.5t70.5 32.5q37 0 66 -25.5t29 -62.5q0 -39 -28.5 -66.5t-69.5 -27.5q-30 0 -56 18q5 -65 54 -99.5t118 -34.5q107 0 163 70t56 209v443q0 42 -17 61t-65 19v8h272v-8q-48 0 -65 -19t-17 -61v-401q0 -162 -79 -253 t-223 -91zM396 871q-2 -1 -4 0t-1 3l134 166q1 1 2 1t2 -1l134 -166q1 -2 -1 -3t-4 0l-131 105z" />
<glyph unicode="&#x135;" horiz-adv-x="300" d="M-94 -321q-92 0 -150.5 51.5t-58.5 110.5q0 32 20 55.5t51 22.5q30 -1 48.5 -19.5t18.5 -48.5q0 -31 -19.5 -50t-51.5 -19q-10 0 -17 3q14 -41 55.5 -68.5t107.5 -27.5q70 0 114.5 45.5t60 106.5t15.5 136v466q0 70 53 70q26 0 41.5 -13.5t15.5 -54.5v-384 q0 -188 -86.5 -285t-217.5 -97zM27 569q-2 -1 -4 0t-1 3l134 166q1 1 2 1t2 -1l134 -166q1 -2 -1 -3t-4 0l-131 105z" />
<glyph unicode="&#x136;" horiz-adv-x="832" d="M505 0v8q55 0 60 26t-31 81l-163 268h-143v-295q0 -42 16.5 -61t64.5 -19v-8h-270v8q48 0 64.5 19t16.5 61v644q0 42 -17 61t-65 19v8h272v-8q-48 0 -65 -19t-17 -61v-340h112q63 0 127 19t119.5 53.5t92.5 91.5t43 126q-16 -8 -34 -8q-31 0 -53.5 22t-22.5 55 q0 32 21.5 55t52.5 23q43 0 69.5 -28.5t21.5 -86.5q-8 -89 -88.5 -181t-208.5 -128l187 -296q33 -52 63 -75.5t70 -24.5v-4v-3v-2h-295zM379 -229l1 2q35 12 51.5 39t14.5 55q-16 -23 -45 -23q-22 0 -38.5 14.5t-16.5 35.5q0 27 17.5 42.5t42.5 15.5q33 0 52 -23t19 -58 q0 -41 -35 -70.5t-63 -29.5z" />
<glyph unicode="&#x137;" horiz-adv-x="650" d="M200 -10q-45 0 -76 34.5t-31 104.5v763q0 25 -8.5 35.5t-28.5 10.5q-17 0 -26.5 -17t-15 -33.5t-11.5 -16.5q-7 0 -7 8q0 26 25.5 49t67.5 23q47 0 76.5 -28t29.5 -81q0 -13 -0.5 -203.5t-0.5 -311.5q24 83 86.5 138t153.5 55q63 0 106 -26t43 -77q0 -141 -300 -152 q61 -4 108 -32.5t74 -66t47 -74.5t38.5 -62.5t36.5 -25.5q19 0 27.5 16.5t12 33t9.5 16.5q8 0 8 -12q0 -30 -27.5 -49t-66.5 -19q-41 0 -74.5 19.5t-54.5 49t-45 64t-46 64t-57.5 50.5t-78.5 22v-210q0 -21 12 -34t28 -13q21 0 30 17t12 34t9 17q8 0 8 -12q0 -30 -27 -49 t-66 -19zM374 483q-57 0 -113 -60t-67 -149v-6q275 9 275 129q0 86 -95 86zM317 -217l1 2q35 12 51.5 39t14.5 55q-16 -23 -45 -23q-22 0 -38.5 14.5t-16.5 35.5q0 27 17.5 42.5t42.5 15.5q33 0 52 -23t19 -58q0 -41 -35 -70.5t-63 -29.5z" />
<glyph unicode="&#x139;" horiz-adv-x="740" d="M38 0l1 8q48 0 64.5 19t16.5 61v644q0 42 -17 61t-65 19v8h272v-8q-48 0 -65 -19t-17 -61v-724h181q119 0 183.5 82t64.5 203h10v-293h-629zM170 872l-6 2l111 142q10 13 23 15.5t19 -4.5q9 -14 4.5 -25t-13.5 -17z" />
<glyph unicode="&#x13a;" horiz-adv-x="301" d="M207 -10q-46 0 -79.5 34t-33.5 98q0 34 1 371t1 397q0 50 -39 50q-19 0 -31.5 -27.5t-14.5 -27.5q-7 0 -10 3t-2 7q9 28 29.5 42t62.5 14q111 0 111 -154q0 -21 -0.5 -353.5t-0.5 -391.5q0 -21 12 -34t28 -13q21 0 30 16.5t12 32.5t9 16q8 0 8 -12q0 -30 -27 -49t-66 -19 zM77 1005l-6 2l111 142q10 13 23 15.5t19 -4.5q9 -14 4.5 -25t-13.5 -17z" />
<glyph unicode="&#x13b;" horiz-adv-x="740" d="M38 0l1 8q48 0 64.5 19t16.5 61v644q0 42 -17 61t-65 19v8h272v-8q-48 0 -65 -19t-17 -61v-724h181q119 0 183.5 82t64.5 203h10v-293h-629zM347 -239l1 2q35 12 51.5 39t14.5 55q-16 -23 -45 -23q-22 0 -38.5 14.5t-16.5 35.5q0 27 17.5 42.5t42.5 15.5q33 0 52 -23 t19 -58q0 -41 -35 -70.5t-63 -29.5z" />
<glyph unicode="&#x13c;" horiz-adv-x="301" d="M207 -10q-46 0 -79.5 34t-33.5 98q0 34 1 371t1 397q0 50 -39 50q-19 0 -31.5 -27.5t-14.5 -27.5q-7 0 -10 3t-2 7q9 28 29.5 42t62.5 14q111 0 111 -154q0 -21 -0.5 -353.5t-0.5 -391.5q0 -21 12 -34t28 -13q21 0 30 16.5t12 32.5t9 16q8 0 8 -12q0 -30 -27 -49t-66 -19 zM141 -236l1 2q35 12 51.5 39t14.5 55q-16 -23 -45 -23q-22 0 -38.5 14.5t-16.5 35.5q0 27 17.5 42.5t42.5 15.5q33 0 52 -23t19 -58q0 -41 -35 -70.5t-63 -29.5z" />
<glyph unicode="&#x13d;" horiz-adv-x="740" d="M38 0l1 8q48 0 64.5 19t16.5 61v644q0 42 -17 61t-65 19v8h272v-8q-48 0 -65 -19t-17 -61v-724h181q119 0 183.5 82t64.5 203h10v-293h-629zM567 662l1 2q35 12 51.5 39t14.5 55q-16 -23 -45 -23q-22 0 -38.5 14.5t-16.5 35.5q0 27 17.5 42.5t42.5 15.5q33 0 52 -23 t19 -58q0 -41 -35 -70.5t-63 -29.5z" />
<glyph unicode="&#x13e;" horiz-adv-x="333" d="M207 -10q-46 0 -79.5 34t-33.5 98q0 34 1 371t1 397q0 50 -39 50q-19 0 -31.5 -27.5t-14.5 -27.5q-7 0 -10 3t-2 7q9 28 29.5 42t62.5 14q111 0 111 -154q0 -21 -0.5 -353.5t-0.5 -391.5q0 -21 12 -34t28 -13q21 0 30 16.5t12 32.5t9 16q8 0 8 -12q0 -30 -27 -49t-66 -19 zM285 692l1 2q35 12 51.5 39t14.5 55q-16 -23 -45 -23q-22 0 -38.5 14.5t-16.5 35.5q0 27 17.5 42.5t42.5 15.5q33 0 52 -23t19 -58q0 -41 -35 -70.5t-63 -29.5z" />
<glyph unicode="&#x13f;" horiz-adv-x="740" d="M441 329q-25 0 -42.5 18t-17.5 43q0 26 17.5 43.5t42.5 17.5q26 0 44 -18t18 -43t-18.5 -43t-43.5 -18zM38 0l1 8q48 0 64.5 19t16.5 61v644q0 42 -17 61t-65 19v8h272v-8q-48 0 -65 -19t-17 -61v-724h181q119 0 183.5 82t64.5 203h10v-293h-629z" />
<glyph unicode="&#x140;" horiz-adv-x="370" d="M207 -10q-46 0 -79.5 34t-33.5 98q0 34 1 371t1 397q0 50 -39 50q-19 0 -31.5 -27.5t-14.5 -27.5q-7 0 -10 3t-2 7q9 28 29.5 42t62.5 14q111 0 111 -154q0 -21 -0.5 -353.5t-0.5 -391.5q0 -21 12 -34t28 -13q21 0 30 16.5t12 32.5t9 16q8 0 8 -12q0 -30 -27 -49t-66 -19 zM327 238q-22 0 -39.5 17t-17.5 37t17 38t39 18t38 -17t16 -39q0 -20 -16.5 -37t-36.5 -17z" />
<glyph unicode="&#x141;" horiz-adv-x="724" d="M12 288v11l108 42v391q0 42 -17 61t-65 19v8h272v-8q-48 0 -65 -19t-17 -61v-350l200 78v-11l-200 -78v-363h181q119 0 183.5 82t64.5 203h10v-293h-629l1 8q48 0 64.5 19t16.5 61v242z" />
<glyph unicode="&#x142;" horiz-adv-x="300" d="M10 252v15l88 33q0 118 1 342.5t1 247.5q0 50 -39 50q-19 0 -31.5 -27.5t-14.5 -27.5q-7 0 -10 3t-2 7q9 28 29.5 42t62.5 14q111 0 111 -154v-83t-0.5 -180t-0.5 -193l85 33v-15l-85 -33v-274q0 -21 12 -34t28 -13q21 0 30 16.5t12 32.5t9 16q8 0 8 -12q0 -30 -27 -49 t-66 -19q-46 0 -79.5 34t-33.5 98v163z" />
<glyph unicode="&#x143;" horiz-adv-x="852" d="M39 0v7q36 1 59.5 33t30 63t6.5 57v540q0 112 -95 112q1 2 0 6v2h187l511 -652v492q0 51 -30 101.5t-75 50.5v8h201v-8q-28 -1 -47 -18.5t-26.5 -44.5t-10.5 -47.5t-3 -40.5v-661h-17l-586 747v-579q0 -53 26 -106t70 -53v-9h-201zM437 862l-6 2l111 142q10 13 23 15.5 t19 -4.5q9 -14 4.5 -25t-13.5 -17z" />
<glyph unicode="&#x144;" horiz-adv-x="711" d="M227 -10q-51 0 -91.5 37t-40.5 97v329q0 51 -31 51q-16 0 -27 -15.5t-17.5 -31t-10.5 -15.5q-9 0 -9 10q0 19 27.5 41.5t70.5 22.5q50 0 79.5 -35.5t29.5 -94.5v-67q12 58 37 99t56.5 61t60 28.5t56.5 8.5q92 0 145.5 -52t53.5 -160v-251q0 -27 11 -41t27 -14 q17 0 27 16.5t15 33t11 16.5q9 0 9 -11q0 -26 -22 -44.5t-57 -18.5q-51 0 -92.5 35.5t-41.5 110.5l3 160v-1q0 114 -23 159.5t-89 45.5q-33 0 -64.5 -16t-60 -49t-46 -94t-17.5 -141q0 -113 1 -154q1 -23 10.5 -35.5t23.5 -12.5q19 0 30 16.5t16.5 33t10.5 16.5q9 0 9 -11 q0 -26 -24.5 -44.5t-55.5 -18.5zM341 576l-6 2l111 142q10 13 23 15.5t19 -4.5q9 -14 4.5 -25t-13.5 -17z" />
<glyph unicode="&#x145;" horiz-adv-x="852" d="M39 0v7q36 1 59.5 33t30 63t6.5 57v540q0 112 -95 112q1 2 0 6v2h187l511 -652v492q0 51 -30 101.5t-75 50.5v8h201v-8q-28 -1 -47 -18.5t-26.5 -44.5t-10.5 -47.5t-3 -40.5v-661h-17l-586 747v-579q0 -53 26 -106t70 -53v-9h-201zM389 -236l1 2q35 12 51.5 39t14.5 55 q-16 -23 -45 -23q-22 0 -38.5 14.5t-16.5 35.5q0 27 17.5 42.5t42.5 15.5q33 0 52 -23t19 -58q0 -41 -35 -70.5t-63 -29.5z" />
<glyph unicode="&#x146;" horiz-adv-x="711" d="M227 -10q-51 0 -91.5 37t-40.5 97v329q0 51 -31 51q-16 0 -27 -15.5t-17.5 -31t-10.5 -15.5q-9 0 -9 10q0 19 27.5 41.5t70.5 22.5q50 0 79.5 -35.5t29.5 -94.5v-67q12 58 37 99t56.5 61t60 28.5t56.5 8.5q92 0 145.5 -52t53.5 -160v-251q0 -27 11 -41t27 -14 q17 0 27 16.5t15 33t11 16.5q9 0 9 -11q0 -26 -22 -44.5t-57 -18.5q-51 0 -92.5 35.5t-41.5 110.5l3 160v-1q0 114 -23 159.5t-89 45.5q-33 0 -64.5 -16t-60 -49t-46 -94t-17.5 -141q0 -113 1 -154q1 -23 10.5 -35.5t23.5 -12.5q19 0 30 16.5t16.5 33t10.5 16.5q9 0 9 -11 q0 -26 -24.5 -44.5t-55.5 -18.5zM372 -211l1 2q35 12 51.5 39t14.5 55q-16 -23 -45 -23q-22 0 -38.5 14.5t-16.5 35.5q0 27 17.5 42.5t42.5 15.5q33 0 52 -23t19 -58q0 -41 -35 -70.5t-63 -29.5z" />
<glyph unicode="&#x147;" horiz-adv-x="852" d="M39 0v7q36 1 59.5 33t30 63t6.5 57v540q0 112 -95 112q1 2 0 6v2h187l511 -652v492q0 51 -30 101.5t-75 50.5v8h201v-8q-28 -1 -47 -18.5t-26.5 -44.5t-10.5 -47.5t-3 -40.5v-661h-17l-586 747v-579q0 -53 26 -106t70 -53v-9h-201zM430 862q-1 0 -2 1l-134 166q-1 2 1 3 t4 0l131 -105l131 105q2 1 4 0t1 -3l-134 -166q-1 -1 -2 -1z" />
<glyph unicode="&#x148;" horiz-adv-x="711" d="M227 -10q-51 0 -91.5 37t-40.5 97v329q0 51 -31 51q-16 0 -27 -15.5t-17.5 -31t-10.5 -15.5q-9 0 -9 10q0 19 27.5 41.5t70.5 22.5q50 0 79.5 -35.5t29.5 -94.5v-67q12 58 37 99t56.5 61t60 28.5t56.5 8.5q92 0 145.5 -52t53.5 -160v-251q0 -27 11 -41t27 -14 q17 0 27 16.5t15 33t11 16.5q9 0 9 -11q0 -26 -22 -44.5t-57 -18.5q-51 0 -92.5 35.5t-41.5 110.5l3 160v-1q0 114 -23 159.5t-89 45.5q-33 0 -64.5 -16t-60 -49t-46 -94t-17.5 -141q0 -113 1 -154q1 -23 10.5 -35.5t23.5 -12.5q19 0 30 16.5t16.5 33t10.5 16.5q9 0 9 -11 q0 -26 -24.5 -44.5t-55.5 -18.5zM369 567q-1 0 -2 1l-134 166q-1 2 1 3t4 0l131 -105l131 105q2 1 4 0t1 -3l-134 -166q-1 -1 -2 -1z" />
<glyph unicode="&#x14c;" d="M480 -7q139 0 221.5 119t82.5 298t-82.5 298t-221.5 119t-221.5 -119t-82.5 -298t82.5 -298t221.5 -119zM480 -15q-187 0 -304 122.5t-117 302.5t117 302.5t304 122.5t304 -122.5t117 -302.5t-117 -302.5t-304 -122.5zM349 948v32h286v-32h-286z" />
<glyph unicode="&#x14d;" horiz-adv-x="683" d="M341 -3q83 0 128 72.5t45 184.5t-45 185t-128 73t-127.5 -73t-44.5 -185t44.5 -184.5t127.5 -72.5zM341 -12q-124 0 -205 77t-81 189t81 189.5t205 77.5t205.5 -77.5t81.5 -189.5t-81.5 -189t-205.5 -77zM200 636v32h286v-32h-286z" />
<glyph unicode="&#x14e;" d="M480 -7q139 0 221.5 119t82.5 298t-82.5 298t-221.5 119t-221.5 -119t-82.5 -298t82.5 -298t221.5 -119zM480 -15q-187 0 -304 122.5t-117 302.5t117 302.5t304 122.5t304 -122.5t117 -302.5t-117 -302.5t-304 -122.5zM488 887q-70 0 -107 41.5t-37 101.5h7q0 -35 40 -56 t97 -21t97 21t40 56h7q0 -60 -37 -101.5t-107 -41.5z" />
<glyph unicode="&#x14f;" horiz-adv-x="683" d="M341 -3q83 0 128 72.5t45 184.5t-45 185t-128 73t-127.5 -73t-44.5 -185t44.5 -184.5t127.5 -72.5zM341 -12q-124 0 -205 77t-81 189t81 189.5t205 77.5t205.5 -77.5t81.5 -189.5t-81.5 -189t-205.5 -77zM350 593q-70 0 -107 41.5t-37 101.5h7q0 -35 40 -56t97 -21t97 21 t40 56h7q0 -60 -37 -101.5t-107 -41.5z" />
<glyph unicode="&#x150;" d="M480 -7q139 0 221.5 119t82.5 298t-82.5 298t-221.5 119t-221.5 -119t-82.5 -298t82.5 -298t221.5 -119zM480 -15q-187 0 -304 122.5t-117 302.5t117 302.5t304 122.5t304 -122.5t117 -302.5t-117 -302.5t-304 -122.5zM418 878l-6 2l115 137q25 29 38 16q15 -15 -15 -42z M555 878l-6 2l112 134q28 32 41 19q8 -7 5.5 -16.5t-7.5 -15.5t-11 -10z" />
<glyph unicode="&#x151;" horiz-adv-x="683" d="M341 -3q83 0 128 72.5t45 184.5t-45 185t-128 73t-127.5 -73t-44.5 -185t44.5 -184.5t127.5 -72.5zM341 -12q-124 0 -205 77t-81 189t81 189.5t205 77.5t205.5 -77.5t81.5 -189.5t-81.5 -189t-205.5 -77zM271 589l-6 2l115 137q25 29 38 16q15 -15 -15 -42zM408 589l-6 2 l112 134q28 32 41 19q8 -7 5.5 -16.5t-7.5 -15.5t-11 -10z" />
<glyph unicode="&#x152;" horiz-adv-x="1208" d="M951 234q0 106 -54.5 149t-164.5 43h-74v-418h223q67 0 117.5 28t76.5 71t38.5 83t13.5 77h9v-267h-639q-206 0 -323 117t-117 293q0 174 120 292t320 118h639v-231h-9q-1 35 -13 71t-36.5 71.5t-71 58t-107.5 22.5h-241v-378h74q219 0 219 182h9v-382h-9zM498 8h51v804 h-52q-152 0 -237.5 -114t-85.5 -288t86 -289t238 -113z" />
<glyph unicode="&#x153;" horiz-adv-x="1101" d="M341 -12q-124 0 -205 77t-81 189t81 189.5t205 77.5q71 0 131 -28.5t99 -79.5q39 51 100 79.5t136 28.5q104 0 175.5 -61.5t71.5 -139.5q0 -12 -15 -12h-407q-3 -27 -3 -54q0 -256 189 -256q47 0 93.5 24t66.5 67h-11q-29 0 -49 20.5t-20 48.5q0 29 20 49.5t49 20.5 t49.5 -20.5t20.5 -49.5q0 -63 -66 -116.5t-167 -53.5q-157 0 -236 103q-82 -103 -227 -103zM341 -3q83 0 128 72.5t45 184.5t-45 185t-128 73t-127.5 -73t-44.5 -185t44.5 -184.5t127.5 -72.5zM801 512q-71 0 -114 -54t-54 -142h314q-1 88 -38.5 142t-107.5 54z" />
<glyph unicode="&#x154;" horiz-adv-x="815" d="M39 0v8q48 0 64.5 19t16.5 61v645q0 42 -17 60.5t-65 18.5v8h301q187 0 292 -56t105 -168q0 -89 -80.5 -143t-226.5 -70q-1 0 -3 -3q2 -2 3 -2q130 -1 194.5 -50t64.5 -153v-79q0 -53 11 -75t35 -22q26 0 33 23.5t7 75.5q0 24 15 24q7 0 11.5 -7.5t4.5 -15.5 q0 -47 -26.5 -80.5t-75.5 -33.5q-53 0 -88 34.5t-35 101.5v85q0 47 -8.5 77t-23 48.5t-47 27.5t-69 12t-99.5 3h-105v-286q0 -42 16.5 -61t64.5 -19v-8h-270zM330 812h-102v-429h109q141 0 214 54.5t73 157.5q0 113 -73.5 165t-220.5 52zM377 894l-6 2l111 142 q10 13 23 15.5t19 -4.5q9 -14 4.5 -25t-13.5 -17z" />
<glyph unicode="&#x155;" horiz-adv-x="481" d="M208 -10q-42 0 -77.5 35t-35.5 86v343q0 26 -8 38t-29 12q-15 0 -25.5 -14t-15.5 -28t-7 -14q-11 0 -11 9q0 22 22.5 39t64.5 17q49 0 82.5 -37t33.5 -110v-83q16 114 73 174t109 60q42 0 62 -20t20 -51t-19 -50.5t-46 -19.5q-30 0 -50.5 19t-20.5 47q0 26 16 45 q-60 -17 -102 -92t-42 -222v-111q0 -30 11.5 -45t28.5 -15q21 0 30 17t12 34t9 17q8 0 8 -12q0 -30 -26.5 -49t-66.5 -19zM254 569l-6 2l111 142q10 13 23 15.5t19 -4.5q9 -14 4.5 -25t-13.5 -17z" />
<glyph unicode="&#x156;" horiz-adv-x="815" d="M39 0v8q48 0 64.5 19t16.5 61v645q0 42 -17 60.5t-65 18.5v8h301q187 0 292 -56t105 -168q0 -89 -80.5 -143t-226.5 -70q-1 0 -3 -3q2 -2 3 -2q130 -1 194.5 -50t64.5 -153v-79q0 -53 11 -75t35 -22q26 0 33 23.5t7 75.5q0 24 15 24q7 0 11.5 -7.5t4.5 -15.5 q0 -47 -26.5 -80.5t-75.5 -33.5q-53 0 -88 34.5t-35 101.5v85q0 47 -8.5 77t-23 48.5t-47 27.5t-69 12t-99.5 3h-105v-286q0 -42 16.5 -61t64.5 -19v-8h-270zM330 812h-102v-429h109q141 0 214 54.5t73 157.5q0 113 -73.5 165t-220.5 52zM374 -222l1 2q35 12 51.5 39 t14.5 55q-16 -23 -45 -23q-22 0 -38.5 14.5t-16.5 35.5q0 27 17.5 42.5t42.5 15.5q33 0 52 -23t19 -58q0 -41 -35 -70.5t-63 -29.5z" />
<glyph unicode="&#x157;" horiz-adv-x="481" d="M208 -10q-42 0 -77.5 35t-35.5 86v343q0 26 -8 38t-29 12q-15 0 -25.5 -14t-15.5 -28t-7 -14q-11 0 -11 9q0 22 22.5 39t64.5 17q49 0 82.5 -37t33.5 -110v-83q16 114 73 174t109 60q42 0 62 -20t20 -51t-19 -50.5t-46 -19.5q-30 0 -50.5 19t-20.5 47q0 26 16 45 q-60 -17 -102 -92t-42 -222v-111q0 -30 11.5 -45t28.5 -15q21 0 30 17t12 34t9 17q8 0 8 -12q0 -30 -26.5 -49t-66.5 -19zM149 -233l1 2q35 12 51.5 39t14.5 55q-16 -23 -45 -23q-22 0 -38.5 14.5t-16.5 35.5q0 27 17.5 42.5t42.5 15.5q33 0 52 -23t19 -58q0 -41 -35 -70.5 t-63 -29.5z" />
<glyph unicode="&#x158;" horiz-adv-x="815" d="M39 0v8q48 0 64.5 19t16.5 61v645q0 42 -17 60.5t-65 18.5v8h301q187 0 292 -56t105 -168q0 -89 -80.5 -143t-226.5 -70q-1 0 -3 -3q2 -2 3 -2q130 -1 194.5 -50t64.5 -153v-79q0 -53 11 -75t35 -22q26 0 33 23.5t7 75.5q0 24 15 24q7 0 11.5 -7.5t4.5 -15.5 q0 -47 -26.5 -80.5t-75.5 -33.5q-53 0 -88 34.5t-35 101.5v85q0 47 -8.5 77t-23 48.5t-47 27.5t-69 12t-99.5 3h-105v-286q0 -42 16.5 -61t64.5 -19v-8h-270zM330 812h-102v-429h109q141 0 214 54.5t73 157.5q0 113 -73.5 165t-220.5 52zM382 890q-1 0 -2 1l-134 166 q-1 2 1 3t4 0l131 -105l131 105q2 1 4 0t1 -3l-134 -166q-1 -1 -2 -1z" />
<glyph unicode="&#x159;" horiz-adv-x="481" d="M208 -10q-42 0 -77.5 35t-35.5 86v343q0 26 -8 38t-29 12q-15 0 -25.5 -14t-15.5 -28t-7 -14q-11 0 -11 9q0 22 22.5 39t64.5 17q49 0 82.5 -37t33.5 -110v-83q16 114 73 174t109 60q42 0 62 -20t20 -51t-19 -50.5t-46 -19.5q-30 0 -50.5 19t-20.5 47q0 26 16 45 q-60 -17 -102 -92t-42 -222v-111q0 -30 11.5 -45t28.5 -15q21 0 30 17t12 34t9 17q8 0 8 -12q0 -30 -26.5 -49t-66.5 -19zM271 569q-1 0 -2 1l-134 166q-1 2 1 3t4 0l131 -105l131 105q2 1 4 0t1 -3l-134 -166q-1 -1 -2 -1z" />
<glyph unicode="&#x15a;" horiz-adv-x="757" d="M372 -15q-144 0 -223 62t-79 141q0 40 23.5 64t59.5 24q35 0 56 -23.5t21 -56.5q0 -27 -21.5 -49t-50.5 -22q-28 0 -45 10q18 -63 87.5 -102t170.5 -39q97 0 155 45.5t58 134.5q0 33 -17 62t-52.5 54t-68 42.5t-83.5 42.5q-11 5 -17 8q-55 27 -89.5 47.5t-73 50.5 t-57.5 66t-19 78q0 92 84.5 151t204.5 59q129 0 202.5 -47t73.5 -123q0 -30 -18.5 -51t-46.5 -21q-31 0 -52 18.5t-21 47.5q0 26 16.5 46.5t48.5 20.5q14 0 29 -5q-19 48 -78.5 76.5t-153.5 28.5q-48 0 -90 -12t-75 -47t-33 -88q0 -32 15 -61t33 -48.5t57 -44t61.5 -36.5 t72.5 -36q45 -22 71.5 -36.5t62.5 -39t55.5 -47t34 -54t14.5 -67.5q0 -67 -46.5 -119.5t-114.5 -78.5t-142 -26zM372 886l-6 2l111 142q10 13 23 15.5t19 -4.5q9 -14 4.5 -25t-13.5 -17z" />
<glyph unicode="&#x15b;" horiz-adv-x="581" d="M294 -15q-97 0 -163.5 39t-66.5 92q0 27 20 47t48 20q27 0 47.5 -20t20.5 -47q0 -23 -15 -44t-48 -27q58 -51 157 -51q84 0 130.5 26t46.5 67q0 34 -38.5 60t-94 44.5t-111 40t-94 58t-38.5 85.5q0 65 60.5 106t165.5 41q84 0 145.5 -35.5t61.5 -79.5q0 -31 -18 -48.5 t-44 -17.5t-45 18.5t-19 43.5q0 56 62 61q-50 50 -144 50q-69 0 -107.5 -24t-38.5 -63q0 -36 38 -64t93 -47t109.5 -40t92.5 -55t38 -80q0 -67 -69.5 -111.5t-181.5 -44.5zM309 579l-6 2l111 142q10 13 23 15.5t19 -4.5q9 -14 4.5 -25t-13.5 -17z" />
<glyph unicode="&#x15c;" horiz-adv-x="757" d="M372 -15q-144 0 -223 62t-79 141q0 40 23.5 64t59.5 24q35 0 56 -23.5t21 -56.5q0 -27 -21.5 -49t-50.5 -22q-28 0 -45 10q18 -63 87.5 -102t170.5 -39q97 0 155 45.5t58 134.5q0 33 -17 62t-52.5 54t-68 42.5t-83.5 42.5q-11 5 -17 8q-55 27 -89.5 47.5t-73 50.5 t-57.5 66t-19 78q0 92 84.5 151t204.5 59q129 0 202.5 -47t73.5 -123q0 -30 -18.5 -51t-46.5 -21q-31 0 -52 18.5t-21 47.5q0 26 16.5 46.5t48.5 20.5q14 0 29 -5q-19 48 -78.5 76.5t-153.5 28.5q-48 0 -90 -12t-75 -47t-33 -88q0 -32 15 -61t33 -48.5t57 -44t61.5 -36.5 t72.5 -36q45 -22 71.5 -36.5t62.5 -39t55.5 -47t34 -54t14.5 -67.5q0 -67 -46.5 -119.5t-114.5 -78.5t-142 -26zM289 876q-2 -1 -4 0t-1 3l134 166q1 1 2 1t2 -1l134 -166q1 -2 -1 -3t-4 0l-131 105z" />
<glyph unicode="&#x15d;" horiz-adv-x="581" d="M294 -15q-97 0 -163.5 39t-66.5 92q0 27 20 47t48 20q27 0 47.5 -20t20.5 -47q0 -23 -15 -44t-48 -27q58 -51 157 -51q84 0 130.5 26t46.5 67q0 34 -38.5 60t-94 44.5t-111 40t-94 58t-38.5 85.5q0 65 60.5 106t165.5 41q84 0 145.5 -35.5t61.5 -79.5q0 -31 -18 -48.5 t-44 -17.5t-45 18.5t-19 43.5q0 56 62 61q-50 50 -144 50q-69 0 -107.5 -24t-38.5 -63q0 -36 38 -64t93 -47t109.5 -40t92.5 -55t38 -80q0 -67 -69.5 -111.5t-181.5 -44.5zM185 574q-2 -1 -4 0t-1 3l134 166q1 1 2 1t2 -1l134 -166q1 -2 -1 -3t-4 0l-131 105z" />
<glyph unicode="&#x15e;" horiz-adv-x="757" d="M391 -258q-47 0 -82 21.5t-50 48.5q-13 19 5 27q14 7 23 -16q10 -34 38 -53.5t65 -19.5q36 0 61 21t25 58q0 41 -30.5 58.5t-65.5 6.5l-10 6v85q-144 1 -222 62.5t-78 140.5q0 40 23.5 64t59.5 24q35 0 56 -23.5t21 -56.5q0 -27 -21.5 -49t-50.5 -22q-28 0 -45 10 q18 -63 87.5 -102t170.5 -39q97 0 155 45.5t58 134.5q0 33 -17 62t-52.5 54t-68 42.5t-83.5 42.5q-11 5 -17 8q-55 27 -89.5 47.5t-73 50.5t-57.5 66t-19 78q0 92 84.5 151t204.5 59q129 0 202.5 -47t73.5 -123q0 -30 -18.5 -51t-46.5 -21q-31 0 -52 18.5t-21 47.5 q0 26 16.5 46.5t48.5 20.5q14 0 29 -5q-19 48 -78.5 76.5t-153.5 28.5q-48 0 -90 -12t-75 -47t-33 -88q0 -32 15 -61t33 -48.5t57 -44t61.5 -36.5t72.5 -36q45 -22 71.5 -36.5t62.5 -39t55.5 -47t34 -54t14.5 -67.5q0 -66 -44.5 -117.5t-110.5 -78t-139 -28.5v-81 q54 12 109.5 -8t55.5 -68q0 -43 -47 -64.5t-108 -21.5z" />
<glyph unicode="&#x15f;" horiz-adv-x="581" d="M303 -258q-47 0 -82 21.5t-50 48.5q-13 19 5 27q14 7 23 -16q10 -34 38 -53.5t65 -19.5q36 0 61 21t25 58q0 41 -30.5 58.5t-65.5 6.5l-10 6v85q-93 3 -155.5 41t-62.5 90q0 27 20 47t48 20q27 0 47.5 -20t20.5 -47q0 -23 -15 -44t-48 -27q58 -51 157 -51q84 0 130.5 26 t46.5 67q0 34 -38.5 60t-94 44.5t-111 40t-94 58t-38.5 85.5q0 65 60.5 106t165.5 41q84 0 145.5 -35.5t61.5 -79.5q0 -31 -18 -48.5t-44 -17.5t-45 18.5t-19 43.5q0 56 62 61q-50 50 -144 50q-69 0 -107.5 -24t-38.5 -63q0 -36 38 -64t93 -47t109.5 -40t92.5 -55t38 -80 q0 -67 -69.5 -111.5t-181.5 -44.5h-1v-81q54 12 109.5 -8t55.5 -68q0 -43 -47 -64.5t-108 -21.5z" />
<glyph unicode="&#x160;" horiz-adv-x="757" d="M372 -15q-144 0 -223 62t-79 141q0 40 23.5 64t59.5 24q35 0 56 -23.5t21 -56.5q0 -27 -21.5 -49t-50.5 -22q-28 0 -45 10q18 -63 87.5 -102t170.5 -39q97 0 155 45.5t58 134.5q0 33 -17 62t-52.5 54t-68 42.5t-83.5 42.5q-11 5 -17 8q-55 27 -89.5 47.5t-73 50.5 t-57.5 66t-19 78q0 92 84.5 151t204.5 59q129 0 202.5 -47t73.5 -123q0 -30 -18.5 -51t-46.5 -21q-31 0 -52 18.5t-21 47.5q0 26 16.5 46.5t48.5 20.5q14 0 29 -5q-19 48 -78.5 76.5t-153.5 28.5q-48 0 -90 -12t-75 -47t-33 -88q0 -32 15 -61t33 -48.5t57 -44t61.5 -36.5 t72.5 -36q45 -22 71.5 -36.5t62.5 -39t55.5 -47t34 -54t14.5 -67.5q0 -67 -46.5 -119.5t-114.5 -78.5t-142 -26zM418 872q-1 0 -2 1l-134 166q-1 2 1 3t4 0l131 -105l131 105q2 1 4 0t1 -3l-134 -166q-1 -1 -2 -1z" />
<glyph unicode="&#x161;" horiz-adv-x="581" d="M294 -15q-97 0 -163.5 39t-66.5 92q0 27 20 47t48 20q27 0 47.5 -20t20.5 -47q0 -23 -15 -44t-48 -27q58 -51 157 -51q84 0 130.5 26t46.5 67q0 34 -38.5 60t-94 44.5t-111 40t-94 58t-38.5 85.5q0 65 60.5 106t165.5 41q84 0 145.5 -35.5t61.5 -79.5q0 -31 -18 -48.5 t-44 -17.5t-45 18.5t-19 43.5q0 56 62 61q-50 50 -144 50q-69 0 -107.5 -24t-38.5 -63q0 -36 38 -64t93 -47t109.5 -40t92.5 -55t38 -80q0 -67 -69.5 -111.5t-181.5 -44.5zM319 573q-1 0 -2 1l-134 166q-1 2 1 3t4 0l131 -105l131 105q2 1 4 0t1 -3l-134 -166q-1 -1 -2 -1z " />
<glyph unicode="&#x164;" horiz-adv-x="787" d="M65 569v251h657v-251h-10q-1 36 -13 74.5t-37 78t-71.5 65t-107.5 25.5h-33v-694q0 -62 16 -86t64 -24v-8h-270v8q49 0 65.5 24t16.5 86v549q1 138 0 145h-38q-61 0 -107.5 -25.5t-71.5 -65t-37 -78t-13 -74.5h-10zM391 879q-1 0 -2 1l-134 166q-1 2 1 3t4 0l131 -105 l131 105q2 1 4 0t1 -3l-134 -166q-1 -1 -2 -1z" />
<glyph unicode="&#x165;" horiz-adv-x="392" d="M223 -10q-56 0 -92 39.5t-36 129.5v342q-10 0 -31 -0.5t-34 -0.5q-16 0 -16 5q1 4 15 4h7q73 2 115.5 39t42.5 105q0 8 4.5 8t4.5 -8v-144q37 0 64 4t40 4q16 0 19 -14q3 -12 -15 -15q-4 -1 -9 -1q-3 0 -34.5 5.5t-57.5 6.5h-7v-441q0 -23 13.5 -39.5t38.5 -16.5 q18 0 30.5 9t18.5 20t9 30.5t3 31.5t-0.5 32.5t-0.5 24.5q0 40 33 40q14 0 21.5 -21.5t-0.5 -54.5q-16 -55 -52.5 -89.5t-93.5 -34.5zM287 598l1 2q35 12 51.5 39t14.5 55q-16 -23 -45 -23q-22 0 -38.5 14.5t-16.5 35.5q0 27 17.5 42.5t42.5 15.5q33 0 52 -23t19 -58 q0 -41 -35 -70.5t-63 -29.5z" />
<glyph unicode="&#x168;" horiz-adv-x="834" d="M429 -15q-94 0 -156.5 26.5t-95 79.5t-45 115.5t-12.5 150.5v366q0 47 -17 68t-65 21v8h272v-8q-48 0 -65 -21t-17 -68v-402q0 -159 49.5 -239.5t179.5 -80.5q111 0 180 82.5t68 245.5v323q0 54 -25.5 107t-69.5 53v8h191l-1 -7q-28 -1 -46.5 -18.5t-26.5 -45t-10.5 -48 t-2.5 -40.5v-343q0 -69 -15 -126.5t-47 -105t-89 -74.5t-134 -27zM335 902q-9 0 -9 11q0 109 74 109q33 0 97 -32.5t84 -32.5q19 0 22 16.5t-1.5 31t3.5 16.5q9 0 9 -11q0 -47 -21 -78t-55 -31q-35 0 -97.5 31.5t-87.5 31.5q-16 0 -17.5 -16t3 -30t-3.5 -16z" />
<glyph unicode="&#x169;" horiz-adv-x="699" d="M294 -10q-92 0 -145.5 52t-53.5 160v251q0 27 -11 41.5t-27 14.5q-17 0 -27 -16.5t-15 -33.5t-11 -17q-9 0 -9 11q0 26 22 44.5t57 18.5q132 0 132 -164l-1 -141q0 -113 22 -157.5t84 -44.5q71 0 128 78t57 232q0 100 -1 141q-1 23 -10.5 35.5t-23.5 12.5 q-19 0 -30 -16.5t-16.5 -33t-10.5 -16.5q-9 0 -9 11q0 26 24.5 44.5t55.5 18.5q128 0 129 -171l-1 -292q0 -51 31 -51q16 0 28 15.5t19 31t11 15.5q9 0 9 -10q0 -19 -28.5 -41.5t-69.5 -22.5q-109 0 -109 140v66q-12 -58 -36 -100.5t-53 -64.5t-56.5 -31.5t-54.5 -9.5z M193 595q-9 0 -9 11q0 109 74 109q33 0 97 -32.5t84 -32.5q19 0 22 16.5t-1.5 31t3.5 16.5q9 0 9 -11q0 -47 -21 -78t-55 -31q-35 0 -97.5 31.5t-87.5 31.5q-16 0 -17.5 -16t3 -30t-3.5 -16z" />
<glyph unicode="&#x16a;" horiz-adv-x="834" d="M429 -15q-94 0 -156.5 26.5t-95 79.5t-45 115.5t-12.5 150.5v366q0 47 -17 68t-65 21v8h272v-8q-48 0 -65 -21t-17 -68v-402q0 -159 49.5 -239.5t179.5 -80.5q111 0 180 82.5t68 245.5v323q0 54 -25.5 107t-69.5 53v8h191l-1 -7q-28 -1 -46.5 -18.5t-26.5 -45t-10.5 -48 t-2.5 -40.5v-343q0 -69 -15 -126.5t-47 -105t-89 -74.5t-134 -27zM320 944v32h286v-32h-286z" />
<glyph unicode="&#x16b;" horiz-adv-x="699" d="M294 -10q-92 0 -145.5 52t-53.5 160v251q0 27 -11 41.5t-27 14.5q-17 0 -27 -16.5t-15 -33.5t-11 -17q-9 0 -9 11q0 26 22 44.5t57 18.5q132 0 132 -164l-1 -141q0 -113 22 -157.5t84 -44.5q71 0 128 78t57 232q0 100 -1 141q-1 23 -10.5 35.5t-23.5 12.5 q-19 0 -30 -16.5t-16.5 -33t-10.5 -16.5q-9 0 -9 11q0 26 24.5 44.5t55.5 18.5q128 0 129 -171l-1 -292q0 -51 31 -51q16 0 28 15.5t19 31t11 15.5q9 0 9 -10q0 -19 -28.5 -41.5t-69.5 -22.5q-109 0 -109 140v66q-12 -58 -36 -100.5t-53 -64.5t-56.5 -31.5t-54.5 -9.5z M183 641v32h286v-32h-286z" />
<glyph unicode="&#x16c;" horiz-adv-x="834" d="M429 -15q-94 0 -156.5 26.5t-95 79.5t-45 115.5t-12.5 150.5v366q0 47 -17 68t-65 21v8h272v-8q-48 0 -65 -21t-17 -68v-402q0 -159 49.5 -239.5t179.5 -80.5q111 0 180 82.5t68 245.5v323q0 54 -25.5 107t-69.5 53v8h191l-1 -7q-28 -1 -46.5 -18.5t-26.5 -45t-10.5 -48 t-2.5 -40.5v-343q0 -69 -15 -126.5t-47 -105t-89 -74.5t-134 -27zM460 868q-70 0 -107 41.5t-37 101.5h7q0 -35 40 -56t97 -21t97 21t40 56h7q0 -60 -37 -101.5t-107 -41.5z" />
<glyph unicode="&#x16d;" horiz-adv-x="699" d="M294 -10q-92 0 -145.5 52t-53.5 160v251q0 27 -11 41.5t-27 14.5q-17 0 -27 -16.5t-15 -33.5t-11 -17q-9 0 -9 11q0 26 22 44.5t57 18.5q132 0 132 -164l-1 -141q0 -113 22 -157.5t84 -44.5q71 0 128 78t57 232q0 100 -1 141q-1 23 -10.5 35.5t-23.5 12.5 q-19 0 -30 -16.5t-16.5 -33t-10.5 -16.5q-9 0 -9 11q0 26 24.5 44.5t55.5 18.5q128 0 129 -171l-1 -292q0 -51 31 -51q16 0 28 15.5t19 31t11 15.5q9 0 9 -10q0 -19 -28.5 -41.5t-69.5 -22.5q-109 0 -109 140v66q-12 -58 -36 -100.5t-53 -64.5t-56.5 -31.5t-54.5 -9.5z M322 570q-70 0 -107 41.5t-37 101.5h7q0 -35 40 -56t97 -21t97 21t40 56h7q0 -60 -37 -101.5t-107 -41.5z" />
<glyph unicode="&#x16e;" horiz-adv-x="834" d="M429 -15q-94 0 -156.5 26.5t-95 79.5t-45 115.5t-12.5 150.5v366q0 47 -17 68t-65 21v8h272v-8q-48 0 -65 -21t-17 -68v-402q0 -159 49.5 -239.5t179.5 -80.5q111 0 180 82.5t68 245.5v323q0 54 -25.5 107t-69.5 53v8h191l-1 -7q-28 -1 -46.5 -18.5t-26.5 -45t-10.5 -48 t-2.5 -40.5v-343q0 -69 -15 -126.5t-47 -105t-89 -74.5t-134 -27zM362 934q0 38 27 65t65 27t65 -27t27 -65t-27 -65t-65 -27t-65 27t-27 65zM372 934q0 -34 24 -58t58 -24t58 24t24 58t-24 58t-58 24t-58 -24t-24 -58z" />
<glyph unicode="&#x16f;" horiz-adv-x="699" d="M294 -10q-92 0 -145.5 52t-53.5 160v251q0 27 -11 41.5t-27 14.5q-17 0 -27 -16.5t-15 -33.5t-11 -17q-9 0 -9 11q0 26 22 44.5t57 18.5q132 0 132 -164l-1 -141q0 -113 22 -157.5t84 -44.5q71 0 128 78t57 232q0 100 -1 141q-1 23 -10.5 35.5t-23.5 12.5 q-19 0 -30 -16.5t-16.5 -33t-10.5 -16.5q-9 0 -9 11q0 26 24.5 44.5t55.5 18.5q128 0 129 -171l-1 -292q0 -51 31 -51q16 0 28 15.5t19 31t11 15.5q9 0 9 -10q0 -19 -28.5 -41.5t-69.5 -22.5q-109 0 -109 140v66q-12 -58 -36 -100.5t-53 -64.5t-56.5 -31.5t-54.5 -9.5z M234 660q0 38 27 65t65 27t65 -27t27 -65t-27 -65t-65 -27t-65 27t-27 65zM244 660q0 -34 24 -58t58 -24t58 24t24 58t-24 58t-58 24t-58 -24t-24 -58z" />
<glyph unicode="&#x170;" horiz-adv-x="834" d="M429 -15q-94 0 -156.5 26.5t-95 79.5t-45 115.5t-12.5 150.5v366q0 47 -17 68t-65 21v8h272v-8q-48 0 -65 -21t-17 -68v-402q0 -159 49.5 -239.5t179.5 -80.5q111 0 180 82.5t68 245.5v323q0 54 -25.5 107t-69.5 53v8h191l-1 -7q-28 -1 -46.5 -18.5t-26.5 -45t-10.5 -48 t-2.5 -40.5v-343q0 -69 -15 -126.5t-47 -105t-89 -74.5t-134 -27zM377 870l-6 2l115 137q25 29 38 16q15 -15 -15 -42zM514 870l-6 2l112 134q28 32 41 19q8 -7 5.5 -16.5t-7.5 -15.5t-11 -10z" />
<glyph unicode="&#x171;" horiz-adv-x="699" d="M294 -10q-92 0 -145.5 52t-53.5 160v251q0 27 -11 41.5t-27 14.5q-17 0 -27 -16.5t-15 -33.5t-11 -17q-9 0 -9 11q0 26 22 44.5t57 18.5q132 0 132 -164l-1 -141q0 -113 22 -157.5t84 -44.5q71 0 128 78t57 232q0 100 -1 141q-1 23 -10.5 35.5t-23.5 12.5 q-19 0 -30 -16.5t-16.5 -33t-10.5 -16.5q-9 0 -9 11q0 26 24.5 44.5t55.5 18.5q128 0 129 -171l-1 -292q0 -51 31 -51q16 0 28 15.5t19 31t11 15.5q9 0 9 -10q0 -19 -28.5 -41.5t-69.5 -22.5q-109 0 -109 140v66q-12 -58 -36 -100.5t-53 -64.5t-56.5 -31.5t-54.5 -9.5z M242 601l-6 2l115 137q25 29 38 16q15 -15 -15 -42zM379 601l-6 2l112 134q28 32 41 19q8 -7 5.5 -16.5t-7.5 -15.5t-11 -10z" />
<glyph unicode="&#x172;" horiz-adv-x="834" d="M459 -198q-41 0 -63 19t-22 47q0 18 6.5 33t23.5 28.5t28 21.5t37.5 22t36.5 20q-38 -8 -77 -8q-94 0 -156.5 26.5t-95 79.5t-45 115.5t-12.5 150.5v366q0 47 -17 68t-65 21v8h272v-8q-48 0 -65 -21t-17 -68v-402q0 -159 49.5 -239.5t179.5 -80.5q111 0 180 82.5 t68 245.5v323q0 54 -25.5 107t-69.5 53v8h191l-1 -7q-28 -1 -46.5 -18.5t-26.5 -45t-10.5 -48t-2.5 -40.5v-343q0 -119 -46 -205.5t-145 -114.5q-44 -35 -59 -57q-17 -28 -17 -60q0 -27 10.5 -46.5t29.5 -19.5q20 0 31.5 18t16.5 36t9 18q15 0 7 -23q-22 -62 -92 -62z" />
<glyph unicode="&#x173;" horiz-adv-x="699" d="M576 -203q-41 0 -63 19t-22 47q0 19 8 34.5t24.5 29t31 22.5t39 22.5t38.5 22.5q-18 -4 -29 -4q-109 0 -109 140v66q-12 -58 -36 -100.5t-53 -64.5t-56.5 -31.5t-54.5 -9.5q-92 0 -145.5 52t-53.5 160v251q0 27 -11 41.5t-27 14.5q-17 0 -27 -16.5t-15 -33.5t-11 -17 q-9 0 -9 11q0 26 22 44.5t57 18.5q132 0 132 -164l-1 -141q0 -113 22 -157.5t84 -44.5q71 0 128 78t57 232q0 100 -1 141q-1 23 -10.5 35.5t-23.5 12.5q-19 0 -30 -16.5t-16.5 -33t-10.5 -16.5q-9 0 -9 11q0 26 24.5 44.5t55.5 18.5q128 0 129 -171l-1 -292q0 -51 31 -51 q16 0 28 15.5t19 31t11 15.5q9 0 9 -10q0 -12 -14.5 -28.5t-37.5 -25.5q-2 -2 -17.5 -13.5t-24 -20t-20.5 -22.5t-17.5 -31t-5.5 -37q0 -27 10.5 -46.5t29.5 -19.5q20 0 31.5 18t16.5 36t9 18q15 0 7 -23q-22 -62 -92 -62z" />
<glyph unicode="&#x174;" horiz-adv-x="1371" d="M920 0l-238 626l-255 -626h-60l-238 707q-18 54 -51 79t-91 26v8h351q-1 -2 -1 -8q-68 -2 -87 -34.5t1 -80.5l202 -605l224 547l-25 68q-21 56 -48.5 80.5t-74.5 24.5v8h351q-1 -2 -1 -8q-81 -3 -100 -37t15 -131l205 -547l183 479q24 65 24 122t-38 85.5t-95 28.5v4v2.5 v1.5h315v-8q-59 -1 -104.5 -58.5t-86.5 -165.5l-224 -588h-53zM570 882q-2 -1 -4 0t-1 3l134 166q1 1 2 1t2 -1l134 -166q1 -2 -1 -3t-4 0l-131 105z" />
<glyph unicode="&#x175;" horiz-adv-x="900" d="M218 0l-167 411q-18 45 -41 68t-64 22l-1 8h251v-7q-23 -2 -34.5 -11t-11.5 -25t3.5 -30.5t11.5 -34.5l124 -302l126 291l-8 21q-19 45 -41.5 68t-63.5 22l-1 8h253v-7q-25 -2 -38 -10t-13 -23.5t4 -29.5t14 -38l123 -298l120 310q-28 78 -101 88q1 2 1 4v4h209v-7 q-28 0 -60 -35.5t-47 -74.5l-151 -392h-37l-158 378l-163 -378h-39zM303 585q-2 -1 -4 0t-1 3l134 166q1 1 2 1t2 -1l134 -166q1 -2 -1 -3t-4 0l-131 105z" />
<glyph unicode="&#x176;" horiz-adv-x="824" d="M264 0v7q48 0 65 19.5t17 61.5v301l-188 339q-22 39 -50.5 60.5t-82.5 24.5q1 2 0 5v2h301l-2 -9q-58 -3 -66 -26t20 -66l170 -307l195 312q-8 32 -32 58.5t-68 29.5v8h252v-7q-33 -2 -72 -24.5t-66 -64.5l-203 -322v-314q0 -42 16.5 -61.5t63.5 -19.5v-7h-270zM299 874 q-2 -1 -4 0t-1 3l134 166q1 1 2 1t2 -1l134 -166q1 -2 -1 -3t-4 0l-131 105z" />
<glyph unicode="&#x177;" horiz-adv-x="588" d="M-21 -347q-61 0 -98.5 35.5t-37.5 85.5q0 40 21.5 66t55.5 26q31 0 51.5 -20.5t20.5 -50.5q0 -32 -20.5 -53t-51.5 -21q-10 0 -21 4q9 -29 32.5 -44t52.5 -15q102 0 175 145l88 174l-196 426q-22 51 -43 71t-62 19l-1 8h251v-7q-46 -4 -51.5 -26.5t20.5 -74.5l142 -298 l157 309q-17 42 -40.5 63t-60.5 26q1 2 1 4v4h209v-7q-27 0 -58 -35t-49 -75l-299 -590q-36 -70 -80 -109.5t-108 -39.5zM160 597q-2 -1 -4 0t-1 3l134 166q1 1 2 1t2 -1l134 -166q1 -2 -1 -3t-4 0l-131 105z" />
<glyph unicode="&#x178;" horiz-adv-x="824" d="M264 0v7q48 0 65 19.5t17 61.5v301l-188 339q-22 39 -50.5 60.5t-82.5 24.5q1 2 0 5v2h301l-2 -9q-58 -3 -66 -26t20 -66l170 -307l195 312q-8 32 -32 58.5t-68 29.5v8h252v-7q-33 -2 -72 -24.5t-66 -64.5l-203 -322v-314q0 -42 16.5 -61.5t63.5 -19.5v-7h-270zM330 888 q-22 0 -39.5 17t-17.5 37t17 38t39 18t38 -17t16 -39q0 -20 -16.5 -37t-36.5 -17zM530 888q-22 0 -39.5 17t-17.5 37t17 38t39 18t38 -17t16 -39q0 -20 -16.5 -37t-36.5 -17z" />
<glyph unicode="&#x179;" horiz-adv-x="731" d="M40 0v11l500 801h-238q-61 0 -107.5 -25.5t-71.5 -65t-37 -78t-13 -74.5h-9v251h599v-7l-501 -805h262q61 0 107.5 25.5t71 65.5t37 78.5t13.5 74.5h9v-252h-622zM349 883l-6 2l111 142q10 13 23 15.5t19 -4.5q9 -14 4.5 -25t-13.5 -17z" />
<glyph unicode="&#x17a;" horiz-adv-x="582" d="M42 0v7l374 494h-141q-106 0 -147.5 -54t-50.5 -168h-11v230h471v-7l-375 -494h159q192 0 198 223h11v-231h-488zM280 591l-6 2l111 142q10 13 23 15.5t19 -4.5q9 -14 4.5 -25t-13.5 -17z" />
<glyph unicode="&#x17b;" horiz-adv-x="731" d="M40 0v11l500 801h-238q-61 0 -107.5 -25.5t-71.5 -65t-37 -78t-13 -74.5h-9v251h599v-7l-501 -805h262q61 0 107.5 25.5t71 65.5t37 78.5t13.5 74.5h9v-252h-622zM380 879q-22 0 -39.5 17t-17.5 37t17 38t39 18t38 -17t16 -39q0 -20 -16.5 -37t-36.5 -17z" />
<glyph unicode="&#x17c;" horiz-adv-x="582" d="M42 0v7l374 494h-141q-106 0 -147.5 -54t-50.5 -168h-11v230h471v-7l-375 -494h159q192 0 198 223h11v-231h-488zM304 598q-22 0 -39.5 17t-17.5 37t17 38t39 18t38 -17t16 -39q0 -20 -16.5 -37t-36.5 -17z" />
<glyph unicode="&#x17d;" horiz-adv-x="731" d="M40 0v11l500 801h-238q-61 0 -107.5 -25.5t-71.5 -65t-37 -78t-13 -74.5h-9v251h599v-7l-501 -805h262q61 0 107.5 25.5t71 65.5t37 78.5t13.5 74.5h9v-252h-622zM374 881q-1 0 -2 1l-134 166q-1 2 1 3t4 0l131 -105l131 105q2 1 4 0t1 -3l-134 -166q-1 -1 -2 -1z" />
<glyph unicode="&#x17e;" horiz-adv-x="582" d="M42 0v7l374 494h-141q-106 0 -147.5 -54t-50.5 -168h-11v230h471v-7l-375 -494h159q192 0 198 223h11v-231h-488zM307 583q-1 0 -2 1l-134 166q-1 2 1 3t4 0l131 -105l131 105q2 1 4 0t1 -3l-134 -166q-1 -1 -2 -1z" />
<glyph unicode="&#x192;" horiz-adv-x="595" d="M362 481q-77 9 -99 9l1 -396q0 -137 -20 -228.5t-57.5 -136.5t-78.5 -61.5t-97 -16.5q-72 0 -116.5 42t-44.5 113q0 25 20 45t44 20q25 0 41.5 -17t16.5 -42q0 -24 -16.5 -41t-41.5 -17q-26 0 -42 16q3 -53 43.5 -81.5t85.5 -28.5q52 0 85 29.5t53.5 113.5t20.5 228v459 h-70q-18 0 -18 5t17 5h71q1 108 15 187.5t36.5 125.5t57 74t68 37t77.5 9q72 0 116.5 -42t44.5 -113q0 -25 -20 -45t-44 -20q-25 0 -41.5 17t-16.5 42q0 24 16.5 41t41.5 17q26 0 42 -16q-3 53 -43.5 81.5t-85.5 28.5q-52 0 -85.5 -29.5t-54.5 -113t-21 -226.5v-55 q57 0 79.5 4t24.5 4q17 0 19 -13q2 -9 -12 -13q-5 -1 -12 -1z" />
<glyph unicode="&#x1fa;" horiz-adv-x="842" d="M450 1010l-6 2l111 142q10 13 23 15.5t19 -4.5q9 -14 4.5 -25t-13.5 -17zM395 745l-159 -391h294zM364 898q0 -34 24 -58t58 -24t58 24t24 58t-24 58t-58 24t-58 -24t-24 -58zM354 898q0 38 27 65t65 27t65 -27t27 -65q0 -58 -53 -84l241 -685q16 -46 48.5 -82t78.5 -39 v-8h-321v8q117 4 85 95l-84 242h-300l-29 -72q-30 -74 -30 -138q0 -48 29.5 -83.5t98.5 -43.5v-8h-319v8q50 0 98.5 55t107.5 198l225 550q-27 10 -43.5 33.5t-16.5 53.5z" />
<glyph unicode="&#x1fb;" horiz-adv-x="676" d="M342 722l-6 2l111 142q10 13 23 15.5t19 -4.5q9 -14 4.5 -25t-13.5 -17zM320 7q48 0 100.5 46t52.5 128q0 74 -48.5 120.5t-107.5 46.5q-54 0 -98 -43.5t-44 -129.5q0 -88 41 -128t104 -40zM256 607q0 -34 24 -58t58 -24t58 24t24 58t-24 58t-58 24t-58 -24t-24 -58z M246 607q0 38 27 65t65 27t65 -27t27 -65q0 -30 -16.5 -53.5t-43.5 -33.5q211 -15 211 -219v-233q0 -40 9.5 -54t30.5 -14q20 0 31.5 18t16.5 36t9 18q15 0 7 -23q-21 -60 -92 -60q-51 0 -84 38.5t-37 94.5q-43 -133 -197 -133q-85 0 -152 50.5t-67 133.5q0 84 67 138 t152 54q75 0 126 -32.5t71 -86.5q-1 47 -1 139q0 69 -41 99t-98 30q-45 0 -96 -23.5t-88 -47t-50 -23.5q-10 0 -17 6q-8 8 -8 18q0 28 78 49.5t154 27.5q-27 10 -43 33t-16 53z" />
<glyph unicode="&#x1fc;" horiz-adv-x="1188" d="M656 874l-6 2l111 142q10 13 23 15.5t19 -4.5q9 -14 4.5 -25t-13.5 -17zM969 234q0 106 -54.5 149t-164.5 43h-74v-418h223q67 0 117.5 28t76.5 71t38.5 83t13.5 77h9v-267h-667v8q47 0 64 20t17 60v155h-64q-130 0 -237 30l-85 -127q-26 -39 -33.5 -70.5t4.5 -49 t40 -17.5v-9h-207v8q90 4 177 132l92 136q-113 34 -176 96t-63 137q0 55 30 93.5t82 38.5q40 0 67.5 -29.5t25.5 -70.5q-1 -31 -28 -61t-75 -30q-41 0 -65 27q30 -133 209 -190l273 402q15 22 23 41.5t7 39t-22.5 31t-63.5 11.5v8h675v-231h-9q-1 35 -13 71t-36.5 71.5 t-71 58t-107.5 22.5h-241v-378h74q219 0 219 182h9v-382h-9zM275 284q100 -30 241 -30h52v462z" />
<glyph unicode="&#x1fd;" horiz-adv-x="1054" d="M521 560l-6 2l111 142q10 13 23 15.5t19 -4.5q9 -14 4.5 -25t-13.5 -17zM274 -11q-85 0 -152 50.5t-67 133.5q0 84 67 138t152 54q77 0 127 -34.5t68 -91.5q1 46 1 146q-1 69 -41.5 99t-97.5 30q-45 0 -96 -23.5t-88 -47t-50 -23.5q-9 0 -17 6q-8 8 -8 18q0 32 97 55 t162 23q151 0 212 -86q83 85 217 85q106 0 178.5 -63t72.5 -141q0 -13 -17 -13h-410q-2 -34 -2 -50q0 -116 43 -186.5t139 -70.5q52 0 104.5 24.5t74.5 67.5h-9q-28 0 -48.5 20.5t-20.5 48.5q0 29 20 49.5t49 20.5t49.5 -20.5t20.5 -49.5q0 -61 -71.5 -115.5t-168.5 -54.5 q-109 0 -181 47t-100 126q-46 -172 -209 -172zM319 7q48 0 98.5 46t50.5 128q0 75 -46.5 121t-105.5 46q-54 0 -98 -43.5t-44 -129.5q0 -88 41 -128t104 -40zM760 513q-75 0 -119.5 -55t-55.5 -145h312q-1 90 -35.5 145t-101.5 55z" />
<glyph unicode="&#x1fe;" d="M464 909l-6 2l111 142q10 13 23 15.5t19 -4.5q9 -14 4.5 -25t-13.5 -17zM257 -182l72 191q-125 44 -197.5 153t-72.5 248q0 180 117 302.5t304 122.5q79 0 151 -25l58 154h13l-60 -158q120 -46 189.5 -153t69.5 -243q0 -180 -117 -302.5t-304 -122.5q-72 0 -141 21 l-71 -188h-11zM176 410q0 -126 42.5 -226t119.5 -150l284 752q-65 41 -142 41q-139 0 -221.5 -119t-82.5 -298zM480 -7q139 0 221.5 119t82.5 298q0 122 -40 219.5t-112 149.5l-284 -751q60 -35 132 -35z" />
<glyph unicode="&#x1ff;" horiz-adv-x="683" d="M343 582l-6 2l111 142q10 13 23 15.5t19 -4.5q9 -14 4.5 -25t-13.5 -17zM227 -76h-12l29 78q-86 27 -137.5 95.5t-51.5 156.5q0 112 81 189.5t205 77.5q49 0 94 -14l27 73h13l-29 -76q83 -29 132.5 -97t49.5 -153q0 -112 -81.5 -189t-205.5 -77q-44 0 -86 11zM169 254 q0 -166 84 -229l173 460q-37 27 -85 27q-83 0 -127.5 -73t-44.5 -185zM341 -3q83 0 128 72.5t45 184.5q0 156 -78 223l-173 -458q35 -22 78 -22z" />
<glyph unicode="&#x218;" horiz-adv-x="757" d="M372 -15q-144 0 -223 62t-79 141q0 40 23.5 64t59.5 24q35 0 56 -23.5t21 -56.5q0 -27 -21.5 -49t-50.5 -22q-28 0 -45 10q18 -63 87.5 -102t170.5 -39q97 0 155 45.5t58 134.5q0 33 -17 62t-52.5 54t-68 42.5t-83.5 42.5q-11 5 -17 8q-55 27 -89.5 47.5t-73 50.5 t-57.5 66t-19 78q0 92 84.5 151t204.5 59q129 0 202.5 -47t73.5 -123q0 -30 -18.5 -51t-46.5 -21q-31 0 -52 18.5t-21 47.5q0 26 16.5 46.5t48.5 20.5q14 0 29 -5q-19 48 -78.5 76.5t-153.5 28.5q-48 0 -90 -12t-75 -47t-33 -88q0 -32 15 -61t33 -48.5t57 -44t61.5 -36.5 t72.5 -36q45 -22 71.5 -36.5t62.5 -39t55.5 -47t34 -54t14.5 -67.5q0 -67 -46.5 -119.5t-114.5 -78.5t-142 -26zM341 -253l1 2q35 12 51.5 39t14.5 55q-16 -23 -45 -23q-22 0 -38.5 14.5t-16.5 35.5q0 27 17.5 42.5t42.5 15.5q33 0 52 -23t19 -58q0 -41 -35 -70.5t-63 -29.5 z" />
<glyph unicode="&#x219;" horiz-adv-x="581" d="M294 -15q-97 0 -163.5 39t-66.5 92q0 27 20 47t48 20q27 0 47.5 -20t20.5 -47q0 -23 -15 -44t-48 -27q58 -51 157 -51q84 0 130.5 26t46.5 67q0 34 -38.5 60t-94 44.5t-111 40t-94 58t-38.5 85.5q0 65 60.5 106t165.5 41q84 0 145.5 -35.5t61.5 -79.5q0 -31 -18 -48.5 t-44 -17.5t-45 18.5t-19 43.5q0 56 62 61q-50 50 -144 50q-69 0 -107.5 -24t-38.5 -63q0 -36 38 -64t93 -47t109.5 -40t92.5 -55t38 -80q0 -67 -69.5 -111.5t-181.5 -44.5zM270 -236l1 2q35 12 51.5 39t14.5 55q-16 -23 -45 -23q-22 0 -38.5 14.5t-16.5 35.5q0 27 17.5 42.5 t42.5 15.5q33 0 52 -23t19 -58q0 -41 -35 -70.5t-63 -29.5z" />
<glyph unicode="&#x21a;" horiz-adv-x="787" d="M65 569v251h657v-251h-10q-1 36 -13 74.5t-37 78t-71.5 65t-107.5 25.5h-33v-694q0 -62 16 -86t64 -24v-8h-270v8q49 0 65.5 24t16.5 86v549q1 138 0 145h-38q-61 0 -107.5 -25.5t-71.5 -65t-37 -78t-13 -74.5h-10zM368 -239l1 2q35 12 51.5 39t14.5 55q-16 -23 -45 -23 q-22 0 -38.5 14.5t-16.5 35.5q0 27 17.5 42.5t42.5 15.5q33 0 52 -23t19 -58q0 -41 -35 -70.5t-63 -29.5z" />
<glyph unicode="&#x21b;" horiz-adv-x="392" d="M223 -10q-56 0 -92 39.5t-36 129.5v342q-10 0 -31 -0.5t-34 -0.5q-16 0 -16 5q1 4 15 4h7q73 2 115.5 39t42.5 105q0 8 4.5 8t4.5 -8v-144q37 0 64 4t40 4q16 0 19 -14q3 -12 -15 -15q-4 -1 -9 -1q-3 0 -34.5 5.5t-57.5 6.5h-7v-441q0 -23 13.5 -39.5t38.5 -16.5 q18 0 30.5 9t18.5 20t9 30.5t3 31.5t-0.5 32.5t-0.5 24.5q0 40 33 40q14 0 21.5 -21.5t-0.5 -54.5q-16 -55 -52.5 -89.5t-93.5 -34.5zM180 -232l1 2q35 12 51.5 39t14.5 55q-16 -23 -45 -23q-22 0 -38.5 14.5t-16.5 35.5q0 27 17.5 42.5t42.5 15.5q33 0 52 -23t19 -58 q0 -41 -35 -70.5t-63 -29.5z" />
<glyph unicode="&#x2c6;" horiz-adv-x="434" d="M86 585q-2 -1 -4 0t-1 3l134 166q1 1 2 1t2 -1l134 -166q1 -2 -1 -3t-4 0l-131 105z" />
<glyph unicode="&#x2c7;" horiz-adv-x="434" d="M217 583q-1 0 -2 1l-134 166q-1 2 1 3t4 0l131 -105l131 105q2 1 4 0t1 -3l-134 -166q-1 -1 -2 -1z" />
<glyph unicode="&#x2d8;" horiz-adv-x="448" d="M224 594q-70 0 -107 41.5t-37 101.5h7q0 -35 40 -56t97 -21t97 21t40 56h7q0 -60 -37 -101.5t-107 -41.5z" />
<glyph unicode="&#x2d9;" horiz-adv-x="270" d="M137 613q-22 0 -39.5 17t-17.5 37t17 38t39 18t38 -17t16 -39q0 -20 -16.5 -37t-36.5 -17z" />
<glyph unicode="&#x2da;" horiz-adv-x="344" d="M80 660q0 38 27 65t65 27t65 -27t27 -65t-27 -65t-65 -27t-65 27t-27 65zM90 660q0 -34 24 -58t58 -24t58 24t24 58t-24 58t-58 24t-58 -24t-24 -58z" />
<glyph unicode="&#x2db;" horiz-adv-x="494" d="M211 -196q-41 0 -63 19t-22 47q0 24 16 45t35.5 33t52.5 30.5t50 30.5h7q-2 -2 -22 -18t-31.5 -27t-23 -33.5t-11.5 -47.5q0 -27 10.5 -46.5t29.5 -19.5q20 0 31.5 18t16.5 36t9 18q15 0 7 -23q-22 -62 -92 -62z" />
<glyph unicode="&#x2dc;" horiz-adv-x="448" d="M89 595q-9 0 -9 11q0 109 74 109q33 0 97 -32.5t84 -32.5q19 0 22 16.5t-1.5 31t3.5 16.5q9 0 9 -11q0 -47 -21 -78t-55 -31q-35 0 -97.5 31.5t-87.5 31.5q-16 0 -17.5 -16t3 -30t-3.5 -16z" />
<glyph unicode="&#x2dd;" horiz-adv-x="457" d="M86 611l-6 2l115 137q25 29 38 16q15 -15 -15 -42zM223 611l-6 2l112 134q28 32 41 19q8 -7 5.5 -16.5t-7.5 -15.5t-11 -10z" />
<glyph unicode="&#x3bc;" horiz-adv-x="710" d="M226 -310q-54 0 -93.5 37t-39.5 97l3 629q0 27 -11 41t-27 14q-17 0 -27 -16.5t-15 -33t-11 -16.5q-9 0 -9 11q0 26 22 44.5t57 18.5q131 0 131 -164l-1 -141q0 -113 22 -157.5t84 -44.5q71 0 128 78t57 232q0 100 -1 141q-1 23 -10.5 35.5t-23.5 12.5q-19 0 -30 -16.5 t-16.5 -33t-10.5 -16.5q-9 0 -9 11q0 26 24.5 44.5t55.5 18.5q129 0 129 -172l-1 -291v0q0 -51 31 -51q16 0 28 15.5t19 31t11 15.5q9 0 9 -10q0 -19 -27.5 -41.5t-70.5 -22.5q-109 0 -109 140v66q-12 -58 -36 -100.5t-53 -64.5t-56.5 -31.5t-54.5 -9.5q-50 0 -89 15 q0 -226 1 -259q1 -23 10.5 -35.5t23.5 -12.5q19 0 30 16.5t16.5 33t10.5 16.5q9 0 9 -11q0 -26 -24.5 -44.5t-55.5 -18.5z" />
<glyph unicode="&#x3c0;" horiz-adv-x="976" d="M482 -15q-188 0 -305.5 122.5t-117.5 302.5t117.5 302.5t305.5 122.5t305.5 -122.5t117.5 -302.5t-117.5 -302.5t-305.5 -122.5zM482 -3q182 0 295.5 119t113.5 294t-113.5 294t-295.5 119t-296 -119t-114 -294t114 -294t296 -119zM303 164v6q28 0 37.5 11t9.5 35v381 q0 24 -10 34.5t-38 10.5v6h166q109 0 172.5 -36t63.5 -102q0 -68 -64 -108t-170 -40h-56v-146q0 -24 10 -35t39 -11v-6h-160zM414 642v-273h53q80 0 125.5 38.5t45.5 102.5q0 62 -45 97t-129 35h-50z" />
<glyph unicode="&#x1e80;" horiz-adv-x="1371" d="M920 0l-238 626l-255 -626h-60l-238 707q-18 54 -51 79t-91 26v8h351q-1 -2 -1 -8q-68 -2 -87 -34.5t1 -80.5l202 -605l224 547l-25 68q-21 56 -48.5 80.5t-74.5 24.5v8h351q-1 -2 -1 -8q-81 -3 -100 -37t15 -131l205 -547l183 479q24 65 24 122t-38 85.5t-95 28.5v4v2.5 v1.5h315v-8q-59 -1 -104.5 -58.5t-86.5 -165.5l-224 -588h-53zM717 883l-138 113q-9 6 -13.5 17t4.5 25q6 7 19 4.5t23 -15.5l111 -142z" />
<glyph unicode="&#x1e81;" horiz-adv-x="900" d="M218 0l-167 411q-18 45 -41 68t-64 22l-1 8h251v-7q-23 -2 -34.5 -11t-11.5 -25t3.5 -30.5t11.5 -34.5l124 -302l126 291l-8 21q-19 45 -41.5 68t-63.5 22l-1 8h253v-7q-25 -2 -38 -10t-13 -23.5t4 -29.5t14 -38l123 -298l120 310q-28 78 -101 88q1 2 1 4v4h209v-7 q-28 0 -60 -35.5t-47 -74.5l-151 -392h-37l-158 378l-163 -378h-39zM462 577l-138 113q-9 6 -13.5 17t4.5 25q6 7 19 4.5t23 -15.5l111 -142z" />
<glyph unicode="&#x1e82;" horiz-adv-x="1371" d="M920 0l-238 626l-255 -626h-60l-238 707q-18 54 -51 79t-91 26v8h351q-1 -2 -1 -8q-68 -2 -87 -34.5t1 -80.5l202 -605l224 547l-25 68q-21 56 -48.5 80.5t-74.5 24.5v8h351q-1 -2 -1 -8q-81 -3 -100 -37t15 -131l205 -547l183 479q24 65 24 122t-38 85.5t-95 28.5v4v2.5 v1.5h315v-8q-59 -1 -104.5 -58.5t-86.5 -165.5l-224 -588h-53zM693 879l-6 2l111 142q10 13 23 15.5t19 -4.5q9 -14 4.5 -25t-13.5 -17z" />
<glyph unicode="&#x1e83;" horiz-adv-x="900" d="M218 0l-167 411q-18 45 -41 68t-64 22l-1 8h251v-7q-23 -2 -34.5 -11t-11.5 -25t3.5 -30.5t11.5 -34.5l124 -302l126 291l-8 21q-19 45 -41.5 68t-63.5 22l-1 8h253v-7q-25 -2 -38 -10t-13 -23.5t4 -29.5t14 -38l123 -298l120 310q-28 78 -101 88q1 2 1 4v4h209v-7 q-28 0 -60 -35.5t-47 -74.5l-151 -392h-37l-158 378l-163 -378h-39zM428 578l-6 2l111 142q10 13 23 15.5t19 -4.5q9 -14 4.5 -25t-13.5 -17z" />
<glyph unicode="&#x1e84;" horiz-adv-x="1371" d="M920 0l-238 626l-255 -626h-60l-238 707q-18 54 -51 79t-91 26v8h351q-1 -2 -1 -8q-68 -2 -87 -34.5t1 -80.5l202 -605l224 547l-25 68q-21 56 -48.5 80.5t-74.5 24.5v8h351q-1 -2 -1 -8q-81 -3 -100 -37t15 -131l205 -547l183 479q24 65 24 122t-38 85.5t-95 28.5v4v2.5 v1.5h315v-8q-59 -1 -104.5 -58.5t-86.5 -165.5l-224 -588h-53zM601 883q-22 0 -39.5 17t-17.5 37t17 38t39 18t38 -17t16 -39q0 -20 -16.5 -37t-36.5 -17zM801 883q-22 0 -39.5 17t-17.5 37t17 38t39 18t38 -17t16 -39q0 -20 -16.5 -37t-36.5 -17z" />
<glyph unicode="&#x1e85;" horiz-adv-x="900" d="M218 0l-167 411q-18 45 -41 68t-64 22l-1 8h251v-7q-23 -2 -34.5 -11t-11.5 -25t3.5 -30.5t11.5 -34.5l124 -302l126 291l-8 21q-19 45 -41.5 68t-63.5 22l-1 8h253v-7q-25 -2 -38 -10t-13 -23.5t4 -29.5t14 -38l123 -298l120 310q-28 78 -101 88q1 2 1 4v4h209v-7 q-28 0 -60 -35.5t-47 -74.5l-151 -392h-37l-158 378l-163 -378h-39zM333 603q-22 0 -39.5 17t-17.5 37t17 38t39 18t38 -17t16 -39q0 -20 -16.5 -37t-36.5 -17zM533 603q-22 0 -39.5 17t-17.5 37t17 38t39 18t38 -17t16 -39q0 -20 -16.5 -37t-36.5 -17z" />
<glyph unicode="&#x1ef2;" horiz-adv-x="824" d="M264 0v7q48 0 65 19.5t17 61.5v301l-188 339q-22 39 -50.5 60.5t-82.5 24.5q1 2 0 5v2h301l-2 -9q-58 -3 -66 -26t20 -66l170 -307l195 312q-8 32 -32 58.5t-68 29.5v8h252v-7q-33 -2 -72 -24.5t-66 -64.5l-203 -322v-314q0 -42 16.5 -61.5t63.5 -19.5v-7h-270zM477 861 l-138 113q-9 6 -13.5 17t4.5 25q6 7 19 4.5t23 -15.5l111 -142z" />
<glyph unicode="&#x1ef3;" horiz-adv-x="588" d="M-21 -347q-61 0 -98.5 35.5t-37.5 85.5q0 40 21.5 66t55.5 26q31 0 51.5 -20.5t20.5 -50.5q0 -32 -20.5 -53t-51.5 -21q-10 0 -21 4q9 -29 32.5 -44t52.5 -15q102 0 175 145l88 174l-196 426q-22 51 -43 71t-62 19l-1 8h251v-7q-46 -4 -51.5 -26.5t20.5 -74.5l142 -298 l157 309q-17 42 -40.5 63t-60.5 26q1 2 1 4v4h209v-7q-27 0 -58 -35t-49 -75l-299 -590q-36 -70 -80 -109.5t-108 -39.5zM309 600l-138 113q-9 6 -13.5 17t4.5 25q6 7 19 4.5t23 -15.5l111 -142z" />
<glyph unicode="&#x2013;" horiz-adv-x="515" d="M43 234v89h429v-89h-429z" />
<glyph unicode="&#x2014;" horiz-adv-x="615" d="M43 233v89h529v-89h-529z" />
<glyph unicode="&#x2018;" horiz-adv-x="318" d="M145 613q-39 0 -61 27t-22 67q0 48 40.5 82.5t73.5 34.5l-1 -2q-41 -14 -60.5 -46t-16.5 -64q20 27 53 27q26 0 45 -17t19 -42q0 -32 -20.5 -49.5t-49.5 -17.5z" />
<glyph unicode="&#x2019;" horiz-adv-x="318" d="M125 620l1 2q40 13 59.5 45t16.5 64q-17 -26 -52 -26q-26 0 -45 17t-19 42q0 32 20.5 49.5t49.5 17.5q39 0 61 -27t22 -67q0 -48 -40.5 -82.5t-73.5 -34.5z" />
<glyph unicode="&#x201a;" horiz-adv-x="309" d="M118 -107l1 2q48 16 71.5 54t20.5 77q-22 -31 -63 -31q-31 0 -54 20t-23 50q0 38 24.5 59.5t59.5 21.5q47 0 73.5 -32.5t26.5 -80.5q0 -58 -49 -99t-88 -41z" />
<glyph unicode="&#x201c;" horiz-adv-x="508" d="M145 613q-39 0 -61 27t-22 67q0 48 40.5 82.5t73.5 34.5l-1 -2q-41 -14 -60.5 -46t-16.5 -64q20 27 53 27q26 0 45 -17t19 -42q0 -32 -20.5 -49.5t-49.5 -17.5zM345 613q-39 0 -61 27t-22 67q0 48 40.5 82.5t73.5 34.5l-1 -2q-41 -14 -60.5 -46t-16.5 -64q20 27 53 27 q26 0 45 -17t19 -42q0 -32 -20.5 -49.5t-49.5 -17.5z" />
<glyph unicode="&#x201d;" horiz-adv-x="508" d="M100 622l1 2q40 13 59.5 45t16.5 64q-17 -26 -52 -26q-26 0 -45 17t-19 42q0 32 20.5 49.5t49.5 17.5q39 0 61 -27t22 -67q0 -48 -40.5 -82.5t-73.5 -34.5zM300 622l1 2q40 13 59.5 45t16.5 64q-17 -26 -52 -26q-26 0 -45 17t-19 42q0 32 20.5 49.5t49.5 17.5 q39 0 61 -27t22 -67q0 -48 -40.5 -82.5t-73.5 -34.5z" />
<glyph unicode="&#x201e;" horiz-adv-x="541" d="M118 -107l1 2q48 16 71.5 54t20.5 77q-22 -31 -63 -31q-31 0 -54 20t-23 50q0 38 24.5 59.5t59.5 21.5q47 0 73.5 -32.5t26.5 -80.5q0 -58 -49 -99t-88 -41zM359 -107l1 2q48 16 71.5 54t20.5 77q-22 -31 -63 -31q-31 0 -54 20t-23 50q0 38 24.5 59.5t59.5 21.5 q47 0 73.5 -32.5t26.5 -80.5q0 -58 -49 -99t-88 -41z" />
<glyph unicode="&#x2020;" horiz-adv-x="770" d="M675 465q0 58 -80 67l-160 19v-464q0 -41 18 -60.5t66 -19.5v-7h-269v7q48 0 66.5 19.5t18.5 60.5v464l-163 -19q-80 -9 -80 -67h-7v191h7q0 -28 21 -45t59 -22l163 -20v164q0 41 -18.5 60.5t-66.5 19.5v7h269l1 -7q-48 0 -66.5 -19.5t-18.5 -60.5v-163l160 19 q38 5 59 22t21 45h7v-191h-7z" />
<glyph unicode="&#x2021;" horiz-adv-x="773" d="M678 183q0 58 -80 67l-160 19v-182q0 -41 18 -60.5t66 -19.5v-7h-269v7q48 0 66.5 19.5t18.5 60.5v182l-163 -19q-80 -9 -80 -67h-7v191h7q0 -28 21 -45t59 -22l163 -20v264l-163 -19q-80 -9 -80 -67h-7v191h7q0 -28 21 -45t59 -22l163 -20v164q0 41 -18.5 60.5 t-66.5 19.5v7h270v-7q-48 0 -66.5 -19.5t-18.5 -60.5v-163l160 19q38 5 59 22t21 45h7v-191h-7q0 58 -80 67l-160 19v-263l160 19q38 5 59 22t21 45h7v-191h-7z" />
<glyph unicode="&#x2022;" horiz-adv-x="404" d="M202 287q-50 0 -86 36t-36 86t36 86t86 36t86 -36t36 -86t-36 -86t-86 -36z" />
<glyph unicode="&#x2026;" horiz-adv-x="783" d="M130 -7q-29 0 -49 20.5t-20 49.5t20 49.5t49 20.5t49.5 -20.5t20.5 -49.5t-20.5 -49.5t-49.5 -20.5zM391 -7q-29 0 -49 20.5t-20 49.5t20 49.5t49 20.5t49.5 -20.5t20.5 -49.5t-20.5 -49.5t-49.5 -20.5zM652 -7q-29 0 -49 20.5t-20 49.5t20 49.5t49 20.5t49.5 -20.5 t20.5 -49.5t-20.5 -49.5t-49.5 -20.5z" />
<glyph unicode="&#x2030;" horiz-adv-x="1399" d="M248 464q43 0 68.5 51.5t25.5 128.5t-25.5 128.5t-68.5 51.5t-68 -51t-25 -129q0 -77 25 -128.5t68 -51.5zM248 454q-84 0 -136 54.5t-52 135.5t52 136t136 55q85 0 137 -55t52 -136t-52.5 -135.5t-136.5 -54.5zM89 1l739 811h21l-739 -811h-21zM688 -5q43 0 68.5 51.5 t25.5 128.5t-25.5 128.5t-68.5 51.5t-68 -51t-25 -129q0 -77 25 -128.5t68 -51.5zM688 -15q-84 0 -136 54.5t-52 135.5t52 136t136 55q85 0 137 -55t52 -136t-52.5 -135.5t-136.5 -54.5zM1150 -5q43 0 68.5 51.5t25.5 128.5t-25.5 128.5t-68.5 51.5t-68 -51t-25 -129 q0 -77 25 -128.5t68 -51.5zM1150 -15q-84 0 -136 54.5t-52 135.5t52 136t136 55q85 0 137 -55t52 -136t-52.5 -135.5t-136.5 -54.5z" />
<glyph unicode="&#x2039;" horiz-adv-x="412" d="M329 116l-249 140v5l249 144l3 -5l-156 -141l156 -138z" />
<glyph unicode="&#x203a;" horiz-adv-x="412" d="M332 256l-249 -140l-3 5l156 138l-156 141l3 5l249 -144v-5z" />
<glyph unicode="&#x2044;" horiz-adv-x="462" d="M50 -20l343 859h19l-343 -859h-19z" />
<glyph unicode="&#x20ac;" horiz-adv-x="861" d="M601 299q-72 9 -103 9h-229q17 -142 80 -227t167 -86q66 0 125.5 38.5t87.5 93.5q8 15 19.5 19t18.5 -2q22 -13 1 -44q-33 -48 -99 -81.5t-153 -33.5q-145 0 -238 89t-119 234h-115v9h113q-7 42 -7 93q0 56 9 109h-79v9h81q27 140 117.5 223.5t242.5 83.5q87 0 148 -32.5 t90 -83.5q18 -33 -1 -44q-7 -6 -18.5 -2t-19.5 19q-68 135 -199 135q-112 0 -173 -80t-78 -219h296q47 0 73 4.5t30 4.5q17 0 19 -13q2 -9 -12 -13q-5 -1 -12 -1q-72 9 -103 9h-292q-5 -44 -5 -109q0 -43 5 -93h234q46 0 72 4.5t31 4.5q17 0 19 -13q2 -9 -12 -13 q-5 -1 -12 -1z" />
<glyph unicode="&#x2122;" horiz-adv-x="718" d="M308 540v6q13 0 23 17t10 52v160q0 39 -33 39v6h64l110 -208l97 208h65v-6q-17 0 -22.5 -7t-5.5 -21v-214q0 -14 5.5 -20t21.5 -6v-6h-91v6q16 0 21.5 6t5.5 20v232l-104 -225h-18l-109 205v-169q0 -69 29 -69v-6h-69zM57 735v85h223v-85h-7q-1 29 -18 54t-56 25h-11 v-242q0 -14 5.5 -20t21.5 -6v-6h-91v6q16 0 21.5 6t5.5 20v242h-13q-39 0 -56 -25t-18 -54h-7z" />
<glyph unicode="&#x2212;" horiz-adv-x="545" d="M80 245v13h385v-13h-385z" />
<glyph unicode="&#x2260;" horiz-adv-x="545" d="M80 354v13h247l37 67h16l-37 -67h122v-13h-129l-109 -201h238v-13h-245l-40 -73h-16l40 73h-124v13h131l109 201h-240z" />
<glyph unicode="&#x25fc;" horiz-adv-x="510" d="M0 510h510v-510h-510v510z" />
<glyph horiz-adv-x="0" />
<glyph horiz-adv-x="495" d="M222 -258l1 2q35 12 51.5 39t14.5 55q-16 -23 -45 -23q-22 0 -38.5 14.5t-16.5 35.5q0 27 17.5 42.5t42.5 15.5q33 0 52 -23t19 -58q0 -41 -35 -70.5t-63 -29.5z" />
<glyph horiz-adv-x="1023" d="M511 -62l76 250l231 -125l-124 232l247 75l-247 73l124 231l-231 -124l-74 249l-77 -249l-229 124l124 -231l-250 -74l250 -77l-124 -229l229 125zM511 -93l-101 216l-225 -82l82 225l-217 103l217 100l-82 226l225 -82l103 217l100 -217l226 82l-82 -226l216 -99 l-216 -102l82 -227l-226 83z" />
<glyph horiz-adv-x="367" d="M49 0v7q52 0 70 20.5t18 63.5v206q0 55 -3.5 84t-15.5 45.5t-32.5 15.5t-56.5 -16l-4 8l209 81l8 -7v-417q0 -45 15 -64.5t66 -19.5v-7h-274z" />
<glyph horiz-adv-x="542" d="M48 0v26q171 120 241 195.5t70 154.5q1 57 -37 93t-100 36q-97 0 -132 -74q14 8 30 8q31 0 52.5 -20.5t21.5 -51.5q0 -32 -21 -54t-53 -22q-30 0 -53.5 22t-23.5 56q0 54 58 102.5t159 48.5q88 0 151 -40t63 -98q0 -33 -14 -59t-46 -51.5t-66.5 -48t-94 -62t-110.5 -79.5 h137q65 0 97.5 4t51.5 22t23 42t4 75h11v-225h-419z" />
<glyph horiz-adv-x="602" d="M263 -209q-59 0 -104.5 17t-69.5 43t-35.5 52.5t-11.5 50.5q0 39 22.5 62t57.5 23q32 0 54.5 -23t22.5 -54t-21.5 -53t-56.5 -22q-19 0 -35 8q15 -44 63 -69.5t108 -25.5q84 0 132 53t48 138q0 87 -61 135.5t-162 48.5h-45v10h45q101 0 150.5 48.5t49.5 127.5 q0 68 -43 109t-111 41q-103 0 -143 -73q7 3 17 3q36 0 56 -21.5t20 -52.5t-21 -51.5t-53 -20.5q-33 0 -54.5 21t-21.5 53q0 54 59 103t162 49q117 0 182 -46t65 -116q0 -75 -69.5 -121t-171.5 -55q-3 0 -3 -2q2 -3 3 -3q113 -7 193 -54t80 -133q0 -89 -85.5 -144.5 t-211.5 -55.5z" />
<glyph horiz-adv-x="520" d="M510 -206h-277v9q50 0 68 19.5t18 59.5v118h-308l-3 7l411 507h6v-506h84v-8h-84v-122q0 -40 17.5 -57.5t67.5 -17.5v-9zM21 8h298v369z" />
<glyph horiz-adv-x="625" d="M317 -212q-112 0 -181.5 56t-69.5 130q0 32 22.5 55t53.5 23q32 0 53.5 -23.5t21.5 -54.5q0 -30 -20.5 -51t-53.5 -23q-18 0 -37 12q15 -50 61.5 -79t109.5 -29q86 0 135.5 58t49.5 158q0 88 -45.5 144t-127.5 56q-96 0 -189 -95l-10 5v379h461v-238h-11q0 101 -32 128 t-150 27h-258v-287q107 100 232 100q107 0 178 -58.5t71 -158.5q0 -102 -75 -168t-189 -66z" />
<glyph horiz-adv-x="718" d="M371 -13q-79 0 -141 32.5t-98.5 86t-55 115.5t-18.5 126q0 106 50 189.5t130 127t174 43.5q82 -1 138 -30t56 -72q0 -27 -18 -44t-43 -17q-27 0 -45 17.5t-18 43.5q0 19 11 35t27 23q-36 36 -108 36q-110 0 -174 -92.5t-64 -250.5q0 -61 4 -88q11 111 70.5 177.5 t150.5 66.5q108 0 184 -70t76 -183q0 -116 -83.5 -194t-204.5 -78zM371 -4q81 0 124.5 75t43.5 189q0 101 -41.5 167t-126.5 66q-77 0 -129.5 -74t-51.5 -181q2 -99 50 -170.5t131 -71.5z" />
<glyph horiz-adv-x="546" d="M278 -209q-35 0 -55.5 22.5t-20.5 55.5q0 35 23.5 87t86.5 162l181 307h-216q-72 0 -112 -6t-65 -25.5t-32 -49t-7 -84.5h-8v249h491v-17l-190 -326q-62 -108 -62 -162q0 -28 27.5 -68.5t27.5 -69.5q0 -28 -18.5 -51.5t-50.5 -23.5z" />
<glyph horiz-adv-x="659" d="M336 -15q-124 0 -205.5 46t-80.5 129q1 40 18 71t49 52.5t66 35t82 27.5q-89 41 -138 82.5t-49 100.5q1 79 72.5 128.5t192.5 49.5q103 0 174 -40.5t71 -111.5q0 -31 -15.5 -56t-45.5 -44t-58 -31t-69 -25q47 -21 79.5 -39t65.5 -44t50 -57.5t17 -69.5q1 -92 -80.5 -148 t-195.5 -56zM536 137q0 18 -7 35t-15.5 30t-27.5 28t-32.5 24.5t-41 23.5t-42.5 20.5t-47.5 21t-45.5 20.5q-80 -26 -117.5 -69t-37.5 -111q-1 -73 56 -120t156 -47q46 0 90 14.5t77.5 48.5t34.5 81zM154 581q0 -14 3.5 -26.5t13.5 -24.5t18 -21t26 -20t29 -18t34.5 -18.5 t35 -16.5t39.5 -17t39 -17q67 26 101.5 63.5t34.5 95.5q0 62 -51 99.5t-134 37.5q-92 0 -140.5 -31.5t-48.5 -85.5z" />
<glyph horiz-adv-x="718" d="M305 -210q-83 0 -139 29t-56 72q0 27 18 44t44 17q27 0 44.5 -17.5t17.5 -43.5q0 -20 -11.5 -35.5t-28.5 -21.5q36 -36 111 -36q109 -1 172 93.5t63 253.5q0 59 -6 95q-9 -113 -66.5 -180t-149.5 -67q-108 0 -185.5 70.5t-77.5 182.5q0 116 83.5 194t205.5 78 q78 0 140.5 -33.5t98.5 -87.5t54.5 -116.5t18.5 -126.5q0 -158 -104 -261.5t-247 -102.5zM346 12q77 0 127.5 73.5t50.5 182.5q-2 99 -49.5 170t-130.5 71q-80 0 -124 -74.5t-44 -188.5q0 -102 42 -168t128 -66z" />
<glyph horiz-adv-x="670" d="M335 -4q74 0 117.5 74t43.5 184q0 111 -42 185t-118 74t-119 -74.5t-43 -184.5t42.5 -184t118.5 -74zM334 -13q-120 0 -199.5 77.5t-79.5 189.5t79 189.5t201 77.5t200 -77.5t78 -189.5q0 -111 -79 -188.5t-200 -78.5z" />
<glyph horiz-adv-x="796" d="M-14 0v8q90 4 177 132l99 146q-102 41 -161 107t-59 125q0 41 22.5 70t61.5 29q30 0 50.5 -22t18.5 -53q0 -24 -20 -46.5t-56 -22.5q-18 0 -33 8q15 -58 62 -106t121 -78l266 392q15 22 23 41.5t7 39t-22.5 31t-63.5 11.5v8h279v-8q-48 0 -65 -18.5t-17 -60.5v-646 q0 -42 16.5 -60.5t64.5 -18.5v-8h-270v8q48 0 64.5 18.5t16.5 60.5v156h-64q-125 0 -231 39l-91 -136q-26 -39 -33.5 -70.5t4.5 -49t40 -17.5v-9h-207zM280 292q101 -38 236 -38h52v462z" />
<glyph horiz-adv-x="854" d="M452 -15q-173 0 -282 122.5t-109 302.5t117 302.5t304 122.5q74 0 132.5 -26.5t89.5 -65.5t47 -76t16 -66q0 -38 -22.5 -61.5t-55.5 -23.5q-30 0 -53 22.5t-23 52.5t23 52.5t53 22.5q6 0 10 -1q-11 71 -70.5 116.5t-146.5 45.5q-139 0 -221.5 -119t-82.5 -298 q0 -116 32.5 -210.5t95.5 -150.5t146 -57q57 0 97.5 19t62.5 53t31.5 73t9.5 86q0 27 13.5 46t39.5 19q24 0 36.5 -16t12.5 -42q0 -39 -18.5 -80.5t-54 -79t-96 -61.5t-134.5 -24z" />
<glyph horiz-adv-x="785" d="M39 0v8q48 0 64.5 19t16.5 61v644q0 42 -17 61t-65 19v8h603q39 0 63.5 -21.5t24.5 -53.5q0 -30 -22 -52.5t-53 -22.5q-32 0 -53.5 21t-21.5 52q0 37 28 58q-29 11 -82 11h-297v-459q26 79 97.5 121.5t133.5 42.5q33 0 54 -21.5t21 -53.5q0 -31 -22 -52.5t-50 -21.5 q-32 0 -53.5 21t-21.5 49t15 48q-68 -6 -119.5 -60.5t-54.5 -136.5v-281h289q54 0 87 11q-28 22 -28 57q0 34 22.5 55t55.5 21q31 0 52.5 -21t21.5 -53q0 -34 -26 -56t-74 -22h-589z" />
<glyph horiz-adv-x="758" d="M228 247v-160q0 -42 16.5 -61t64.5 -19v-7h-270v7q48 0 64.5 19t16.5 61v646q0 42 -17 61t-65 19v7h578q38 0 62.5 -21.5t24.5 -52.5q0 -29 -22 -51.5t-52 -22.5q-31 0 -52.5 20.5t-21.5 51.5q0 36 25 56q-32 12 -76 12h-276v-483q11 52 38.5 93.5t60.5 65t64 36t54 12.5 q46 0 67.5 -22t21.5 -55q0 -28 -22 -49.5t-52 -21.5q-31 0 -52.5 20.5t-21.5 50.5q0 24 17 46q-68 -14 -121.5 -80t-53.5 -178z" />
<glyph horiz-adv-x="693" d="M39 0v7q48 0 64.5 19t16.5 61v646q0 42 -17 61t-65 19v7h272v-7q-48 0 -65 -19t-17 -61v-724h256q32 0 52 7q-35 22 -35 57q0 29 20 53t57 24q33 0 54 -22t21 -48q0 -37 -25.5 -58.5t-75.5 -21.5h-513z" />
<glyph horiz-adv-x="795" d="M39 0v7q48 0 64.5 19t16.5 61v646q0 42 -17 61t-65 19v7h301q188 0 295.5 -56.5t107.5 -167.5q0 -89 -83 -143t-230 -70q-1 0 -3 -3q2 -2 3 -2q288 -2 288 -227v-203q0 -53 11 -75t35 -22q26 0 33 23.5t7 75.5q0 24 15 24q7 0 11.5 -7.5t4.5 -15.5q0 -47 -26.5 -81 t-75.5 -34q-54 0 -88.5 39.5t-34.5 123.5v207q0 46 -11.5 76.5t-30 48.5t-56 27.5t-76 12t-102.5 2.5h-105v-286q0 -42 16.5 -61t64.5 -19v-7h-270zM228 813v-430h109q142 0 217.5 54.5t75.5 157.5q0 218 -300 218h-102z" />
<glyph horiz-adv-x="787" d="M342 87v709q-135 30 -199 30q-20 0 -33 -5q16 1 33 -5q16 -6 27.5 -24t11.5 -40q0 -28 -21.5 -49t-53.5 -21q-33 0 -53 21.5t-20 47.5q0 35 23 60.5t80 25.5q67 0 247 -40t251 -40q30 0 54 8q-8 -1 -18 2q-17 4 -29.5 19.5t-12.5 37.5q0 23 17.5 42t46.5 19q30 0 48 -19 t18 -43q0 -31 -27.5 -54.5t-69.5 -23.5q-84 0 -212 27v-685q0 -42 16.5 -61t64.5 -19v-7h-270v7q48 0 64.5 19t16.5 61z" />
<glyph horiz-adv-x="703" d="M317 -321q-92 0 -153.5 53t-61.5 112q0 35 22 60.5t55 24.5t53 -21.5t20 -52.5q0 -34 -21 -54.5t-56 -20.5q-13 0 -25 5q14 -42 58 -69t113 -27q70 0 114.5 45.5t60 106.5t15.5 136v170q-25 -73 -81 -115t-134 -42q-92 0 -166.5 70t-74.5 193q0 115 77 189.5t180 74.5 q149 0 199 -154v70q0 40 16 60t37 20q22 0 39.5 -19t17.5 -61v-372q0 -188 -86.5 -285t-217.5 -97zM319 6q82 0 140.5 71t57.5 178q-1 121 -56.5 184.5t-119.5 63.5q-73 0 -124.5 -61t-51.5 -188q0 -125 47.5 -186.5t106.5 -61.5z" />
<glyph horiz-adv-x="308" d="M232 -8q-50 0 -91 36t-41 107v314q0 33 15.5 49.5t41.5 16.5q25 0 40 -17t15 -48v-387q0 -62 36 -62q19 0 30 19.5t17 39t13 19.5q9 0 9 -12q0 -31 -25 -53t-60 -22zM157 619q-29 0 -49 20.5t-20 49.5t20 49.5t49 20.5t49.5 -20.5t20.5 -49.5t-20.5 -49.5t-49.5 -20.5z " />
<glyph horiz-adv-x="716" d="M232 -10q-51 0 -91.5 37t-40.5 97v329q0 62 58 62q25 0 39 -17t14 -48v-133q12 58 37.5 100t57 62t60 28.5t56.5 8.5q92 0 145.5 -52t53.5 -160v-251q0 -27 11 -41t27 -14q17 0 27 16.5t15 33t11 16.5q9 0 9 -11q0 -26 -22 -44.5t-57 -18.5q-51 0 -92.5 35.5t-41.5 110.5 l3 163q-1 112 -24 156.5t-88 44.5q-33 0 -64.5 -16t-60 -49t-46 -94t-17.5 -141q0 -113 1 -154q1 -23 10.5 -35.5t23.5 -12.5q19 0 30 16.5t16.5 33t10.5 16.5q9 0 9 -11q0 -26 -24.5 -44.5t-55.5 -18.5z" />
<glyph horiz-adv-x="486" d="M213 -10q-42 0 -77.5 35t-35.5 86v338q0 66 54 66q25 0 39.5 -17t14.5 -48v-137q20 99 74 151.5t102 52.5q43 0 65 -20.5t22 -50.5q0 -31 -19 -50.5t-46 -19.5q-30 0 -50.5 19t-20.5 47q0 45 38 62q-65 -12 -115.5 -93.5t-50.5 -237.5v-111q0 -30 11.5 -45t28.5 -15 q21 0 30 17t12 34t9 17q8 0 8 -12q0 -30 -26.5 -49t-66.5 -19z" />
<glyph horiz-adv-x="403" d="M223 -10q-56 0 -92 39.5t-36 129.5v343q-10 0 -31 -0.5t-34 -0.5t-15 5q-1 2 2 4q4 1 12 1h12q64 0 108 51t44 117q0 20 -10 39q-1 -21 -16.5 -35.5t-36.5 -14.5q-22 0 -37 15t-15 37t15 37.5t37 15.5q34 0 53.5 -30.5t19.5 -77.5v-153q37 0 64 3.5t40 3.5q16 0 19 -14 q3 -12 -15 -15q-4 -1 -9 -1q-4 0 -13 2t-31 4.5t-55 4.5v-442q0 -23 13.5 -38.5t38.5 -15.5q18 0 30.5 8.5t18.5 19.5t9 30.5t3 31.5t-0.5 32t-0.5 24q0 40 33 40q14 0 21.5 -21.5t-0.5 -54.5q-16 -55 -52.5 -89.5t-93.5 -34.5z" />
<glyph horiz-adv-x="704" d="M299 -10q-92 0 -145.5 52t-53.5 160v251q0 62 57 62q52 0 52 -65v-239q0 -113 22.5 -157.5t84.5 -44.5q71 0 128 78t57 232q0 100 -1 141q-1 23 -10.5 35.5t-23.5 12.5q-19 0 -30 -16.5t-16.5 -33t-10.5 -16.5q-9 0 -9 11q0 26 24.5 44.5t55.5 18.5q128 0 129 -171 l-1 -292q0 -51 31 -51q16 0 28 15.5t19 31t11 15.5q9 0 9 -10q0 -19 -28.5 -41.5t-69.5 -22.5q-109 0 -109 140v66q-12 -58 -36 -100.5t-53 -64.5t-56.5 -31.5t-54.5 -9.5z" />
<glyph horiz-adv-x="610" d="M25 0v7q70 4 131 82l109 140l-12 24q-63 122 -108 183t-86 61q-15 0 -24.5 -28.5t-15.5 -28.5q-9 0 -9 10q0 22 26 43t86 21q107 0 217 -215l4 -10l106 135q-11 36 -34.5 56.5t-54.5 20.5l-1 8h234v-7q-69 -4 -131 -82l-113 -142q65 -125 115.5 -199t86.5 -74 q20 0 33 29.5t16 29.5q9 0 9 -10q0 -22 -25.5 -43t-86.5 -21q-34 0 -65 17.5t-59.5 51.5t-51 70t-50.5 88l-102 -132q28 -77 89 -77l1 -8h-234z" />
<glyph horiz-adv-x="683" d="M304 -321q-92 0 -153.5 53t-61.5 112q0 35 22 60.5t55 24.5t53 -21.5t20 -52.5q0 -34 -21 -54.5t-56 -20.5q-13 0 -25 5q14 -42 58 -69t113 -27q180 0 180 288v205q-14 -61 -35.5 -101.5t-48.5 -59t-51.5 -25.5t-54.5 -7q-105 0 -153 51t-48 160q0 9 2 110t2 144 q0 48 -40 48q-17 0 -30.5 -17.5t-22 -35t-10.5 -17.5q-11 0 -11 10q0 22 34.5 48t83.5 26q39 0 73 -29t33 -81v-260q0 -57 28 -97t96 -40q66 0 109.5 85t43.5 195v160q0 53 -40 53q-17 0 -30.5 -17.5t-21.5 -35t-11 -17.5q-11 0 -11 10q0 22 34.5 48t83.5 26q39 0 73 -29 t33 -81v-345q0 -190 -82 -286t-212 -96z" />
<glyph horiz-adv-x="745" d="M223 -10q-56 0 -92 39.5t-36 129.5v340h-65q-13 0 -15 5q-1 2 2 4q4 1 12 1h9q67 0 111.5 51.5t45.5 118.5q0 20 -10 39q-1 -21 -16.5 -35.5t-36.5 -14.5q-22 0 -37 15t-15 37t15 37.5t37 15.5q34 0 53.5 -30.5t18.5 -77.5l-1 -156h122q221 0 221 170q0 20 -10 39 q-1 -21 -16.5 -35.5t-36.5 -14.5q-22 0 -37 15t-15 37t15 37.5t37 15.5q34 0 53.5 -30.5t19.5 -77.5v-156q37 0 64 4t40 4q16 0 19 -13q2 -11 -14 -14q-4 -1 -10 -1q-4 0 -15 1t-34 3t-50 3v-438q0 -23 13.5 -39t38.5 -16q18 0 30.5 8.5t18.5 20t9 31t3 31t-0.5 32 t-0.5 24.5q0 40 33 40q14 0 21.5 -21.5t-0.5 -54.5q-16 -55 -52.5 -89.5t-93.5 -34.5q-56 0 -92 39.5t-36 129.5v339q-31 1 -105 1h-140v-441q0 -23 13.5 -39t38.5 -16q18 0 30.5 8.5t18.5 20t9 31t3 31t-0.5 32t-0.5 24.5q0 40 33 40q14 0 21.5 -21.5t-0.5 -54.5 q-16 -55 -52.5 -89.5t-93.5 -34.5z" />
<glyph horiz-adv-x="752" d="M370 -15q-77 0 -143 22t-108.5 66.5t-42.5 104.5q0 32 23.5 55.5t54.5 23.5q32 0 54 -23t22 -56q0 -28 -20.5 -49t-54.5 -24q-7 -1 -20 -1q21 -51 85 -80.5t151 -29.5q108 0 168.5 72.5t60.5 182.5q0 97 -59 165t-154 68q-142 0 -282 -138l-10 10v474q61 16 108.5 8.5 t76 -28.5t55 -49t46.5 -54t50.5 -44t66.5 -18q69 0 113 47q-6 -1 -18 -1q-26 0 -45 22.5t-19 46.5q0 32 23 53.5t55 21.5q30 0 50 -21t20 -56q0 -56 -62 -89.5t-148 -33.5q-99 0 -202 37t-159 121v-429q136 131 280 131q142 0 233 -64t91 -177q0 -114 -102 -190.5 t-238 -76.5z" />
<glyph horiz-adv-x="774" d="M123 0v9q70 0 131 50.5t143 186.5l323 533q-85 -83 -231.5 -126.5t-243.5 -43.5t-146 39q-49 41 -49 106q0 41 29.5 67t66.5 26q34 0 58 -23.5t24 -58.5q0 -32 -22.5 -58.5t-61.5 -26.5q-23 0 -44.5 10.5t-30.5 33.5q8 -48 48.5 -75t94.5 -27q36 0 71.5 18t66 44.5t63 57 t68 55.5t75 39.5t90 9t107.5 -35.5l-340 -563q-38 -65 -57 -107.5t-21 -73t17.5 -44t61.5 -13.5q-1 -2 0 -5l2 -4h-293z" />
</font>
</defs>
</svg>
